<?xml version="1.0" encoding="utf-8"?>
<!-- Generator: Adobe Illustrator 23.0.5, SVG Export Plug-In . SVG Version: 6.00 Build 0)  -->
<svg version="1.1" xmlns="http://www.w3.org/2000/svg" xmlns:xlink="http://www.w3.org/1999/xlink" x="0px" y="0px"
	 viewBox="0 0 500 500" style="enable-background:new 0 0 500 500;" xml:space="preserve">
<style type="text/css">
	.st0{fill:#A2DBF7;}
	.st1{fill:#FFFFFF;}
	.st2{font-family:'Metropolis-Bold';}
	.st3{font-size:92px;}
	.st4{fill:#003781;}
	.st5{fill:#FF6171;}
	.st6{fill:#84D0F0;}
	.st7{fill:#FFB445;}
	.st8{fill:#7ED2F2;}
	.st9{fill:#00345A;}
	.st10{display:none;}
	.st11{display:inline;}
</style>
<g id="BACKGROUND">
	<rect y="-0.24" class="st0" width="500" height="500"/>
</g>
<g id="OBJECTS">
	<g>
		<g>
			<g>
				<g>
					<text transform="matrix(1 0 0 1 157.0307 267.487)" class="st1 st2 st3">YEBZ</text>
				</g>
			</g>
		</g>
	</g>
	<g>
		
			<ellipse transform="matrix(0.8529 -0.5221 0.5221 0.8529 -40.5373 195.1118)" class="st1" cx="325.92" cy="169.48" rx="20.95" ry="20.95"/>
		<path class="st4" d="M325.92,169.48l9.42,18.69c6.83-3.45,11.53-10.52,11.53-18.69c0-0.94-0.08-1.85-0.2-2.76
			c-5.25-0.25-11.89-0.38-11.89-0.38L325.92,169.48z"/>
		<path class="st5" d="M325.92,148.53v20.95h20.95C346.86,157.91,337.49,148.53,325.92,148.53z"/>
	</g>
	<path class="st4" d="M392.76,238.68l-1.48-0.09c-0.2-0.47-0.45-0.92-0.74-1.35l0.73-1.29c0.31-0.55,0.18-1.24-0.32-1.64l-1.41-1.14
		c-0.24-0.19-0.53-0.31-0.84-0.3c-0.32,0-0.62,0.12-0.85,0.33l-1.11,0.99c-0.49-0.2-1.01-0.35-1.53-0.44l-0.4-1.41
		c-0.17-0.61-0.75-1-1.38-0.93l-1.83,0.2c-0.63,0.07-1.11,0.58-1.15,1.21l-0.09,1.5c-0.47,0.2-0.92,0.45-1.34,0.75l-1.28-0.73
		c-0.23-0.13-0.5-0.19-0.77-0.16c-0.34,0.04-0.65,0.21-0.87,0.48l-1.16,1.43c-0.39,0.49-0.38,1.19,0.04,1.67l1,1.12
		c-0.19,0.48-0.33,0.97-0.42,1.48l-1.41,0.4c-0.61,0.17-1,0.75-0.93,1.38l0.2,1.82c0.07,0.63,0.58,1.11,1.21,1.15l1.5,0.09
		c0.2,0.47,0.45,0.92,0.75,1.34l-0.73,1.28c-0.31,0.55-0.18,1.24,0.32,1.64l1.43,1.15c0.27,0.22,0.6,0.32,0.95,0.28
		c0.27-0.03,0.52-0.14,0.72-0.32l1.12-1c0.46,0.18,0.94,0.32,1.43,0.42l0.4,1.43c0.17,0.61,0.75,1,1.38,0.93l1.83-0.2
		c0.63-0.07,1.11-0.58,1.15-1.21l0.09-1.48c0.47-0.2,0.92-0.45,1.35-0.74l1.29,0.73c0.23,0.13,0.5,0.19,0.77,0.16
		c0.34-0.04,0.65-0.21,0.87-0.48l1.15-1.43c0.39-0.49,0.38-1.19-0.04-1.67l-0.99-1.11c0.19-0.48,0.34-0.97,0.43-1.48l1.43-0.4
		c0.61-0.17,1-0.75,0.93-1.38l-0.2-1.82C393.9,239.2,393.39,238.72,392.76,238.68z M384.09,245.61c-2.07,0.22-3.92-1.27-4.15-3.34
		c-0.22-2.07,1.27-3.92,3.34-4.15c2.07-0.22,3.92,1.27,4.15,3.34C387.65,243.53,386.16,245.38,384.09,245.61z"/>
	<path class="st1" d="M391.43,224.31l-0.86-0.05c-0.12-0.27-0.26-0.54-0.43-0.78l0.42-0.75c0.18-0.32,0.1-0.72-0.18-0.95l-0.82-0.66
		c-0.14-0.11-0.31-0.18-0.49-0.18c-0.19,0-0.36,0.07-0.49,0.19l-0.65,0.57c-0.29-0.11-0.58-0.2-0.89-0.26l-0.23-0.82
		c-0.1-0.35-0.44-0.58-0.8-0.54l-1.06,0.11c-0.37,0.04-0.65,0.33-0.67,0.7l-0.05,0.87c-0.27,0.12-0.53,0.26-0.78,0.43l-0.75-0.42
		c-0.14-0.08-0.29-0.11-0.45-0.09c-0.2,0.02-0.38,0.12-0.5,0.28l-0.67,0.83c-0.23,0.28-0.22,0.69,0.02,0.97l0.58,0.65
		c-0.11,0.28-0.19,0.57-0.25,0.86l-0.82,0.23c-0.35,0.1-0.58,0.44-0.54,0.8l0.11,1.06c0.04,0.36,0.33,0.65,0.7,0.67l0.87,0.05
		c0.12,0.27,0.26,0.53,0.43,0.78l-0.42,0.74c-0.18,0.32-0.1,0.72,0.18,0.95l0.83,0.67c0.16,0.13,0.35,0.18,0.55,0.16
		c0.16-0.02,0.3-0.08,0.42-0.18l0.65-0.58c0.27,0.11,0.55,0.19,0.83,0.24l0.23,0.83c0.1,0.35,0.44,0.58,0.8,0.54l1.06-0.11
		c0.37-0.04,0.65-0.33,0.67-0.7l0.05-0.86c0.27-0.12,0.54-0.26,0.78-0.43l0.75,0.42c0.14,0.08,0.29,0.11,0.45,0.09
		c0.2-0.02,0.38-0.12,0.5-0.28l0.67-0.83c0.23-0.28,0.22-0.69-0.02-0.97l-0.57-0.65c0.11-0.28,0.2-0.57,0.25-0.86l0.83-0.23
		c0.35-0.1,0.58-0.44,0.54-0.8l-0.11-1.06C392.09,224.62,391.79,224.33,391.43,224.31z M386.39,228.33
		c-1.2,0.13-2.28-0.74-2.41-1.94c-0.13-1.2,0.74-2.28,1.94-2.41s2.28,0.74,2.41,1.94C388.46,227.13,387.59,228.2,386.39,228.33z"/>
	<g>
		<path class="st4" d="M85.05,327.44l-39.67,0.04c-1.2,0-2.17-0.97-2.17-2.17l-0.03-24.05c0-1.2,0.97-2.17,2.17-2.17l39.67-0.04
			c1.2,0,2.17,0.97,2.17,2.17l0.03,24.05C87.21,326.46,86.24,327.44,85.05,327.44z"/>
		<g>
			<polyline class="st4" points="84.33,300.26 85.13,301.4 65.45,315.05 45.25,301.45 46.03,300.29 			"/>
		</g>
		<path class="st1" d="M65.45,315.05l19.16-13.37v-15.33H46.28v15.78C53.33,307.12,65.45,315.05,65.45,315.05z"/>
		<rect x="50.39" y="289.91" class="st6" width="30.39" height="1.75"/>
		<rect x="50.39" y="295.05" class="st6" width="30.39" height="1.75"/>
		<rect x="50.39" y="300.19" class="st6" width="30.39" height="1.75"/>
	</g>
	<g>
		<g>
			<rect x="163.57" y="170.2" class="st4" width="7.42" height="18.97"/>
			<rect x="152.88" y="176.13" class="st7" width="7.42" height="13.05"/>
			<rect x="173.96" y="158.36" class="st5" width="7.42" height="30.82"/>
			<rect x="184.64" y="149.48" class="st1" width="7.42" height="39.7"/>
		</g>
		<rect x="152.88" y="189.18" class="st4" width="39.93" height="1.11"/>
	</g>
	<g>
		<rect x="179.1" y="304.36" class="st1" width="50.03" height="35.31"/>
		<g>
			<g>
				<path class="st8" d="M191.17,308.89c0,1.23-1,2.23-2.23,2.23c-1.23,0-2.23-1-2.23-2.23c0-1.23,1-2.23,2.23-2.23
					C190.17,306.66,191.17,307.66,191.17,308.89z"/>
				<path class="st4" d="M188.94,309.07L188.94,309.07c-0.8,0-1.45-0.65-1.45-1.45v-5.18c0-0.8,0.65-1.45,1.45-1.45h0
					c0.8,0,1.45,0.65,1.45,1.45v5.18C190.38,308.42,189.74,309.07,188.94,309.07z"/>
			</g>
			<g>
				<path class="st8" d="M201.28,308.89c0,1.23-1,2.23-2.23,2.23c-1.23,0-2.23-1-2.23-2.23c0-1.23,1-2.23,2.23-2.23
					C200.29,306.66,201.28,307.66,201.28,308.89z"/>
				<path class="st4" d="M199.06,309.07L199.06,309.07c-0.8,0-1.45-0.65-1.45-1.45v-5.18c0-0.8,0.65-1.45,1.45-1.45h0
					c0.8,0,1.45,0.65,1.45,1.45v5.18C200.5,308.42,199.85,309.07,199.06,309.07z"/>
			</g>
			<g>
				<path class="st8" d="M211.4,308.89c0,1.23-1,2.23-2.23,2.23c-1.23,0-2.23-1-2.23-2.23c0-1.23,1-2.23,2.23-2.23
					C210.4,306.66,211.4,307.66,211.4,308.89z"/>
				<path class="st4" d="M209.17,309.07L209.17,309.07c-0.8,0-1.45-0.65-1.45-1.45v-5.18c0-0.8,0.65-1.45,1.45-1.45l0,0
					c0.8,0,1.45,0.65,1.45,1.45v5.18C210.62,308.42,209.97,309.07,209.17,309.07z"/>
			</g>
			<g>
				<path class="st8" d="M221.52,308.89c0,1.23-1,2.23-2.23,2.23c-1.23,0-2.23-1-2.23-2.23c0-1.23,1-2.23,2.23-2.23
					C220.52,306.66,221.52,307.66,221.52,308.89z"/>
				<path class="st4" d="M219.29,309.07L219.29,309.07c-0.8,0-1.45-0.65-1.45-1.45v-5.18c0-0.8,0.65-1.45,1.45-1.45l0,0
					c0.8,0,1.45,0.65,1.45,1.45v5.18C220.73,308.42,220.09,309.07,219.29,309.07z"/>
			</g>
		</g>
		<g>
			<rect x="182.37" y="316.08" class="st8" width="4.34" height="4.34"/>
			<rect x="190.2" y="316.08" class="st8" width="4.34" height="4.34"/>
			<rect x="198.03" y="316.08" class="st8" width="4.34" height="4.34"/>
			<rect x="205.86" y="316.08" class="st5" width="4.34" height="4.34"/>
			<rect x="213.69" y="316.08" class="st8" width="4.34" height="4.34"/>
			<rect x="221.52" y="316.08" class="st8" width="4.34" height="4.34"/>
		</g>
		<g>
			<rect x="182.37" y="322.46" class="st8" width="4.34" height="4.34"/>
			<rect x="190.2" y="322.46" class="st8" width="4.34" height="4.34"/>
			<rect x="198.03" y="322.46" class="st7" width="4.34" height="4.34"/>
			<rect x="205.86" y="322.46" class="st7" width="4.34" height="4.34"/>
			<rect x="213.69" y="322.46" class="st8" width="4.34" height="4.34"/>
			<rect x="221.52" y="322.46" class="st8" width="4.34" height="4.34"/>
		</g>
		<g>
			<rect x="182.37" y="328.85" class="st8" width="4.34" height="4.34"/>
			<rect x="190.2" y="328.85" class="st8" width="4.34" height="4.34"/>
			<rect x="198.03" y="328.85" class="st8" width="4.34" height="4.34"/>
			<rect x="205.86" y="328.85" class="st8" width="4.34" height="4.34"/>
			<rect x="213.69" y="328.85" class="st8" width="4.34" height="4.34"/>
			<rect x="221.52" y="328.85" class="st8" width="4.34" height="4.34"/>
		</g>
		<path class="st4" d="M229.13,304.36l10.4,28.2h-10.43C229.09,332.56,229.13,304.02,229.13,304.36z"/>
	</g>
	<g>
		<path class="st1" d="M390.67,171.92l-22.16,3.88c-2.53,0.44-4.23,2.85-3.79,5.39l1.85,10.74c0.44,2.54,2.85,4.24,5.39,3.81l0,0
			l0.88,5.11l4.23-5.99l17.08-3.02c2.53-0.45,4.22-2.85,3.79-5.38l-1.85-10.73C395.63,173.18,393.21,171.47,390.67,171.92z"/>
		<g>
			
				<rect x="369.23" y="178.05" transform="matrix(0.9855 -0.1696 0.1696 0.9855 -24.7825 67.2089)" class="st4" width="23.62" height="1.26"/>
			
				<rect x="370.05" y="182.76" transform="matrix(0.9855 -0.1696 0.1696 0.9855 -25.5726 67.4138)" class="st4" width="23.62" height="1.3"/>
			
				<rect x="370.88" y="187.89" transform="matrix(0.9855 -0.1696 0.1696 0.9855 -26.4592 67.2126)" class="st4" width="18.66" height="1.2"/>
		</g>
	</g>
	<g>
		<path class="st1" d="M348.5,296.94l22.44-1.65c2.56-0.19,4.49-2.41,4.31-4.98l-0.76-10.87c-0.18-2.57-2.41-4.51-4.98-4.33l0,0
			l-0.36-5.17l-4.81,5.53l-17.29,1.29c-2.56,0.19-4.49,2.42-4.31,4.98l0.76,10.86C343.68,295.19,345.92,297.13,348.5,296.94z"/>
		<g>
			
				<rect x="346.94" y="290.55" transform="matrix(-0.9975 0.0701 -0.0701 -0.9975 737.0307 556.4918)" class="st4" width="23.62" height="1.26"/>
			
				<rect x="346.6" y="285.74" transform="matrix(-0.9975 0.0701 -0.0701 -0.9975 736.0227 546.9498)" class="st4" width="23.62" height="1.3"/>
			
				<rect x="351.23" y="280.9" transform="matrix(-0.9975 0.0701 -0.0701 -0.9975 739.9586 537.0286)" class="st4" width="18.66" height="1.2"/>
		</g>
	</g>
	<g>
		<path class="st1" d="M94.02,171.99l22.16,3.88c2.53,0.44,4.23,2.85,3.79,5.39L118.13,192c-0.44,2.54-2.85,4.24-5.39,3.81l0,0
			l-0.88,5.11l-4.23-5.99l-17.08-3.02c-2.53-0.45-4.22-2.85-3.79-5.38l1.85-10.73C89.06,173.25,91.48,171.54,94.02,171.99z"/>
		<g>
			
				<rect x="91.34" y="180.92" transform="matrix(-0.9855 -0.1696 0.1696 -0.9855 174.02 377.9519)" class="st4" width="23.62" height="1.26"/>
			
				<rect x="90.53" y="185.63" transform="matrix(-0.9855 -0.1696 0.1696 -0.9855 171.602 387.2069)" class="st4" width="23.62" height="1.3"/>
		</g>
	</g>
	<g>
		<path class="st7" d="M275.8,185.49l-4.37,11.38l0,0.55l0,0v0.01l0,2.29c0,0.01,0,0.02,0,0.03l0.08,45.71l8.75,0l-0.08-48.04l0,0
			v-0.55L275.8,185.49z"/>
		<g>
			<path class="st5" d="M271.51,245.46l0,2.71c0,2.13,1.73,3.86,3.86,3.86l1.03,0c2.13,0,3.86-1.73,3.86-3.86l0-2.71L271.51,245.46z
				"/>
			<path class="st1" d="M275.8,185.49l-4.37,11.38v0.06c2.32-0.08,6.04-0.09,8.74-0.09L275.8,185.49z"/>
			<path class="st9" d="M273.98,190.24c0.5,0.51,1.2,0.82,1.97,0.82c0.67,0,1.27-0.24,1.75-0.63l-1.9-4.93L273.98,190.24z"/>
		</g>
	</g>
	<g>
		<path class="st1" d="M132.17,321.17L132.17,321.17c-1.43-0.46-2.21-1.98-1.76-3.41l7.35-23.01l5.16,1.65l-7.35,23.01
			C135.12,320.84,133.59,321.63,132.17,321.17z"/>
		<path class="st1" d="M142.67,297.65l-5.42-1.73c-0.75-0.24-1.16-1.04-0.92-1.79l0,0c0.24-0.75,1.04-1.16,1.79-0.92l5.42,1.73
			c0.75,0.24,1.16,1.04,0.92,1.79l0,0C144.22,297.47,143.42,297.89,142.67,297.65z"/>
		<path class="st4" d="M141.14,294.17l0.95,0.3l1.45,0.46c0.75,0.24,1.16,1.04,0.92,1.79l0,0c-0.24,0.75-1.04,1.16-1.79,0.92
			l-5.42-1.73c-0.75-0.24-1.16-1.04-0.92-1.79l0,0c0.24-0.75,1.04-1.16,1.79-0.92l1.46,0.47"/>
		<path class="st4" d="M151.92,259.19c-9.64-3.08-19.96,2.24-23.04,11.88c-3.08,9.64,2.24,19.96,11.88,23.04
			c9.64,3.08,19.96-2.24,23.04-11.88C166.88,272.58,161.56,262.27,151.92,259.19z M160.17,281.07c-2.44,7.64-10.61,11.85-18.25,9.41
			c-7.64-2.44-11.85-10.61-9.41-18.25c2.44-7.64,10.61-11.85,18.25-9.41C158.4,265.26,162.61,273.43,160.17,281.07z"/>
	</g>
	<g>
		<polygon class="st7" points="433.89,325.39 408.26,321.54 413.2,288.69 446.05,293.62 442.24,319.01 		"/>
		<polygon class="st4" points="433.89,325.39 442.24,319.01 435.15,316.97 		"/>
	</g>
	<g>
		<polygon class="st1" points="427.55,343.96 404.53,355.87 389.26,326.36 418.77,311.09 430.57,333.89 		"/>
		<polygon class="st4" points="427.55,343.96 430.57,333.89 423.63,336.4 		"/>
	</g>
	<g>
		<g>
			
				<ellipse transform="matrix(0.2277 -0.9737 0.9737 0.2277 -75.5263 378.0217)" class="st4" cx="200.56" cy="236.63" rx="20.55" ry="20.55"/>
			<circle class="st1" cx="200.56" cy="236.63" r="18.39"/>
			<g>
				<rect x="200.06" y="219.73" class="st4" width="0.78" height="2.68"/>
				<rect x="200.06" y="251.2" class="st4" width="0.78" height="2.68"/>
			</g>
			<g>
				
					<rect x="215.8" y="235.46" transform="matrix(-1.836970e-16 1 -1 -1.836970e-16 452.9935 20.6147)" class="st4" width="0.78" height="2.68"/>
				
					<rect x="184.32" y="235.46" transform="matrix(-1.836970e-16 1 -1 -1.836970e-16 421.5184 52.0898)" class="st4" width="0.78" height="2.68"/>
			</g>
			<g>
				
					<rect x="209.74" y="247.87" transform="matrix(-0.7885 0.6151 -0.6151 -0.7885 529.0983 316.4636)" class="st4" width="0.78" height="2.68"/>
				
					<rect x="190.38" y="223.06" transform="matrix(-0.7885 0.6151 -0.6151 -0.7885 479.2094 283.9873)" class="st4" width="0.78" height="2.68"/>
			</g>
			<g>
				
					<rect x="205.19" y="250.34" transform="matrix(-0.9454 0.3259 -0.3259 -0.9454 481.9505 422.6404)" class="st4" width="0.78" height="2.68"/>
				
					<rect x="194.93" y="220.59" transform="matrix(-0.9454 0.3258 -0.3258 -0.9454 452.3012 368.0933)" class="st4" width="0.78" height="2.68"/>
			</g>
			<g>
				
					<rect x="212.87" y="244.61" transform="matrix(-0.581 0.8139 -0.8139 -0.581 537.343 215.2661)" class="st4" width="0.78" height="2.68"/>
				
					<rect x="187.25" y="226.32" transform="matrix(-0.581 0.8139 -0.8139 -0.581 481.957 207.2084)" class="st4" width="0.78" height="2.68"/>
			</g>
			<g>
				
					<rect x="214.93" y="240.63" transform="matrix(-0.328 0.9447 -0.9447 -0.328 514.5219 117.9204)" class="st4" width="0.78" height="2.68"/>
				
					<rect x="185.19" y="230.3" transform="matrix(-0.328 0.9447 -0.9447 -0.328 465.2872 132.3118)" class="st4" width="0.78" height="2.68"/>
			</g>
			<g>
				
					<rect x="190.38" y="247.87" transform="matrix(0.7885 0.6151 -0.6151 0.7885 193.6348 -64.6228)" class="st4" width="0.78" height="2.68"/>
				
					<rect x="209.74" y="223.06" transform="matrix(0.7885 0.6151 -0.6151 0.7885 182.4659 -81.7798)" class="st4" width="0.78" height="2.68"/>
			</g>
			<g>
				
					<rect x="194.93" y="250.34" transform="matrix(0.9454 0.3258 -0.3258 0.9454 92.6709 -49.9097)" class="st4" width="0.78" height="2.68"/>
				
					<rect x="205.19" y="220.59" transform="matrix(0.9454 0.3258 -0.3258 0.9454 83.5342 -54.8756)" class="st4" width="0.78" height="2.68"/>
			</g>
			<g>
				
					<rect x="187.25" y="244.61" transform="matrix(0.581 0.8139 -0.8139 0.581 278.8006 -49.6707)" class="st4" width="0.78" height="2.68"/>
				
					<rect x="212.87" y="226.32" transform="matrix(0.5809 0.814 -0.814 0.5809 274.6843 -78.1774)" class="st4" width="0.78" height="2.68"/>
			</g>
			<g>
				
					<rect x="185.19" y="240.63" transform="matrix(0.328 0.9447 -0.9447 0.328 353.2983 -12.7133)" class="st4" width="0.78" height="2.68"/>
				
					<rect x="214.93" y="230.3" transform="matrix(0.328 0.9447 -0.9447 0.328 363.5162 -47.7462)" class="st4" width="0.78" height="2.68"/>
			</g>
			<g>
				<polygon class="st4" points="192.35,243.65 191.95,243.17 199.92,236.48 199.92,228.54 200.54,228.54 200.54,236.77 				"/>
			</g>
		</g>
		<g>
			<rect x="199.82" y="209.16" class="st4" width="1.26" height="4.34"/>
			<rect x="199.82" y="260.11" class="st4" width="1.26" height="4.34"/>
		</g>
		<g>
			
				<rect x="215.49" y="254.72" transform="matrix(-0.7885 0.6151 -0.6151 -0.7885 544.5409 326.505)" class="st4" width="1.27" height="4.34"/>
			
				<rect x="184.15" y="214.55" transform="matrix(-0.7884 0.6151 -0.6151 -0.7884 463.774 273.9111)" class="st4" width="1.27" height="4.34"/>
		</g>
		<g>
			
				<rect x="208.12" y="258.72" transform="matrix(-0.9454 0.3258 -0.3258 -0.9454 491.124 439.5268)" class="st4" width="1.27" height="4.34"/>
			
				<rect x="191.52" y="210.55" transform="matrix(-0.9454 0.3258 -0.3258 -0.9454 443.1246 351.2121)" class="st4" width="1.27" height="4.34"/>
		</g>
		<g>
			
				<rect x="220.56" y="249.44" transform="matrix(-0.5809 0.814 -0.814 -0.5809 554.4818 217.7305)" class="st4" width="1.27" height="4.34"/>
			
				<rect x="179.08" y="219.83" transform="matrix(-0.5809 0.814 -0.814 -0.5809 464.8139 204.6909)" class="st4" width="1.27" height="4.34"/>
		</g>
		<g>
			
				<rect x="184.15" y="254.72" transform="matrix(0.7885 0.6151 -0.6151 0.7885 197.1033 -59.3123)" class="st4" width="1.27" height="4.34"/>
			
				<rect x="215.49" y="214.55" transform="matrix(0.7884 0.6151 -0.6151 0.7884 179.0394 -87.0935)" class="st4" width="1.27" height="4.34"/>
		</g>
		<g>
			
				<rect x="191.52" y="258.72" transform="matrix(0.9454 0.3258 -0.3258 0.9454 95.4957 -48.3719)" class="st4" width="1.27" height="4.34"/>
			
				<rect x="208.12" y="210.55" transform="matrix(0.9454 0.3258 -0.3258 0.9454 80.7039 -56.4113)" class="st4" width="1.27" height="4.34"/>
		</g>
		<g>
			
				<rect x="179.08" y="249.44" transform="matrix(0.5809 0.814 -0.814 0.5809 280.1119 -40.8366)" class="st4" width="1.27" height="4.34"/>
			
				<rect x="220.56" y="219.83" transform="matrix(0.5809 0.814 -0.814 0.5809 273.3959 -87.0038)" class="st4" width="1.27" height="4.34"/>
		</g>
		<g>
			
				<rect x="175.75" y="242.99" transform="matrix(0.328 0.9447 -0.9447 0.328 350.136 -1.87)" class="st4" width="1.27" height="4.34"/>
			
				<rect x="223.89" y="226.28" transform="matrix(0.328 0.9447 -0.9447 0.328 366.6979 -58.5787)" class="st4" width="1.27" height="4.34"/>
		</g>
	</g>
	<g>
		<circle class="st1" cx="239.92" cy="169.92" r="28.95"/>
		<circle class="st6" cx="239.92" cy="169.92" r="22.3"/>
		<circle class="st7" cx="239.92" cy="169.92" r="13.69"/>
		<path class="st5" d="M245.73,169.92c0,3.21-2.6,5.81-5.81,5.81c-3.21,0-5.81-2.6-5.81-5.81c0-3.21,2.6-5.81,5.81-5.81
			C243.13,164.11,245.73,166.71,245.73,169.92z"/>
		<path class="st4" d="M280.32,166.73c0.08-0.13,0.08-0.3,0-0.44c-0.08-0.14-0.22-0.22-0.38-0.22h-8.02c-0.12,0-0.24,0.05-0.32,0.15
			l-2.93,3.27h-28.76c-0.24,0-0.44,0.2-0.44,0.44c0,0.24,0.19,0.44,0.44,0.44h28.95c0,0,0,0,0,0c0,0,0,0,0,0h0.05l2.1,3.66
			c0.07,0.12,0.2,0.19,0.33,0.19h8.09c0.44,0,0.72-0.48,0.5-0.86l-1.61-2.81c-0.06-0.11-0.16-0.17-0.27-0.22
			c0.09-0.03,0.17-0.09,0.22-0.17L280.32,166.73z"/>
	</g>
	<g>
		<path class="st7" d="M65.25,192.32c0.04-6.66-5.5-12.05-12.24-11.73c-5.96,0.28-10.84,5.19-11.09,11.15
			c-0.14,3.25,1.06,6.22,3.09,8.42c1.67,1.81,3.08,3.84,4.02,6.12l0.62,1.5l-0.01,2.21l3.05,0.02l1.57,0.01l3.05,0.02l0.01-2.21
			l0.42-0.99c1.07-2.49,2.63-4.72,4.46-6.72C64.07,198.04,65.23,195.32,65.25,192.32z"/>
		
			<rect x="49.34" y="207.86" transform="matrix(1 6.331987e-03 -6.331987e-03 1 1.3355 -0.3343)" class="st4" width="8.23" height="5.75"/>
		<g>
			<polygon class="st4" points="54.87,210.48 52.53,210.46 48.42,190.69 49.34,190.5 53.29,209.53 54.1,209.54 57.83,190.17 
				58.75,190.35 			"/>
		</g>
		<path class="st4" d="M55.27,213.75c-0.01,1.01-0.83,1.82-1.84,1.82c-1.01-0.01-1.82-0.83-1.82-1.84c0.01-1.01,0.83-1.82,1.84-1.82
			C54.46,211.92,55.27,212.74,55.27,213.75z"/>
		<g>
			<g>
				<g>
					
						<rect x="49" y="171.11" transform="matrix(6.255463e-03 -1 1 6.255463e-03 -118.0052 224.1491)" class="st4" width="9.56" height="0.67"/>
				</g>
			</g>
			<g>
				<g>
					
						<rect x="71.98" y="185.45" transform="matrix(6.341173e-03 -1 1 6.341173e-03 -118.3632 261.3304)" class="st4" width="0.67" height="9.56"/>
				</g>
				<g>
					
						<rect x="34.66" y="185.21" transform="matrix(6.330643e-03 -1 1 6.330643e-03 -155.2055 223.7829)" class="st4" width="0.67" height="9.56"/>
				</g>
			</g>
			<g>
				<g>
					
						<rect x="39.36" y="172.95" transform="matrix(0.6631 -0.7485 0.7485 0.6631 -119.6656 89.5869)" class="st4" width="0.67" height="9.56"/>
				</g>
			</g>
			<g>
				<g>
					
						<rect x="61.25" y="175.8" transform="matrix(0.6633 -0.7484 0.7484 0.6633 -109.584 108.7237)" class="st4" width="9.56" height="0.67"/>
				</g>
			</g>
		</g>
	</g>
	<g>
		<polygon class="st1" points="311.52,343.33 319.55,289.55 274.94,282.89 266.9,336.71 		"/>
		
			<rect x="276.81" y="293.6" transform="matrix(0.989 0.1476 -0.1476 0.989 46.6783 -40.4523)" class="st6" width="38.22" height="1.41"/>
		
			<rect x="276.21" y="297.59" transform="matrix(0.989 0.1476 -0.1476 0.989 47.2607 -40.3215)" class="st6" width="38.22" height="1.41"/>
		
			<rect x="306.39" y="305.3" transform="matrix(0.9892 0.1468 -0.1468 0.9892 48.2865 -42.1696)" class="st4" width="6.74" height="1.33"/>
		
			<rect x="285.84" y="302.25" transform="matrix(0.9892 0.1468 -0.1468 0.9892 47.6167 -39.1864)" class="st4" width="6.74" height="1.33"/>
		
			<rect x="296.12" y="303.77" transform="matrix(0.9892 0.1468 -0.1468 0.9892 47.9461 -40.674)" class="st4" width="6.74" height="1.33"/>
		
			<rect x="275.57" y="300.72" transform="matrix(0.9892 0.1468 -0.1468 0.9892 47.2757 -37.6906)" class="st4" width="6.74" height="1.33"/>
		
			<rect x="274.58" y="307.39" transform="matrix(0.9892 0.1468 -0.1468 0.9892 48.2453 -37.4735)" class="st0" width="6.74" height="1.33"/>
		
			<rect x="274.11" y="310.56" transform="matrix(0.9892 0.1468 -0.1468 0.9892 48.711 -37.3733)" class="st0" width="6.74" height="1.33"/>
		
			<rect x="273.64" y="313.74" transform="matrix(0.9892 0.1468 -0.1468 0.9892 49.1708 -37.2693)" class="st7" width="6.74" height="1.33"/>
		
			<rect x="273.17" y="316.91" transform="matrix(0.9892 0.1468 -0.1468 0.9892 49.6262 -37.1625)" class="st0" width="6.74" height="1.33"/>
		
			<rect x="272.7" y="320.08" transform="matrix(0.9892 0.1468 -0.1468 0.9892 50.0866 -37.059)" class="st0" width="6.74" height="1.33"/>
		
			<rect x="272.23" y="323.25" transform="matrix(0.9892 0.1468 -0.1468 0.9892 50.5426 -36.9527)" class="st0" width="6.74" height="1.33"/>
		
			<rect x="271.76" y="326.42" transform="matrix(0.9892 0.1468 -0.1468 0.9892 51.0024 -36.8488)" class="st7" width="6.74" height="1.33"/>
		
			<rect x="271.29" y="329.59" transform="matrix(0.9892 0.1468 -0.1468 0.9892 51.4736 -36.7518)" class="st0" width="6.74" height="1.33"/>
		
			<rect x="284.85" y="308.92" transform="matrix(0.9892 0.1468 -0.1468 0.9892 48.5805 -38.9652)" class="st7" width="6.74" height="1.33"/>
		
			<rect x="284.38" y="312.09" transform="matrix(0.9892 0.1468 -0.1468 0.9892 49.0403 -38.8612)" class="st7" width="6.74" height="1.33"/>
		
			<rect x="283.91" y="315.26" transform="matrix(0.9892 0.1468 -0.1468 0.9892 49.5008 -38.7577)" class="st0" width="6.74" height="1.33"/>
		
			<rect x="283.44" y="318.43" transform="matrix(0.9892 0.1468 -0.1468 0.9892 49.9613 -38.6542)" class="st5" width="6.74" height="1.33"/>
		
			<rect x="282.97" y="321.6" transform="matrix(0.9892 0.1468 -0.1468 0.9892 50.4226 -38.5512)" class="st0" width="6.74" height="1.33"/>
		
			<rect x="282.5" y="324.77" transform="matrix(0.9892 0.1468 -0.1468 0.9892 50.8832 -38.4477)" class="st0" width="6.74" height="1.33"/>
		
			<rect x="282.03" y="327.95" transform="matrix(0.9892 0.1468 -0.1468 0.9892 51.3429 -38.3437)" class="st0" width="6.74" height="1.33"/>
		
			<rect x="281.56" y="331.12" transform="matrix(0.9892 0.1468 -0.1468 0.9892 51.8035 -38.2403)" class="st0" width="6.74" height="1.33"/>
		
			<rect x="295.13" y="310.44" transform="matrix(0.9892 0.1468 -0.1468 0.9892 48.9209 -40.4605)" class="st0" width="6.74" height="1.33"/>
		
			<rect x="294.66" y="313.61" transform="matrix(0.9892 0.1468 -0.1468 0.9892 49.3807 -40.3565)" class="st0" width="6.74" height="1.33"/>
		
			<rect x="294.18" y="316.79" transform="matrix(0.9892 0.1468 -0.1468 0.9892 49.8413 -40.253)" class="st5" width="6.74" height="1.33"/>
		
			<rect x="293.71" y="319.96" transform="matrix(0.9892 0.1468 -0.1468 0.9892 50.2912 -40.1423)" class="st0" width="6.74" height="1.33"/>
		
			<rect x="293.24" y="323.13" transform="matrix(0.9892 0.1468 -0.1468 0.9892 50.7525 -40.0393)" class="st0" width="6.74" height="1.33"/>
		
			<rect x="292.77" y="326.3" transform="matrix(0.9892 0.1468 -0.1468 0.9892 51.213 -39.9358)" class="st0" width="6.74" height="1.33"/>
		
			<rect x="292.3" y="329.47" transform="matrix(0.9892 0.1468 -0.1468 0.9892 51.6781 -39.8354)" class="st0" width="6.74" height="1.33"/>
		
			<rect x="291.83" y="332.64" transform="matrix(0.9892 0.1468 -0.1468 0.9892 52.145 -39.7361)" class="st0" width="6.74" height="1.33"/>
		
			<rect x="305.4" y="311.97" transform="matrix(0.9892 0.1468 -0.1468 0.9892 49.251 -41.9487)" class="st0" width="6.74" height="1.33"/>
		
			<rect x="304.93" y="315.14" transform="matrix(0.9892 0.1468 -0.1468 0.9892 49.7115 -41.8451)" class="st0" width="6.74" height="1.33"/>
		
			<rect x="304.46" y="318.31" transform="matrix(0.9892 0.1468 -0.1468 0.9892 50.1711 -41.741)" class="st0" width="6.74" height="1.33"/>
		
			<rect x="303.99" y="321.48" transform="matrix(0.9892 0.1468 -0.1468 0.9892 50.6317 -41.6376)" class="st0" width="6.74" height="1.33"/>
		
			<rect x="303.52" y="324.65" transform="matrix(0.9892 0.1468 -0.1468 0.9892 51.0931 -41.5346)" class="st5" width="6.74" height="1.33"/>
		
			<rect x="303.04" y="327.82" transform="matrix(0.9892 0.1468 -0.1468 0.9892 51.5528 -41.4306)" class="st0" width="6.74" height="1.33"/>
		
			<rect x="302.57" y="330.99" transform="matrix(0.9892 0.1468 -0.1468 0.9892 52.0133 -41.3271)" class="st0" width="6.74" height="1.33"/>
		
			<rect x="302.1" y="334.17" transform="matrix(0.9892 0.1468 -0.1468 0.9892 52.4746 -41.2242)" class="st7" width="6.74" height="1.33"/>
		
			<rect x="274.97" y="305.37" transform="matrix(0.9892 0.1468 -0.1468 0.9892 48.0418 -38.7513)" class="st0" width="23.05" height="1.33"/>
	</g>
	<path class="st1" d="M465.91,177.59c-0.44-2.86-2.49-5.03-4.97-5.03c-0.41,0-0.81,0.07-1.19,0.18c-0.88-5.29-4.72-9.27-9.32-9.27
		c-3.72,0-6.93,2.6-8.5,6.39c-0.55-0.15-1.13-0.23-1.72-0.23c-2.54,0-4.8,1.46-6.24,3.73c-0.73-0.5-1.58-0.79-2.48-0.79
		c-2.47,0-4.53,2.17-4.97,5.03H465.91z"/>
	<path class="st1" d="M219.91,380.59c-0.44-2.86-2.49-5.03-4.97-5.03c-0.41,0-0.81,0.07-1.19,0.18c-0.88-5.29-4.72-9.27-9.32-9.27
		c-3.72,0-6.93,2.6-8.5,6.39c-0.55-0.15-1.13-0.23-1.72-0.23c-2.54,0-4.8,1.46-6.24,3.73c-0.73-0.5-1.58-0.79-2.48-0.79
		c-2.47,0-4.53,2.17-4.97,5.03H219.91z"/>
	<path class="st1" d="M124.91,138.59c-0.44-2.86-2.49-5.03-4.97-5.03c-0.41,0-0.81,0.07-1.19,0.18c-0.88-5.29-4.72-9.27-9.32-9.27
		c-3.72,0-6.93,2.6-8.5,6.39c-0.55-0.15-1.13-0.23-1.72-0.23c-2.54,0-4.8,1.46-6.24,3.73c-0.73-0.5-1.58-0.79-2.48-0.79
		c-2.47,0-4.53,2.17-4.97,5.03H124.91z"/>
	<path class="st1" d="M381.88,315.21c-0.44-2.86-2.49-5.03-4.97-5.03c-0.41,0-0.81,0.07-1.19,0.18c-0.88-5.29-4.72-9.27-9.32-9.27
		c-3.72,0-6.93,2.6-8.5,6.39c-0.55-0.15-1.13-0.23-1.72-0.23c-2.54,0-4.8,1.46-6.24,3.73c-0.73-0.5-1.58-0.79-2.48-0.79
		c-2.47,0-4.53,2.17-4.97,5.03H381.88z"/>
	<g>
		<rect x="73.79" y="322.7" class="st1" width="43.21" height="28.22"/>
		<polygon class="st8" points="73.79,322.7 95.4,336.81 117,322.7 		"/>
	</g>
	<g>
		<g>
			<path class="st1" d="M124,163.26c-1.81,0-3.28-1.47-3.28-3.28c0-1.81,1.47-3.28,3.28-3.28c1.81,0,3.28,1.47,3.28,3.28
				C127.28,161.79,125.81,163.26,124,163.26z M124,158c-1.09,0-1.98,0.89-1.98,1.98c0,1.09,0.89,1.98,1.98,1.98
				c1.09,0,1.98-0.89,1.98-1.98C125.98,158.89,125.09,158,124,158z"/>
		</g>
		<g>
			<path class="st1" d="M64,155.26c-1.81,0-3.28-1.47-3.28-3.28c0-1.81,1.47-3.28,3.28-3.28c1.81,0,3.28,1.47,3.28,3.28
				C67.28,153.79,65.81,155.26,64,155.26z M64,150c-1.09,0-1.98,0.89-1.98,1.98c0,1.09,0.89,1.98,1.98,1.98
				c1.09,0,1.98-0.89,1.98-1.98C65.98,150.89,65.09,150,64,150z"/>
		</g>
		<g>
			<path class="st1" d="M249.98,368.28c-1.81,0-3.28-1.47-3.28-3.28c0-1.81,1.47-3.28,3.28-3.28s3.28,1.47,3.28,3.28
				C253.26,366.81,251.79,368.28,249.98,368.28z M249.98,363.02c-1.09,0-1.98,0.89-1.98,1.98c0,1.09,0.89,1.98,1.98,1.98
				c1.09,0,1.98-0.89,1.98-1.98C251.96,363.91,251.07,363.02,249.98,363.02z"/>
		</g>
		<g>
			<path class="st1" d="M425,191.3c-1.81,0-3.28-1.47-3.28-3.28c0-1.81,1.47-3.28,3.28-3.28c1.81,0,3.28,1.47,3.28,3.28
				C428.28,189.83,426.81,191.3,425,191.3z M425,186.04c-1.09,0-1.98,0.89-1.98,1.98c0,1.09,0.89,1.98,1.98,1.98
				c1.09,0,1.98-0.89,1.98-1.98C426.98,186.93,426.09,186.04,425,186.04z"/>
		</g>
		<g>
			<path class="st1" d="M151.98,336.28c-1.81,0-3.28-1.47-3.28-3.28c0-1.81,1.47-3.28,3.28-3.28c1.81,0,3.28,1.47,3.28,3.28
				C155.26,334.81,153.79,336.28,151.98,336.28z M151.98,331.02c-1.09,0-1.98,0.89-1.98,1.98c0,1.09,0.89,1.98,1.98,1.98
				c1.09,0,1.98-0.89,1.98-1.98C153.96,331.91,153.07,331.02,151.98,331.02z"/>
		</g>
		<g>
			<path class="st1" d="M394,303.26c-1.81,0-3.28-1.47-3.28-3.28c0-1.81,1.47-3.28,3.28-3.28c1.81,0,3.28,1.47,3.28,3.28
				C397.28,301.79,395.81,303.26,394,303.26z M394,298c-1.09,0-1.98,0.89-1.98,1.98c0,1.09,0.89,1.98,1.98,1.98
				c1.09,0,1.98-0.89,1.98-1.98C395.98,298.89,395.09,298,394,298z"/>
		</g>
		<g>
			<path class="st1" d="M254.02,299.28c-1.81,0-3.28-1.47-3.28-3.28c0-1.81,1.47-3.28,3.28-3.28c1.81,0,3.28,1.47,3.28,3.28
				C257.3,297.81,255.83,299.28,254.02,299.28z M254.02,294.02c-1.09,0-1.98,0.89-1.98,1.98c0,1.09,0.89,1.98,1.98,1.98
				c1.09,0,1.98-0.89,1.98-1.98C256,294.91,255.11,294.02,254.02,294.02z"/>
		</g>
		<g>
			<path class="st1" d="M445,361.3c-1.81,0-3.28-1.47-3.28-3.28c0-1.81,1.47-3.28,3.28-3.28c1.81,0,3.28,1.47,3.28,3.28
				C448.28,359.83,446.81,361.3,445,361.3z M445,356.04c-1.09,0-1.98,0.89-1.98,1.98c0,1.09,0.89,1.98,1.98,1.98
				c1.09,0,1.98-0.89,1.98-1.98C446.98,356.93,446.09,356.04,445,356.04z"/>
		</g>
		<g>
			<path class="st4" d="M295.92,189.74c-1.81,0-3.28-1.47-3.28-3.28c0-1.81,1.47-3.28,3.28-3.28c1.81,0,3.28,1.47,3.28,3.28
				C299.19,188.27,297.72,189.74,295.92,189.74z M295.92,184.48c-1.09,0-1.98,0.89-1.98,1.98c0,1.09,0.89,1.98,1.98,1.98
				c1.09,0,1.98-0.89,1.98-1.98C297.9,185.37,297.01,184.48,295.92,184.48z"/>
		</g>
		<g>
			<path class="st4" d="M111,307.26c-1.81,0-3.28-1.47-3.28-3.28c0-1.81,1.47-3.28,3.28-3.28s3.28,1.47,3.28,3.28
				C114.28,305.79,112.81,307.26,111,307.26z M111,302c-1.09,0-1.98,0.89-1.98,1.98c0,1.09,0.89,1.98,1.98,1.98s1.98-0.89,1.98-1.98
				C112.98,302.89,112.09,302,111,302z"/>
		</g>
		<path class="st1" d="M159.32,142h-1.38v-1.38c0-0.54-0.43-0.97-0.97-0.97s-0.97,0.44-0.97,0.97V142h-1.38
			c-0.54,0-0.97,0.44-0.97,0.97s0.43,0.97,0.97,0.97H156v1.38c0,0.54,0.44,0.97,0.97,0.97s0.97-0.43,0.97-0.97v-1.38h1.38
			c0.54,0,0.97-0.43,0.97-0.97S159.86,142,159.32,142z"/>
		<path class="st1" d="M252.24,213.86h-1.38v-1.38c0-0.54-0.44-0.97-0.97-0.97c-0.54,0-0.97,0.44-0.97,0.97v1.38h-1.38
			c-0.54,0-0.97,0.44-0.97,0.97c0,0.54,0.43,0.97,0.97,0.97h1.38v1.38c0,0.54,0.44,0.97,0.97,0.97c0.54,0,0.97-0.44,0.97-0.97v-1.38
			h1.38c0.54,0,0.97-0.44,0.97-0.97C253.21,214.29,252.77,213.86,252.24,213.86z"/>
		<path class="st1" d="M85.24,263.48h-1.38v-1.38c0-0.54-0.43-0.97-0.97-0.97c-0.54,0-0.97,0.44-0.97,0.97v1.38h-1.38
			c-0.54,0-0.97,0.43-0.97,0.97s0.43,0.97,0.97,0.97h1.38v1.38c0,0.54,0.43,0.97,0.97,0.97c0.54,0,0.97-0.43,0.97-0.97v-1.38h1.38
			c0.54,0,0.97-0.44,0.97-0.97S85.77,263.48,85.24,263.48z"/>
		<path class="st1" d="M422.29,246.54h-1.38v-1.38c0-0.54-0.43-0.97-0.97-0.97s-0.97,0.44-0.97,0.97v1.38h-1.38
			c-0.54,0-0.97,0.44-0.97,0.97c0,0.54,0.44,0.97,0.97,0.97h1.38v1.38c0,0.54,0.43,0.97,0.97,0.97s0.97-0.44,0.97-0.97v-1.38h1.38
			c0.54,0,0.97-0.44,0.97-0.97C423.27,246.97,422.83,246.54,422.29,246.54z"/>
		<path class="st1" d="M376.32,151h-1.38v-1.38c0-0.54-0.44-0.97-0.97-0.97c-0.54,0-0.97,0.44-0.97,0.97V151h-1.38
			c-0.54,0-0.97,0.44-0.97,0.97s0.43,0.97,0.97,0.97H373v1.38c0,0.54,0.43,0.97,0.97,0.97c0.54,0,0.97-0.43,0.97-0.97v-1.38h1.38
			c0.54,0,0.97-0.43,0.97-0.97S376.86,151,376.32,151z"/>
		<path class="st4" d="M211.38,283H210v-1.38c0-0.54-0.44-0.97-0.97-0.97c-0.54,0-0.97,0.44-0.97,0.97V283h-1.38
			c-0.54,0-0.97,0.44-0.97,0.97c0,0.54,0.44,0.97,0.97,0.97h1.38v1.38c0,0.54,0.44,0.97,0.97,0.97c0.54,0,0.97-0.43,0.97-0.97v-1.38
			h1.38c0.54,0,0.97-0.43,0.97-0.97C212.35,283.43,211.91,283,211.38,283z"/>
		<path class="st4" d="M352.32,360h-1.38v-1.38c0-0.54-0.43-0.97-0.97-0.97c-0.54,0-0.97,0.44-0.97,0.97V360h-1.38
			c-0.54,0-0.97,0.44-0.97,0.97c0,0.54,0.43,0.97,0.97,0.97H349v1.38c0,0.54,0.44,0.97,0.97,0.97c0.54,0,0.97-0.43,0.97-0.97v-1.38
			h1.38c0.54,0,0.97-0.43,0.97-0.97C353.29,360.43,352.86,360,352.32,360z"/>
		<path class="st4" d="M138.32,361h-1.38v-1.38c0-0.54-0.44-0.97-0.97-0.97c-0.54,0-0.97,0.43-0.97,0.97V361h-1.38
			c-0.54,0-0.97,0.43-0.97,0.97s0.43,0.97,0.97,0.97H135v1.38c0,0.54,0.44,0.97,0.97,0.97c0.54,0,0.97-0.43,0.97-0.97v-1.38h1.38
			c0.54,0,0.97-0.43,0.97-0.97S138.86,361,138.32,361z"/>
	</g>
	<g>
		<path class="st1" d="M320.99,369h-56c-0.55,0-1-0.45-1-1c0-0.55,0.45-1,1-1h56c0.55,0,1,0.45,1,1
			C321.99,368.55,321.55,369,320.99,369z"/>
	</g>
	<g>
		<path class="st1" d="M253.99,121H228c-0.55,0-1-0.45-1-1c0-0.55,0.45-1,1-1h25.99c0.55,0,1,0.45,1,1
			C254.99,120.55,254.55,121,253.99,121z"/>
	</g>
	<g>
		<path class="st1" d="M427.99,158H402c-0.55,0-1-0.45-1-1c0-0.55,0.45-1,1-1h25.99c0.55,0,1,0.45,1,1
			C428.99,157.55,428.55,158,427.99,158z"/>
	</g>
	<g>
		<path class="st1" d="M367.99,342H342c-0.55,0-1-0.45-1-1c0-0.55,0.45-1,1-1h25.99c0.55,0,1,0.45,1,1
			C368.99,341.55,368.55,342,367.99,342z"/>
	</g>
	<g>
		<path class="st1" d="M311.99,134H266c-0.55,0-1-0.45-1-1c0-0.55,0.45-1,1-1h45.99c0.55,0,1,0.45,1,1
			C312.99,133.55,312.55,134,311.99,134z"/>
	</g>
	<g>
		<path class="st1" d="M111.99,374H86c-0.55,0-1-0.45-1-1c0-0.55,0.45-1,1-1h25.99c0.55,0,1,0.45,1,1
			C112.99,373.55,112.55,374,111.99,374z"/>
	</g>
</g>
<g id="DESIGNED_BY_FREEPIK" class="st10">
	<g class="st11">
		<g>
			<path class="st4" d="M185.19,481.21v-0.15c-0.2,0.23-0.4,0.42-0.6,0.57c-0.2,0.15-0.41,0.26-0.64,0.33
				c-0.23,0.08-0.48,0.11-0.75,0.11c-0.36,0-0.7-0.08-1-0.23c-0.31-0.15-0.57-0.37-0.8-0.65c-0.22-0.28-0.4-0.62-0.51-1
				c-0.12-0.38-0.17-0.8-0.17-1.24c0-0.94,0.23-1.68,0.69-2.2c0.46-0.53,1.07-0.79,1.82-0.79c0.43,0,0.8,0.07,1.1,0.22
				c0.3,0.15,0.59,0.38,0.87,0.69v-2.22c0-0.31,0.06-0.54,0.19-0.7c0.12-0.16,0.3-0.24,0.53-0.24c0.23,0,0.4,0.07,0.53,0.22
				c0.12,0.15,0.18,0.36,0.18,0.64v6.65c0,0.29-0.07,0.5-0.2,0.65c-0.13,0.14-0.3,0.22-0.51,0.22c-0.21,0-0.38-0.07-0.51-0.22
				C185.26,481.7,185.19,481.49,185.19,481.21z M182.22,479c0,0.41,0.06,0.76,0.19,1.04c0.13,0.29,0.3,0.5,0.52,0.65
				c0.22,0.15,0.46,0.22,0.72,0.22c0.27,0,0.51-0.07,0.73-0.21c0.22-0.14,0.39-0.35,0.52-0.63c0.13-0.29,0.2-0.64,0.2-1.07
				c0-0.4-0.06-0.75-0.2-1.04c-0.13-0.29-0.31-0.51-0.53-0.66c-0.22-0.15-0.47-0.23-0.73-0.23c-0.28,0-0.52,0.08-0.74,0.23
				c-0.22,0.16-0.39,0.38-0.5,0.67C182.28,478.28,182.22,478.61,182.22,479z"/>
			<path class="st4" d="M191.83,479.38h-2.95c0,0.34,0.07,0.64,0.21,0.9c0.13,0.26,0.31,0.46,0.54,0.59c0.22,0.13,0.47,0.2,0.74,0.2
				c0.18,0,0.34-0.02,0.49-0.06c0.15-0.04,0.29-0.11,0.43-0.2c0.14-0.09,0.27-0.19,0.39-0.29c0.12-0.1,0.27-0.24,0.46-0.42
				c0.08-0.07,0.19-0.1,0.33-0.1c0.15,0,0.28,0.04,0.37,0.13c0.1,0.09,0.14,0.2,0.14,0.36c0,0.14-0.05,0.29-0.16,0.48
				c-0.11,0.18-0.27,0.36-0.48,0.52c-0.22,0.17-0.49,0.31-0.81,0.42c-0.33,0.11-0.7,0.17-1.12,0.17c-0.97,0-1.72-0.28-2.26-0.83
				c-0.54-0.55-0.81-1.3-0.81-2.25c0-0.45,0.07-0.86,0.2-1.24c0.13-0.38,0.33-0.71,0.58-0.98c0.25-0.27,0.57-0.48,0.94-0.63
				c0.37-0.15,0.78-0.22,1.24-0.22c0.59,0,1.09,0.12,1.51,0.37c0.42,0.25,0.74,0.57,0.95,0.96c0.21,0.39,0.31,0.8,0.31,1.2
				c0,0.38-0.11,0.62-0.33,0.74C192.53,479.33,192.23,479.38,191.83,479.38z M188.89,478.53h2.73c-0.04-0.52-0.18-0.9-0.42-1.16
				c-0.24-0.26-0.56-0.38-0.95-0.38c-0.38,0-0.68,0.13-0.92,0.39C189.08,477.63,188.94,478.02,188.89,478.53z"/>
			<path class="st4" d="M198.7,480.1c0,0.42-0.1,0.77-0.3,1.07c-0.2,0.3-0.5,0.52-0.9,0.67c-0.4,0.15-0.88,0.23-1.44,0.23
				c-0.54,0-1-0.08-1.39-0.25c-0.39-0.17-0.67-0.37-0.86-0.62c-0.18-0.25-0.28-0.5-0.28-0.75c0-0.17,0.06-0.31,0.18-0.42
				c0.12-0.12,0.27-0.18,0.45-0.18c0.16,0,0.28,0.04,0.36,0.12s0.17,0.19,0.24,0.33c0.15,0.27,0.34,0.47,0.56,0.6
				c0.22,0.13,0.51,0.2,0.88,0.2c0.3,0,0.55-0.07,0.74-0.2c0.19-0.14,0.29-0.29,0.29-0.46c0-0.27-0.1-0.46-0.3-0.58
				c-0.2-0.12-0.53-0.24-0.99-0.35c-0.52-0.13-0.94-0.26-1.27-0.41c-0.33-0.14-0.59-0.33-0.78-0.56c-0.19-0.23-0.29-0.52-0.29-0.86
				c0-0.3,0.09-0.59,0.27-0.86c0.18-0.27,0.45-0.48,0.8-0.64c0.35-0.16,0.77-0.24,1.27-0.24c0.39,0,0.74,0.04,1.05,0.12
				c0.31,0.08,0.57,0.19,0.78,0.33c0.21,0.14,0.37,0.29,0.47,0.45c0.11,0.17,0.16,0.33,0.16,0.49c0,0.17-0.06,0.31-0.17,0.43
				c-0.12,0.11-0.28,0.17-0.49,0.17c-0.15,0-0.29-0.04-0.39-0.13c-0.11-0.09-0.23-0.22-0.37-0.4c-0.11-0.15-0.25-0.27-0.4-0.35
				c-0.15-0.09-0.36-0.13-0.63-0.13c-0.27,0-0.5,0.06-0.68,0.17c-0.18,0.12-0.27,0.26-0.27,0.43c0,0.16,0.07,0.29,0.2,0.39
				c0.13,0.1,0.31,0.19,0.54,0.25c0.22,0.07,0.53,0.15,0.93,0.24c0.47,0.11,0.85,0.25,1.15,0.41c0.3,0.16,0.52,0.35,0.67,0.56
				C198.63,479.58,198.7,479.83,198.7,480.1z"/>
			<path class="st4" d="M200.24,475.25c-0.21,0-0.39-0.06-0.54-0.19c-0.15-0.13-0.22-0.31-0.22-0.55c0-0.21,0.08-0.39,0.23-0.53
				c0.15-0.14,0.33-0.21,0.53-0.21c0.2,0,0.37,0.06,0.52,0.19c0.15,0.13,0.23,0.31,0.23,0.55c0,0.23-0.07,0.41-0.22,0.54
				C200.62,475.18,200.44,475.25,200.24,475.25z M200.99,476.8v4.36c0,0.3-0.07,0.53-0.22,0.69c-0.14,0.15-0.33,0.23-0.55,0.23
				s-0.4-0.08-0.54-0.24c-0.14-0.16-0.21-0.38-0.21-0.68v-4.31c0-0.3,0.07-0.52,0.21-0.67c0.14-0.15,0.32-0.23,0.54-0.23
				s0.4,0.08,0.55,0.23C200.91,476.33,200.99,476.54,200.99,476.8z"/>
			<path class="st4" d="M207.59,477.05v4.38c0,0.5-0.05,0.93-0.16,1.29c-0.11,0.36-0.28,0.66-0.51,0.89
				c-0.24,0.23-0.54,0.41-0.92,0.52c-0.38,0.11-0.85,0.17-1.42,0.17c-0.52,0-0.98-0.07-1.39-0.22c-0.41-0.15-0.72-0.33-0.94-0.56
				c-0.22-0.23-0.33-0.47-0.33-0.71c0-0.18,0.06-0.33,0.19-0.45c0.12-0.12,0.28-0.17,0.45-0.17c0.22,0,0.41,0.1,0.58,0.29
				c0.08,0.1,0.16,0.2,0.25,0.3c0.09,0.1,0.18,0.19,0.29,0.26c0.1,0.07,0.23,0.12,0.38,0.16c0.15,0.03,0.32,0.05,0.51,0.05
				c0.39,0,0.69-0.05,0.91-0.16c0.22-0.11,0.37-0.26,0.45-0.46c0.09-0.19,0.14-0.4,0.15-0.63c0.01-0.22,0.03-0.58,0.03-1.07
				c-0.23,0.32-0.5,0.57-0.8,0.74c-0.3,0.17-0.67,0.25-1.08,0.25c-0.5,0-0.94-0.13-1.32-0.39c-0.38-0.26-0.67-0.62-0.87-1.08
				c-0.2-0.46-0.3-1-0.3-1.61c0-0.45,0.06-0.86,0.18-1.23c0.12-0.36,0.3-0.67,0.53-0.92c0.23-0.25,0.49-0.44,0.79-0.57
				c0.3-0.13,0.63-0.19,0.98-0.19c0.43,0,0.8,0.08,1.11,0.25c0.31,0.16,0.6,0.42,0.87,0.77v-0.2c0-0.26,0.06-0.46,0.19-0.61
				c0.13-0.14,0.29-0.22,0.5-0.22c0.29,0,0.48,0.1,0.58,0.28C207.54,476.42,207.59,476.7,207.59,477.05z M203.22,478.96
				c0,0.61,0.13,1.07,0.4,1.39c0.27,0.31,0.61,0.47,1.04,0.47c0.25,0,0.49-0.07,0.71-0.2c0.22-0.13,0.4-0.34,0.54-0.61
				c0.14-0.27,0.21-0.6,0.21-0.99c0-0.61-0.14-1.09-0.41-1.43c-0.27-0.34-0.63-0.51-1.07-0.51c-0.43,0-0.78,0.16-1.03,0.49
				C203.35,477.89,203.22,478.36,203.22,478.96z"/>
			<path class="st4" d="M209.98,476.78v0.18c0.26-0.35,0.55-0.61,0.87-0.77c0.31-0.16,0.68-0.25,1.08-0.25
				c0.4,0,0.75,0.09,1.07,0.26c0.31,0.17,0.55,0.42,0.7,0.73c0.1,0.18,0.16,0.38,0.19,0.6c0.03,0.21,0.04,0.49,0.04,0.82v2.8
				c0,0.3-0.07,0.53-0.21,0.69c-0.14,0.15-0.32,0.23-0.54,0.23c-0.22,0-0.41-0.08-0.55-0.24c-0.14-0.16-0.21-0.38-0.21-0.68v-2.51
				c0-0.5-0.07-0.88-0.21-1.14c-0.14-0.26-0.41-0.4-0.83-0.4c-0.27,0-0.51,0.08-0.73,0.24c-0.22,0.16-0.38,0.38-0.49,0.66
				c-0.07,0.22-0.11,0.64-0.11,1.26v1.89c0,0.31-0.07,0.54-0.21,0.69c-0.14,0.15-0.32,0.23-0.55,0.23c-0.22,0-0.4-0.08-0.54-0.24
				c-0.14-0.16-0.21-0.38-0.21-0.68v-4.36c0-0.29,0.06-0.5,0.19-0.64c0.13-0.14,0.3-0.21,0.51-0.21c0.13,0,0.25,0.03,0.36,0.09
				c0.11,0.06,0.19,0.16,0.26,0.28C209.95,476.45,209.98,476.6,209.98,476.78z"/>
			<path class="st4" d="M219.15,479.38h-2.95c0,0.34,0.07,0.64,0.21,0.9c0.13,0.26,0.31,0.46,0.54,0.59c0.22,0.13,0.47,0.2,0.74,0.2
				c0.18,0,0.35-0.02,0.49-0.06c0.15-0.04,0.29-0.11,0.43-0.2c0.14-0.09,0.27-0.19,0.39-0.29c0.12-0.1,0.27-0.24,0.46-0.42
				c0.08-0.07,0.19-0.1,0.33-0.1c0.15,0,0.28,0.04,0.38,0.13c0.1,0.09,0.14,0.2,0.14,0.36c0,0.14-0.05,0.29-0.16,0.48
				c-0.11,0.18-0.27,0.36-0.48,0.52c-0.22,0.17-0.49,0.31-0.81,0.42c-0.33,0.11-0.7,0.17-1.12,0.17c-0.97,0-1.72-0.28-2.26-0.83
				c-0.54-0.55-0.81-1.3-0.81-2.25c0-0.45,0.07-0.86,0.2-1.24c0.13-0.38,0.33-0.71,0.58-0.98c0.25-0.27,0.57-0.48,0.94-0.63
				c0.37-0.15,0.78-0.22,1.24-0.22c0.59,0,1.09,0.12,1.51,0.37c0.42,0.25,0.74,0.57,0.95,0.96c0.21,0.39,0.31,0.8,0.31,1.2
				c0,0.38-0.11,0.62-0.33,0.74C219.85,479.33,219.55,479.38,219.15,479.38z M216.2,478.53h2.73c-0.04-0.52-0.18-0.9-0.42-1.16
				c-0.24-0.26-0.56-0.38-0.95-0.38c-0.38,0-0.68,0.13-0.93,0.39C216.4,477.63,216.26,478.02,216.2,478.53z"/>
			<path class="st4" d="M225.3,481.21v-0.15c-0.2,0.23-0.4,0.42-0.6,0.57c-0.2,0.15-0.41,0.26-0.64,0.33
				c-0.23,0.08-0.48,0.11-0.75,0.11c-0.36,0-0.7-0.08-1-0.23c-0.31-0.15-0.57-0.37-0.8-0.65c-0.22-0.28-0.39-0.62-0.51-1
				c-0.12-0.38-0.17-0.8-0.17-1.24c0-0.94,0.23-1.68,0.69-2.2c0.46-0.53,1.07-0.79,1.82-0.79c0.43,0,0.8,0.07,1.1,0.22
				c0.3,0.15,0.59,0.38,0.87,0.69v-2.22c0-0.31,0.06-0.54,0.19-0.7c0.12-0.16,0.3-0.24,0.53-0.24c0.23,0,0.4,0.07,0.53,0.22
				c0.12,0.15,0.18,0.36,0.18,0.64v6.65c0,0.29-0.07,0.5-0.2,0.65c-0.13,0.14-0.3,0.22-0.51,0.22c-0.21,0-0.38-0.07-0.51-0.22
				C225.36,481.7,225.3,481.49,225.3,481.21z M222.33,479c0,0.41,0.06,0.76,0.19,1.04c0.13,0.29,0.3,0.5,0.52,0.65
				c0.22,0.15,0.46,0.22,0.72,0.22c0.27,0,0.51-0.07,0.73-0.21c0.22-0.14,0.39-0.35,0.52-0.63c0.13-0.29,0.2-0.64,0.2-1.07
				c0-0.4-0.07-0.75-0.2-1.04c-0.13-0.29-0.31-0.51-0.53-0.66c-0.22-0.15-0.47-0.23-0.73-0.23c-0.28,0-0.52,0.08-0.74,0.23
				c-0.22,0.16-0.39,0.38-0.51,0.67C222.39,478.28,222.33,478.61,222.33,479z"/>
			<path class="st4" d="M231.46,474.57v2.3c0.28-0.29,0.57-0.52,0.87-0.68c0.29-0.16,0.66-0.23,1.09-0.23c0.5,0,0.94,0.12,1.32,0.36
				c0.38,0.24,0.67,0.58,0.88,1.03c0.21,0.45,0.31,0.99,0.31,1.6c0,0.46-0.06,0.87-0.17,1.26c-0.12,0.38-0.28,0.71-0.51,0.99
				c-0.22,0.28-0.49,0.5-0.8,0.65c-0.32,0.15-0.66,0.23-1.04,0.23c-0.23,0-0.45-0.03-0.65-0.08c-0.2-0.06-0.38-0.13-0.52-0.22
				c-0.14-0.09-0.27-0.18-0.37-0.28c-0.1-0.1-0.24-0.24-0.4-0.43v0.15c0,0.28-0.07,0.5-0.2,0.64c-0.14,0.15-0.31,0.22-0.52,0.22
				c-0.21,0-0.38-0.07-0.51-0.22c-0.13-0.15-0.19-0.36-0.19-0.64v-6.58c0-0.31,0.06-0.54,0.18-0.69c0.12-0.16,0.3-0.23,0.52-0.23
				c0.23,0,0.41,0.07,0.54,0.22C231.39,474.08,231.46,474.29,231.46,474.57z M231.53,479.05c0,0.6,0.14,1.06,0.41,1.38
				c0.27,0.32,0.63,0.48,1.08,0.48c0.38,0,0.71-0.16,0.98-0.49c0.27-0.33,0.41-0.8,0.41-1.42c0-0.4-0.06-0.74-0.17-1.03
				c-0.11-0.29-0.28-0.51-0.49-0.67c-0.21-0.16-0.46-0.23-0.73-0.23c-0.29,0-0.54,0.08-0.77,0.23c-0.22,0.16-0.4,0.38-0.53,0.68
				C231.59,478.28,231.53,478.64,231.53,479.05z"/>
			<path class="st4" d="M237.88,482.26l0.14-0.34l-1.85-4.67c-0.11-0.27-0.17-0.46-0.17-0.59c0-0.13,0.03-0.25,0.1-0.36
				c0.07-0.11,0.16-0.2,0.27-0.27c0.12-0.07,0.24-0.1,0.36-0.1c0.22,0,0.38,0.07,0.49,0.21c0.11,0.14,0.21,0.34,0.29,0.59l1.28,3.71
				l1.21-3.45c0.1-0.28,0.18-0.5,0.26-0.66c0.08-0.16,0.16-0.27,0.25-0.32c0.09-0.06,0.21-0.08,0.37-0.08
				c0.11,0,0.22,0.03,0.33,0.09c0.1,0.06,0.19,0.14,0.24,0.25c0.06,0.1,0.09,0.21,0.09,0.33c-0.02,0.07-0.04,0.17-0.07,0.3
				c-0.03,0.13-0.07,0.26-0.12,0.39l-1.97,5.15c-0.17,0.45-0.34,0.81-0.5,1.06c-0.16,0.26-0.38,0.46-0.64,0.59
				c-0.27,0.14-0.63,0.21-1.08,0.21c-0.44,0-0.77-0.05-0.99-0.14c-0.22-0.1-0.33-0.27-0.33-0.53c0-0.17,0.05-0.31,0.16-0.4
				c0.1-0.09,0.26-0.14,0.47-0.14c0.08,0,0.16,0.01,0.24,0.03c0.1,0.02,0.18,0.03,0.25,0.03c0.17,0,0.31-0.03,0.41-0.08
				c0.1-0.05,0.19-0.14,0.27-0.27C237.68,482.7,237.77,482.51,237.88,482.26z"/>
		</g>
		<g>
			<path class="st4" d="M259.71,476.08h0.36v-0.45c0-0.47,0.06-0.85,0.18-1.13c0.12-0.28,0.32-0.48,0.61-0.61
				c0.29-0.13,0.68-0.19,1.17-0.19c0.88,0,1.32,0.21,1.32,0.65c0,0.14-0.05,0.26-0.14,0.36c-0.09,0.1-0.2,0.15-0.32,0.15
				c-0.06,0-0.16-0.01-0.31-0.03c-0.14-0.02-0.26-0.03-0.36-0.03c-0.27,0-0.45,0.08-0.53,0.24c-0.07,0.16-0.11,0.39-0.11,0.69v0.36
				h0.37c0.58,0,0.86,0.17,0.86,0.52c0,0.24-0.07,0.4-0.23,0.47c-0.15,0.07-0.36,0.1-0.63,0.1h-0.37v3.99c0,0.3-0.07,0.52-0.21,0.68
				c-0.14,0.16-0.32,0.24-0.55,0.24c-0.21,0-0.39-0.08-0.53-0.24c-0.14-0.16-0.21-0.38-0.21-0.68v-3.99h-0.41
				c-0.23,0-0.4-0.05-0.52-0.15c-0.12-0.1-0.18-0.23-0.18-0.39C258.95,476.26,259.2,476.08,259.71,476.08"/>
			<path class="st4" d="M264.64,479.9v1.26c0,0.3-0.08,0.53-0.22,0.69c-0.14,0.15-0.32,0.23-0.54,0.23c-0.22,0-0.4-0.08-0.54-0.23
				c-0.14-0.15-0.21-0.38-0.21-0.68v-4.2c0-0.68,0.24-1.02,0.73-1.02c0.25,0,0.43,0.08,0.54,0.24c0.11,0.16,0.17,0.39,0.18,0.7
				c0.18-0.31,0.36-0.54,0.55-0.7c0.19-0.16,0.44-0.24,0.76-0.24c0.32,0,0.62,0.08,0.92,0.24c0.3,0.16,0.45,0.37,0.45,0.63
				c0,0.18-0.06,0.34-0.19,0.45c-0.13,0.12-0.26,0.18-0.41,0.18c-0.06,0-0.19-0.04-0.4-0.1c-0.21-0.07-0.4-0.1-0.56-0.1
				c-0.22,0-0.4,0.06-0.54,0.17c-0.14,0.12-0.25,0.29-0.33,0.52c-0.07,0.23-0.13,0.5-0.16,0.82
				C264.66,479.06,264.64,479.45,264.64,479.9"/>
			<path class="st4" d="M271.57,479.38h-2.95c0.01,0.34,0.07,0.65,0.21,0.91c0.14,0.26,0.31,0.46,0.54,0.59
				c0.22,0.13,0.47,0.2,0.74,0.2c0.18,0,0.34-0.02,0.49-0.06c0.15-0.04,0.29-0.11,0.43-0.2c0.14-0.09,0.27-0.19,0.39-0.29
				c0.12-0.1,0.27-0.24,0.46-0.42c0.08-0.07,0.19-0.1,0.33-0.1c0.16,0,0.28,0.04,0.38,0.13c0.1,0.09,0.14,0.2,0.14,0.36
				c0,0.14-0.05,0.3-0.16,0.48c-0.11,0.18-0.27,0.36-0.49,0.53c-0.22,0.17-0.49,0.31-0.81,0.41c-0.33,0.11-0.7,0.17-1.12,0.17
				c-0.97,0-1.72-0.27-2.26-0.83c-0.54-0.55-0.81-1.3-0.81-2.25c0-0.45,0.07-0.86,0.2-1.24c0.13-0.38,0.32-0.71,0.58-0.98
				c0.25-0.27,0.56-0.48,0.94-0.63c0.37-0.14,0.78-0.22,1.24-0.22c0.59,0,1.09,0.12,1.51,0.38c0.42,0.25,0.74,0.57,0.95,0.96
				c0.21,0.4,0.32,0.8,0.32,1.21c0,0.38-0.11,0.62-0.33,0.74C272.27,479.32,271.97,479.38,271.57,479.38 M268.62,478.52h2.73
				c-0.04-0.51-0.17-0.9-0.41-1.15c-0.24-0.26-0.56-0.38-0.95-0.38c-0.38,0-0.68,0.13-0.93,0.39
				C268.82,477.63,268.67,478.02,268.62,478.52"/>
			<path class="st4" d="M277.84,479.38h-2.95c0,0.34,0.07,0.65,0.21,0.91c0.13,0.26,0.31,0.46,0.54,0.59
				c0.22,0.13,0.47,0.2,0.74,0.2c0.18,0,0.34-0.02,0.49-0.06c0.15-0.04,0.29-0.11,0.44-0.2c0.14-0.09,0.27-0.19,0.39-0.29
				c0.12-0.1,0.27-0.24,0.46-0.42c0.08-0.07,0.19-0.1,0.33-0.1c0.16,0,0.28,0.04,0.38,0.13c0.1,0.09,0.14,0.2,0.14,0.36
				c0,0.14-0.05,0.3-0.16,0.48c-0.1,0.18-0.26,0.36-0.48,0.53c-0.22,0.17-0.49,0.31-0.81,0.41c-0.32,0.11-0.7,0.17-1.12,0.17
				c-0.97,0-1.72-0.27-2.26-0.83c-0.54-0.55-0.81-1.3-0.81-2.25c0-0.45,0.07-0.86,0.2-1.24c0.13-0.38,0.32-0.71,0.58-0.98
				c0.25-0.27,0.57-0.48,0.94-0.63c0.37-0.14,0.79-0.22,1.24-0.22c0.59,0,1.09,0.12,1.52,0.38c0.42,0.25,0.74,0.57,0.94,0.96
				c0.21,0.4,0.32,0.8,0.32,1.21c0,0.38-0.11,0.62-0.33,0.74C278.54,479.32,278.23,479.38,277.84,479.38 M274.89,478.52h2.73
				c-0.04-0.51-0.18-0.9-0.42-1.15c-0.24-0.26-0.56-0.38-0.95-0.38c-0.38,0-0.68,0.13-0.93,0.39
				C275.09,477.63,274.94,478.02,274.89,478.52"/>
			<path class="st4" d="M281.14,476.79v0.18c0.28-0.35,0.58-0.61,0.89-0.77c0.3-0.17,0.65-0.25,1.04-0.25
				c0.46,0,0.89,0.12,1.28,0.36c0.39,0.24,0.7,0.59,0.92,1.05c0.23,0.46,0.34,1.01,0.34,1.64c0,0.46-0.07,0.89-0.2,1.28
				c-0.13,0.39-0.31,0.71-0.54,0.98c-0.23,0.26-0.5,0.47-0.81,0.61c-0.32,0.14-0.65,0.21-1,0.21c-0.43,0-0.79-0.09-1.08-0.26
				c-0.29-0.17-0.57-0.43-0.84-0.76v2.26c0,0.66-0.24,0.99-0.72,0.99c-0.29,0-0.47-0.09-0.56-0.26c-0.09-0.17-0.14-0.42-0.14-0.75
				v-6.51c0-0.29,0.06-0.5,0.19-0.64c0.12-0.14,0.3-0.21,0.51-0.21c0.21,0,0.39,0.07,0.52,0.22
				C281.08,476.31,281.14,476.52,281.14,476.79 M284.1,478.98c0-0.4-0.06-0.74-0.18-1.02c-0.12-0.29-0.29-0.5-0.5-0.66
				c-0.21-0.15-0.45-0.23-0.72-0.23c-0.41,0-0.77,0.17-1.05,0.49c-0.29,0.33-0.43,0.81-0.43,1.45c0,0.6,0.14,1.07,0.43,1.4
				c0.28,0.33,0.63,0.5,1.05,0.5c0.25,0,0.48-0.07,0.7-0.22c0.22-0.15,0.39-0.36,0.51-0.65C284.03,479.75,284.1,479.39,284.1,478.98
				"/>
			<path class="st4" d="M287.13,475.24c-0.21,0-0.39-0.07-0.54-0.19c-0.15-0.13-0.23-0.31-0.23-0.54c0-0.21,0.08-0.39,0.23-0.53
				c0.15-0.14,0.33-0.21,0.53-0.21c0.2,0,0.37,0.06,0.52,0.19c0.15,0.13,0.23,0.31,0.23,0.55c0,0.23-0.07,0.41-0.22,0.54
				C287.51,475.18,287.33,475.24,287.13,475.24 M287.88,476.8v4.36c0,0.3-0.07,0.53-0.22,0.68c-0.15,0.16-0.33,0.23-0.55,0.23
				c-0.22,0-0.4-0.08-0.54-0.24c-0.14-0.16-0.21-0.39-0.21-0.68v-4.32c0-0.3,0.07-0.52,0.21-0.67c0.14-0.15,0.32-0.23,0.54-0.23
				c0.22,0,0.4,0.07,0.55,0.23C287.8,476.32,287.88,476.53,287.88,476.8"/>
			<path class="st4" d="M292.73,481.39l-1.33-2.19l-0.82,0.77v1.2c0,0.29-0.08,0.51-0.23,0.67c-0.15,0.16-0.33,0.24-0.53,0.24
				c-0.23,0-0.42-0.08-0.55-0.23c-0.13-0.15-0.2-0.38-0.2-0.68v-6.43c0-0.33,0.07-0.59,0.19-0.76c0.13-0.18,0.32-0.26,0.55-0.26
				c0.23,0,0.41,0.08,0.55,0.24c0.14,0.16,0.21,0.39,0.21,0.7v3.66l1.69-1.78c0.21-0.22,0.37-0.37,0.48-0.45
				c0.11-0.08,0.24-0.12,0.4-0.12c0.19,0,0.35,0.06,0.47,0.18c0.12,0.12,0.19,0.27,0.19,0.45c0,0.22-0.21,0.52-0.61,0.88l-0.8,0.73
				l1.55,2.43c0.11,0.18,0.2,0.32,0.25,0.41c0.05,0.09,0.08,0.19,0.08,0.27c0,0.24-0.07,0.43-0.2,0.57
				c-0.13,0.14-0.3,0.21-0.51,0.21c-0.18,0-0.33-0.05-0.43-0.15C293.04,481.83,292.9,481.65,292.73,481.39"/>
			<path class="st4" d="M296.01,482.07c-0.23,0-0.42-0.07-0.59-0.22c-0.17-0.14-0.25-0.35-0.25-0.62c0-0.22,0.08-0.42,0.24-0.58
				c0.16-0.16,0.35-0.24,0.59-0.24c0.23,0,0.43,0.08,0.59,0.24c0.16,0.16,0.25,0.36,0.25,0.58c0,0.26-0.08,0.47-0.25,0.62
				C296.42,482,296.23,482.07,296.01,482.07"/>
			<path class="st4" d="M303.51,480.21c0,0.19-0.06,0.39-0.17,0.6c-0.11,0.22-0.28,0.42-0.51,0.61c-0.23,0.19-0.52,0.35-0.87,0.47
				c-0.35,0.12-0.74,0.18-1.18,0.18c-0.93,0-1.66-0.27-2.18-0.81c-0.52-0.54-0.78-1.27-0.78-2.19c0-0.62,0.12-1.17,0.36-1.64
				c0.24-0.47,0.58-0.84,1.04-1.1c0.45-0.26,1-0.39,1.62-0.39c0.39,0,0.75,0.06,1.08,0.17c0.33,0.11,0.6,0.26,0.83,0.44
				c0.22,0.18,0.4,0.37,0.52,0.58c0.12,0.2,0.18,0.4,0.18,0.57c0,0.18-0.07,0.33-0.2,0.46c-0.14,0.12-0.3,0.19-0.49,0.19
				c-0.13,0-0.23-0.03-0.31-0.1c-0.08-0.07-0.18-0.17-0.28-0.32c-0.18-0.28-0.38-0.49-0.58-0.63c-0.2-0.14-0.45-0.21-0.76-0.21
				c-0.44,0-0.8,0.17-1.08,0.52c-0.27,0.35-0.41,0.83-0.41,1.43c0,0.28,0.04,0.55,0.11,0.78c0.07,0.24,0.17,0.44,0.3,0.61
				c0.13,0.17,0.29,0.29,0.48,0.38c0.19,0.09,0.4,0.13,0.62,0.13c0.3,0,0.56-0.07,0.78-0.21c0.22-0.14,0.41-0.35,0.57-0.64
				c0.09-0.17,0.19-0.3,0.3-0.4c0.11-0.09,0.24-0.14,0.39-0.14c0.18,0,0.34,0.07,0.46,0.21
				C303.44,479.9,303.51,480.05,303.51,480.21"/>
			<path class="st4" d="M310.01,479.01c0,0.45-0.07,0.86-0.21,1.24c-0.14,0.38-0.34,0.71-0.61,0.98c-0.26,0.27-0.58,0.48-0.95,0.63
				c-0.37,0.14-0.78,0.22-1.24,0.22c-0.46,0-0.87-0.07-1.23-0.22c-0.36-0.14-0.68-0.36-0.95-0.63c-0.27-0.28-0.47-0.6-0.61-0.97
				c-0.13-0.37-0.2-0.79-0.2-1.24c0-0.46,0.07-0.88,0.21-1.25c0.14-0.38,0.34-0.7,0.6-0.97c0.26-0.27,0.58-0.48,0.95-0.62
				c0.37-0.14,0.78-0.22,1.23-0.22c0.46,0,0.87,0.07,1.24,0.22c0.37,0.15,0.69,0.36,0.96,0.63c0.27,0.28,0.47,0.6,0.6,0.97
				C309.94,478.14,310.01,478.56,310.01,479.01 M308.5,479.01c0-0.62-0.14-1.09-0.41-1.43c-0.27-0.35-0.63-0.52-1.09-0.52
				c-0.3,0-0.56,0.08-0.78,0.23c-0.22,0.15-0.4,0.38-0.52,0.68c-0.12,0.3-0.18,0.65-0.18,1.05c0,0.39,0.06,0.74,0.18,1.03
				c0.12,0.3,0.29,0.52,0.51,0.68c0.22,0.15,0.49,0.23,0.79,0.23c0.46,0,0.82-0.17,1.09-0.52
				C308.36,480.09,308.5,479.62,308.5,479.01"/>
			<path class="st4" d="M315.76,479.12v2c0,0.32-0.07,0.55-0.21,0.71c-0.15,0.16-0.33,0.24-0.57,0.24c-0.23,0-0.41-0.08-0.55-0.24
				c-0.14-0.16-0.22-0.4-0.22-0.71v-2.4c0-0.38-0.01-0.68-0.04-0.89c-0.03-0.21-0.1-0.38-0.21-0.51c-0.11-0.14-0.3-0.2-0.54-0.2
				c-0.49,0-0.82,0.17-0.97,0.51c-0.16,0.33-0.24,0.82-0.24,1.46v2.04c0,0.31-0.07,0.55-0.21,0.71c-0.14,0.16-0.33,0.24-0.56,0.24
				c-0.23,0-0.42-0.08-0.56-0.24c-0.15-0.16-0.22-0.4-0.22-0.71v-4.31c0-0.28,0.06-0.5,0.19-0.65c0.13-0.15,0.31-0.22,0.52-0.22
				c0.21,0,0.38,0.07,0.52,0.21c0.14,0.14,0.21,0.33,0.21,0.57v0.14c0.26-0.31,0.54-0.54,0.84-0.69c0.3-0.15,0.63-0.22,1-0.22
				c0.38,0,0.7,0.08,0.98,0.23c0.27,0.15,0.5,0.38,0.67,0.68c0.26-0.31,0.53-0.54,0.82-0.69c0.29-0.15,0.61-0.22,0.97-0.22
				c0.41,0,0.77,0.08,1.07,0.24c0.3,0.16,0.52,0.4,0.67,0.69c0.13,0.27,0.19,0.7,0.19,1.29v2.94c0,0.32-0.07,0.55-0.21,0.71
				c-0.14,0.16-0.33,0.24-0.57,0.24c-0.23,0-0.42-0.08-0.56-0.24c-0.15-0.16-0.22-0.4-0.22-0.71v-2.53c0-0.32-0.01-0.58-0.04-0.78
				c-0.03-0.2-0.1-0.36-0.22-0.49c-0.12-0.13-0.31-0.2-0.55-0.2c-0.2,0-0.39,0.06-0.57,0.18c-0.18,0.12-0.32,0.28-0.42,0.47
				C315.82,478.03,315.76,478.48,315.76,479.12"/>
		</g>
		<g>
			<path class="st4" d="M245.6,478.65c0,0,0-0.01,0-0.01C245.6,478.64,245.6,478.64,245.6,478.65z"/>
			<path class="st4" d="M245.68,479.13C245.68,479.13,245.68,479.13,245.68,479.13c-0.03-0.14-0.05-0.27-0.07-0.41
				C245.63,478.86,245.65,478.99,245.68,479.13z"/>
			<path class="st4" d="M246.18,480.53c0-0.01-0.01-0.01-0.01-0.02C246.17,480.51,246.17,480.52,246.18,480.53z"/>
			<path class="st4" d="M246.13,480.43c-0.01-0.03-0.03-0.05-0.04-0.08C246.1,480.38,246.12,480.41,246.13,480.43z"/>
			<path class="st4" d="M245.82,479.67c0.07,0.23,0.16,0.46,0.27,0.67C245.98,480.12,245.89,479.89,245.82,479.67
				C245.82,479.67,245.82,479.67,245.82,479.67z"/>
			<path class="st4" d="M251.44,472.87c0.29,0,0.51,0.02,0.75,0.06l0.07-0.44c0,0-0.68-0.21-1.58-0.14l-0.07-0.24
				c0.28-0.06,0.49-0.31,0.49-0.6c0-0.34-0.28-0.61-0.61-0.61c-0.34,0-0.61,0.27-0.61,0.61c0,0.3,0.21,0.54,0.49,0.6l0.08,0.27
				c-0.95,0.13-1.71,0.5-1.71,0.5l0.13,0.41c0.57-0.19,1.07-0.31,1.53-0.36C250.83,472.89,251.17,472.87,251.44,472.87z"/>
			<path class="st4" d="M246.17,475.11L246.17,475.11c0.03-0.03,0.05-0.06,0.07-0.09l-0.18-0.13l-0.28-0.21
				c-0.02,0.02-0.46,0.43-0.81,1.19c-0.01-0.02-0.03-0.05-0.05-0.07c-0.11-0.12-0.25-0.17-0.44-0.17c0,0-0.01,0-0.01,0
				c-0.12,0-0.2-0.04-0.25-0.09c0.05-0.07,0.08-0.15,0.08-0.24c0-0.21-0.17-0.39-0.39-0.39c-0.21,0-0.39,0.17-0.39,0.39
				c0,0.22,0.17,0.39,0.39,0.39c0.03,0,0.07-0.01,0.1-0.01c0.1,0.11,0.25,0.2,0.47,0.19c0.11,0,0.2,0.03,0.25,0.09
				c0.06,0.07,0.09,0.17,0.09,0.25c0,0,0,0,0,0c-0.25,0.69-0.18,1.55-0.18,1.55l0.61,0.02c0.01-0.31,0.06-0.86,0.22-1.3
				C245.77,475.66,246.15,475.14,246.17,475.11z"/>
			<path class="st4" d="M256.78,473.38c-0.21,0-0.39,0.17-0.39,0.39c0,0.03,0.01,0.07,0.01,0.1c-0.11,0.1-0.2,0.25-0.2,0.47
				c0,0.11-0.03,0.2-0.09,0.25c-0.05,0.04-0.11,0.07-0.17,0.08c-0.46-0.64-1.02-1.03-1.02-1.03l-0.44,0.47
				c0.33,0.3,0.67,0.68,1,1.16c0.23,0.33,0.46,0.75,0.66,1.17l0.6-0.28c0,0-0.27-0.67-0.65-1.27c0.07-0.02,0.13-0.06,0.19-0.11
				c0.12-0.1,0.17-0.25,0.17-0.44c0-0.12,0.04-0.2,0.09-0.26c0.07,0.05,0.15,0.08,0.24,0.08c0.22,0,0.39-0.17,0.39-0.39
				C257.17,473.56,257,473.38,256.78,473.38z"/>
			<path class="st4" d="M255.24,478.73c-0.82,0.4-2.17,0.93-3.94,1.17c-0.7,0.1-1.37,0.13-1.99,0.13c-0.81,0-1.52-0.06-2.07-0.13
				c-0.63-0.08-1.11-0.18-1.41-0.24c0.07,0.23,0.16,0.45,0.26,0.67c0,0.01,0,0.01,0.01,0.02c0.01,0.03,0.02,0.05,0.04,0.08
				c0.01,0.03,0.02,0.05,0.04,0.07c0,0.01,0.01,0.01,0.01,0.02c0.18,0.33,0.39,0.64,0.63,0.9c0.84,0.92,1.69,1.06,1.7,1.06l0.01,0
				l0.01,0c0.01,0,0.76,0.25,1.91,0.25c1.13,0,2.24-0.23,3.3-0.68c0.78-0.4,1.52-1.01,1.89-1.55c0.28-0.42,0.49-0.87,0.61-1.33
				c0.06-0.25,0.12-0.64,0.09-1.06C256.1,478.27,255.73,478.49,255.24,478.73z"/>
			<path class="st4" d="M246.43,475.31c-0.02,0.03-0.38,0.54-0.66,1.31c-0.21,0.58-0.2,1.42-0.2,1.43v0c0,0.2,0.01,0.39,0.03,0.59
				c0,0,0,0.01,0,0.01c0,0.02,0.01,0.05,0.01,0.07c0.02,0.13,0.04,0.27,0.07,0.41c0.41,0.1,2.84,0.67,5.55,0.29
				c1.7-0.24,2.99-0.74,3.78-1.12c0.65-0.32,1.07-0.6,1.23-0.72c-0.16-0.6-0.61-1.53-1.01-2.12c-1.17-1.67-2.42-2.09-3.07-2.2
				c-0.25-0.04-0.44-0.06-0.72-0.06c-0.26,0-0.58,0.02-1.01,0.07c-0.43,0.04-0.91,0.16-1.47,0.35c-0.78,0.26-1.49,0.67-2.05,1.19
				l-0.02,0.02C246.8,474.9,246.63,475.06,246.43,475.31z M253.56,474.92c0.56,0,1.01,0.45,1.01,1.01c0,0.56-0.45,1.01-1.01,1.01
				c-0.56,0-1.01-0.45-1.01-1.01C252.55,475.37,253,474.92,253.56,474.92z M248.77,474.88c0.9,0,1.64,0.73,1.64,1.64
				s-0.73,1.64-1.64,1.64c-0.9,0-1.64-0.73-1.64-1.64S247.87,474.88,248.77,474.88z"/>
		</g>
	</g>
</g>
</svg>
