<?xml version="1.0" encoding="utf-8"?>
<!-- Generator: Adobe Illustrator 23.0.5, SVG Export Plug-In . SVG Version: 6.00 Build 0)  -->
<svg version="1.1" id="Capa_1" xmlns="http://www.w3.org/2000/svg" xmlns:xlink="http://www.w3.org/1999/xlink" x="0px" y="0px"
	 viewBox="0 0 1920 1080" style="enable-background:new 0 0 1920 1080;" xml:space="preserve">
<style type="text/css">
	.st0{opacity:0.5;fill:#076D6D;}
	.st1{fill:#BCBCBC;}
	.st2{fill:#D3D3D3;}
	.st3{fill:#0B4656;}
	.st4{fill:#063444;}
	.st5{fill:#4DE4E8;}
	.st6{fill:#0FB1B5;}
	.st7{fill:#1CC6C6;}
	.st8{fill:#FFDC79;}
	.st9{fill:#FE5C99;}
	.st10{fill:#FFFFFF;}
	.st11{fill:#EAEAEA;}
	.st12{fill:#DBDBDB;}
	.st13{fill:#EDEDED;}
	.st14{fill:#81C5E8;}
	.st15{fill:#394356;}
	.st16{fill:#485366;}
	.st17{fill:#6A7384;}
	.st18{opacity:0.2;fill:#FFFFFF;}
	.st19{opacity:0.4;fill:#FFFFFF;}
	.st20{fill:#FFE6A6;}
	.st21{fill:#252343;}
	.st22{fill:#666490;}
	.st23{fill:#E5E5E5;}
	.st24{fill:#E83D83;}
	.st25{fill:#EFC356;}
	.st26{fill:#00E0C1;}
	.st27{fill:#02F5D0;}
	.st28{fill:#48D7E5;}
	.st29{fill:#E0F9FE;}
	.st30{fill:#011A5F;}
	.st31{fill:#C5EAEF;}
	.st32{opacity:0.3;fill:#C9D4FE;}
	.st33{opacity:0.1;fill:#FFFFFF;}
	.st34{fill:#73AAE0;}
	.st35{fill:#ACD3FF;}
	.st36{fill:#8BA6FC;}
	.st37{fill:#C9D4FE;}
	.st38{fill:#779A0A;}
	.st39{fill:#C3D600;}
	.st40{fill:#FFD05A;}
	.st41{opacity:0.5;fill:#2D605D;}
	.st42{fill:#B2CFD1;}
	.st43{fill:#EDF4F4;}
	.st44{fill:#EBF6F7;}
	.st45{fill:#D1E4E5;}
	.st46{fill:#B7E3E5;}
	.st47{opacity:0.1;fill:url(#SVGID_1_);}
	.st48{fill:#B0F4F4;}
</style>
<g>
	<path class="st0" d="M749.56,688.55l-166.4,77.63c-1.09,0.51-1.08,1.72,0.01,2.22l3.92,1.79c2.13,0.97,4.79,0.96,6.9-0.03
		l164.95-76.95c1.19-0.56,1.18-1.88-0.02-2.43l-4.93-2.25C752.63,687.91,750.92,687.92,749.56,688.55z"/>
	<g>
		<g>
			<path class="st1" d="M675.41,498.81l-1.94,0.89c-2.87,1.31-4.95,0.17-4.17-2.29l0-0.01l-0.01,0.01c0.36-1.23,0.17-2.35-2.11-2.66
				c-0.69-0.09-1.56,0.05-2.44,0.48c-2.45,1.17-4.4,3.59-4.4,5.47c0,0.28,0.05,0.52,0.13,0.74l-0.01,0l0,0
				c0.79,1.74-1.29,4.78-4.17,6.1l-1.94,0.89c-2.22,1.01-4.01,3.2-4.01,4.88v0.57l29.07-13.28v-0.57
				C679.42,498.35,677.62,497.8,675.41,498.81z M664.89,500.4c-1.31,0.6-2.37,0.28-2.37-0.71c0-1,1.06-2.28,2.37-2.88
				c1.31-0.6,2.37-0.28,2.37,0.72C667.25,498.52,666.2,499.81,664.89,500.4z"/>
			<path class="st2" d="M700.24,498.63l-70.7,32.29v-1.38c0-4.1,4.37-9.41,9.76-11.87l51.19-23.38c5.39-2.46,9.76-1.14,9.76,2.96
				V498.63z"/>
		</g>
		<g>
			<path class="st3" d="M748.24,479.13l-5.96-1.85l-0.01,0.02c-1.05-0.32-2.27-0.31-3.37,0.21l-159.61,74.56
				c-2.73,1.28-4.4,3.54-4.4,5.98v197.49c0,1.31,0.95,2.38,2.26,2.94h0l0,0c0.31,0.13,0.64,0.23,0.98,0.3l5.36,1.67l-0.71-2.58
				l157.78-73.71c2.58-1.2,4.15-3.34,4.15-5.64L748.24,479.13z"/>
			<path class="st4" d="M750.42,481.75V680.3c0,2.3-1.57,4.43-4.15,5.64l-158.92,74.24c-2.95,1.38-6.74-0.24-6.74-2.87V560.42
				c0-2.81,1.92-5.41,5.06-6.88l158.95-74.25C747.16,478.1,750.42,479.48,750.42,481.75z"/>
			<path class="st5" d="M744.62,486.75v192.45c0,0.86-0.59,1.66-1.55,2.11l-154.4,72.13c-0.99,0.46-2.26-0.08-2.26-0.96V560.32
				c0-1.25,0.85-2.41,2.26-3.07l153.32-71.62C743.14,485.09,744.62,485.72,744.62,486.75z"/>
		</g>
		<g>
			<path class="st6" d="M656.97,537.54v71.78c0,0.32-0.22,0.62-0.58,0.79l-57.59,26.9c-0.37,0.17-0.84-0.03-0.84-0.36v-71.67
				c0-0.47,0.32-0.9,0.84-1.15l57.19-26.71C656.42,536.93,656.97,537.16,656.97,537.54z"/>
			<path class="st6" d="M656.97,622.87v6.88c0,0.32-0.22,0.62-0.58,0.79l-57.59,26.9c-0.37,0.17-0.84-0.03-0.84-0.36v-6.77
				c0-0.47,0.32-0.9,0.84-1.15l57.19-26.71C656.42,622.25,656.97,622.49,656.97,622.87z"/>
			<path class="st7" d="M650.94,600.22v5.47c0,0.26-0.17,0.49-0.46,0.63l-45.82,21.4c-0.29,0.14-0.67-0.02-0.67-0.29v-5.39
				c0-0.37,0.25-0.72,0.67-0.91l45.49-21.25C650.5,599.73,650.94,599.92,650.94,600.22z"/>
			<path class="st6" d="M656.97,637.14v6.88c0,0.32-0.22,0.62-0.58,0.79l-57.59,26.9c-0.37,0.17-0.84-0.03-0.84-0.36v-6.77
				c0-0.47,0.32-0.9,0.84-1.15l57.19-26.71C656.42,636.53,656.97,636.76,656.97,637.14z"/>
			<path class="st6" d="M643.87,657.53v6.88c0,0.32-0.22,0.62-0.58,0.79l-44.49,20.79c-0.37,0.17-0.84-0.03-0.84-0.36v-6.77
				c0-0.47,0.32-0.9,0.84-1.15l44.09-20.6C643.32,656.91,643.87,657.15,643.87,657.53z"/>
			<path class="st6" d="M719.82,613.98v6.88c0,0.32-0.22,0.62-0.58,0.79l-44.49,20.79c-0.37,0.17-0.84-0.03-0.84-0.36v-6.77
				c0-0.47,0.32-0.9,0.84-1.15l44.09-20.6C719.27,613.36,719.82,613.6,719.82,613.98z"/>
			<path class="st6" d="M719.82,634.25v6.88c0,0.32-0.22,0.62-0.58,0.79l-44.49,20.79c-0.37,0.17-0.84-0.03-0.84-0.36v-6.77
				c0-0.47,0.32-0.9,0.84-1.15l44.09-20.6C719.27,633.64,719.82,633.87,719.82,634.25z"/>
			<path class="st6" d="M656.97,665.69v6.88c0,0.32-0.22,0.62-0.58,0.79l-57.59,26.9c-0.37,0.17-0.84-0.03-0.84-0.36v-6.77
				c0-0.47,0.32-0.9,0.84-1.15l57.19-26.71C656.42,665.07,656.97,665.31,656.97,665.69z"/>
			<path class="st6" d="M616.56,709.08v9.97c0,0.47-0.32,0.9-0.84,1.14l-12.21,5.64c-0.53,0.25-1.22-0.04-1.22-0.52v-9.82
				c0-0.68,0.46-1.31,1.22-1.66l11.63-5.37C615.76,708.18,616.56,708.52,616.56,709.08z"/>
			<path class="st8" d="M636.77,699.7v9.97c0,0.47-0.32,0.9-0.84,1.14l-12.21,5.64c-0.53,0.25-1.22-0.04-1.22-0.52v-9.82
				c0-0.68,0.46-1.31,1.22-1.66l11.63-5.37C635.96,698.8,636.77,699.14,636.77,699.7z"/>
			<path class="st9" d="M656.97,690.31v9.97c0,0.47-0.32,0.9-0.84,1.14l-12.21,5.64c-0.54,0.25-1.22-0.04-1.22-0.52v-9.82
				c0-0.68,0.46-1.31,1.22-1.66l11.63-5.36C656.17,689.41,656.97,689.76,656.97,690.31z"/>
			<path class="st6" d="M709.72,513.54v2.62c0,0.32-0.22,0.62-0.58,0.79l-38.57,18.03c-0.37,0.17-0.84-0.03-0.84-0.36v-2.51
				c0-0.47,0.32-0.9,0.84-1.15l38.17-17.84C709.16,512.92,709.72,513.16,709.72,513.54z"/>
			<path class="st6" d="M695.55,527.75v2.62c0,0.32-0.22,0.62-0.58,0.79l-24.41,11.47c-0.37,0.17-0.84-0.03-0.84-0.36v-2.51
				c0-0.47,0.32-0.9,0.84-1.15l24-11.28C695,527.13,695.55,527.36,695.55,527.75z"/>
			<path class="st6" d="M728.74,519.97v2.62c0,0.32-0.22,0.62-0.58,0.79l-57.59,26.9c-0.37,0.17-0.84-0.03-0.84-0.36v-2.51
				c0-0.47,0.32-0.9,0.84-1.15l57.19-26.71C728.18,519.35,728.74,519.58,728.74,519.97z"/>
			<path class="st6" d="M723.61,529.95v2.62c0,0.32-0.22,0.62-0.58,0.79l-52.46,24.58c-0.37,0.17-0.84-0.03-0.84-0.36v-2.51
				c0-0.47,0.32-0.9,0.84-1.15l52.05-24.39C723.05,529.33,723.61,529.56,723.61,529.95z"/>
			<path class="st6" d="M700.72,548.34v2.62c0,0.32-0.22,0.62-0.58,0.79l-29.57,13.83c-0.37,0.17-0.84-0.03-0.84-0.36v-2.51
				c0-0.47,0.32-0.9,0.84-1.15l29.17-13.65C700.17,547.72,700.72,547.95,700.72,548.34z"/>
			<path class="st6" d="M728.74,542.92v2.62c0,0.32-0.22,0.62-0.58,0.79l-57.59,26.9c-0.37,0.17-0.84-0.03-0.84-0.36v-2.51
				c0-0.47,0.32-0.9,0.84-1.15l57.19-26.71C728.18,542.3,728.74,542.54,728.74,542.92z"/>
			<path class="st6" d="M728.74,550.57v2.62c0,0.32-0.22,0.62-0.58,0.79l-57.59,26.9c-0.37,0.17-0.84-0.03-0.84-0.36v-2.51
				c0-0.47,0.32-0.9,0.84-1.15l57.19-26.71C728.18,549.95,728.74,550.19,728.74,550.57z"/>
			<path class="st6" d="M714.92,564.72v2.62c0,0.32-0.22,0.62-0.58,0.79l-43.77,20.41c-0.37,0.17-0.84-0.03-0.84-0.36v-2.51
				c0-0.47,0.32-0.9,0.84-1.15l43.37-20.22C714.37,564.1,714.92,564.33,714.92,564.72z"/>
			<path class="st6" d="M728.74,565.87v2.62c0,0.32-0.22,0.62-0.58,0.79l-57.59,26.9c-0.37,0.17-0.84-0.03-0.84-0.36v-2.51
				c0-0.47,0.32-0.9,0.84-1.15l57.19-26.71C728.18,565.25,728.74,565.49,728.74,565.87z"/>
			<path class="st6" d="M728.74,573.52v2.62c0,0.32-0.22,0.62-0.58,0.79l-57.59,26.9c-0.37,0.17-0.84-0.03-0.84-0.36v-2.51
				c0-0.47,0.32-0.9,0.84-1.15l57.19-26.71C728.18,572.9,728.74,573.14,728.74,573.52z"/>
			<g>
				<path class="st10" d="M637.16,569.08c0,4.07-4.34,12.4-9.7,14.94s-9.7-1.66-9.7-5.73s4.34-9.43,9.7-11.98
					C632.82,563.77,637.16,565.01,637.16,569.08z"/>
				<path class="st10" d="M650.94,591.89v1.2l-46.95,22.3v-1.2c0-9.85,10.51-22.83,23.47-28.99c6.49-3.08,12.35-3.87,16.6-2.66
					C648.31,583.75,650.94,586.97,650.94,591.89z"/>
			</g>
			<g>
				<path class="st10" d="M705.08,500.4l-70.7,32.29v-1.38c0-4.1,4.37-9.41,9.76-11.87l51.19-23.38c5.39-2.46,9.76-1.14,9.76,2.96
					V500.4z"/>
				<path class="st11" d="M680.25,500.58l-1.94,0.89c-2.87,1.31-4.95,0.17-4.17-2.29l0-0.01l-0.01,0.01
					c0.36-1.23,0.17-2.35-2.11-2.66c-0.69-0.09-1.56,0.05-2.44,0.48c-2.45,1.17-4.4,3.59-4.4,5.47c0,0.28,0.06,0.52,0.13,0.74
					l-0.01,0l0,0c0.79,1.74-1.29,4.78-4.17,6.1l-1.94,0.89c-2.22,1.01-4.01,3.2-4.01,4.88v0.57l29.07-13.28v-0.57
					C684.26,500.11,682.46,499.57,680.25,500.58z M669.73,502.17c-1.31,0.6-2.37,0.28-2.37-0.71c0-1,1.06-2.28,2.37-2.88
					c1.31-0.6,2.37-0.28,2.37,0.72C672.09,500.28,671.04,501.57,669.73,502.17z"/>
			</g>
			<path class="st6" d="M728.74,535.16v2.62c0,0.32-0.22,0.62-0.58,0.79l-23.65,11.17c-0.37,0.17-0.84-0.03-0.84-0.36v-2.51
				c0-0.47,0.32-0.9,0.84-1.15l23.25-10.98C728.18,534.55,728.74,534.78,728.74,535.16z"/>
		</g>
	</g>
</g>
<g>
	<path class="st0" d="M1432.41,588.35c0.72-0.33,0.73-1.12,0.02-1.45l-76.73-35.87c-0.08-0.03-0.08-0.06-0.17-0.1
		c-0.04-0.03-0.08-0.06-0.17-0.1l-0.46-0.22c-0.13-0.06-0.25-0.1-0.38-0.16c-0.76-0.26-1.56-0.42-2.36-0.48
		c-1.52-0.13-3.11,0.13-4.59,0.67l-11.62-5.5c6.19-3.81,9.89-8.48,10.1-13.63l0.29-7.33c0.51-13.53-23.7-25.09-54.09-25.76
		c-30.18-0.67-55.1,9.6-55.95,23.04l-0.04-0.06v0.32c0,0.03,0,0.06,0,0.06l-0.29,7.26c0,0.03,0,0.03,0,0.03l-0.04,1.15l0.04-0.03
		c0.84,13.05,24.54,23.97,54.09,24.64c12.67,0.29,24.42-1.41,33.85-4.42c0.17,0.16,0.38,0.35,0.59,0.48
		c0.25,0.13,0.51,0.26,0.76,0.35l15.41,7.3c-0.13,1.31,0.04,2.56,0.59,3.65c0.55,1.06,1.39,1.98,2.53,2.62
		c0.38,0.26,0.8,0.45,1.3,0.64l65.62,30.66c1.3,0.61,2.92,0.63,4.23,0.04C1419.19,594.26,1428.64,590.04,1432.41,588.35z"/>
	<path class="st12" d="M1347.42,504.49l-13.01-10.28l-37.55-7.06l-38.03,5.37l-13.79,9.68l-3.59,6.04l5.44,1.45
		c0,0,6.42-19.63,49.81-18.66c43.39,0.97,48.28,20.86,48.28,20.86l5.54-1.2L1347.42,504.49z"/>
	<path class="st13" d="M1350.53,513.07c-2.02-3.68-5.79-7.08-10.91-10.01c2.53,2.72,3.88,5.69,3.76,8.78
		c-0.46,11.87-22.43,21.02-49.07,20.42c-26.64-0.6-47.87-10.7-47.41-22.58c0.12-3.09,1.7-6,4.44-8.6
		c-5.79,2.92-10.04,6.46-12.21,10.41l-1.32-2.35l-0.31,7.95c0,0.01,0,0.01,0,0.02c0,0,0,0.01,0,0.01l-0.05,1.22l0.07-0.06
		c0.84,13.6,25.54,24.99,56.34,25.68c31.68,0.71,57.79-10.16,58.34-24.28l0.3-7.64L1350.53,513.07z"/>
	<path class="st14" d="M1296.13,485.2c-31.68-0.71-57.79,10.16-58.34,24.29c-0.05,1.3,0.12,2.58,0.49,3.83
		c3.66,12.4,27.1,22.37,55.87,23.01c28.77,0.64,52.94-8.26,57.55-20.47c0.47-1.24,0.73-2.51,0.78-3.8
		C1353.03,497.93,1327.8,485.91,1296.13,485.2z M1294.31,532.27c-26.64-0.6-47.87-10.7-47.41-22.58c0.12-3.09,1.7-6,4.44-8.6
		c7.78-7.38,24.93-12.27,44.63-11.83c19.71,0.44,36.45,6.09,43.64,13.8c2.53,2.72,3.88,5.69,3.76,8.78
		C1342.92,523.72,1320.95,532.86,1294.31,532.27z"/>
	<path class="st10" d="M1296.13,485.2c-31.68-0.71-57.79,10.16-58.34,24.29c-0.05,1.3,0.12,2.58,0.49,3.83
		c3.66,12.4,27.1,22.37,55.87,23.01c28.77,0.64,52.94-8.26,57.55-20.47c0.47-1.24,0.73-2.51,0.78-3.8
		C1353.03,497.93,1327.8,485.91,1296.13,485.2z M1294.31,532.27c-26.64-0.6-47.87-10.7-47.41-22.58c0.12-3.09,1.7-6,4.44-8.6
		c7.78-7.38,24.93-12.27,44.63-11.83c19.71,0.44,36.45,6.09,43.64,13.8c2.53,2.72,3.88,5.69,3.76,8.78
		C1342.92,523.72,1320.95,532.86,1294.31,532.27z"/>
	<path class="st13" d="M1359.37,542.28l-1.09,1.24c-0.01,0.01-0.02,0.01-0.02,0.01l-4.91,5.53l-1.26,1.42l-21.55-10.22l-0.01,0
		c-0.29-0.1-0.55-0.23-0.78-0.37c-0.67-0.39-1.18-0.94-1.49-1.57c-0.16-0.32-0.27-0.65-0.33-1.01l-0.01,0
		c-0.19-1.02,0.04-2.16,0.71-3.24c0.84-1.33,2.21-2.31,3.7-2.77c0.8-0.25,1.63-0.36,2.44-0.29c0.48,0.04,0.95,0.13,1.4,0.29
		c0.08,0.03,0.16,0.06,0.23,0.09l0.29,0.14c0.04,0.01,0.07,0.03,0.1,0.05L1359.37,542.28z"/>
	<path class="st10" d="M1359.37,542.28l-1.09,1.24c-0.01,0.01-0.02,0.01-0.02,0.01l-25.94-12.24c0.8-0.25,1.63-0.36,2.44-0.29
		c0.48,0.04,0.95,0.13,1.4,0.29c0.08,0.03,0.16,0.06,0.23,0.09l0.29,0.14c0.04,0.01,0.07,0.03,0.1,0.05L1359.37,542.28z"/>
	<path class="st12" d="M1353.34,549.05l-1.26,1.42l-21.55-10.22l-0.01,0c-0.29-0.1-0.55-0.23-0.78-0.37
		c-0.67-0.39-1.18-0.94-1.49-1.57c-0.16-0.32-0.27-0.65-0.33-1.01L1353.34,549.05z"/>
	<path class="st15" d="M1427.96,570.89l-3.13,4.19l-8.05,10.77l-65.59-30.81c0,0-0.01,0-0.01-0.01l-0.02,0
		c-0.5-0.18-0.95-0.39-1.36-0.65c-1.17-0.69-2.06-1.63-2.61-2.73c-1.08-2.15-0.95-4.87,0.66-7.42c0.6-0.95,1.36-1.8,2.21-2.53
		c0,0,0.01-0.01,0.01-0.01c2.37-1.99,5.53-3.04,8.47-2.8c0.84,0.06,1.67,0.23,2.43,0.51c0.14,0.04,0.28,0.1,0.4,0.16l0.51,0.24
		c0.07,0.03,0.13,0.06,0.18,0.09c0.05,0.03,0.09,0.06,0.13,0.08L1427.96,570.89z"/>
	<path class="st16" d="M1427.96,570.89l-3.13,4.19l-7.89-1.8l-66.88-31.54c0,0,0-0.01,0.01-0.02c0,0,0.01-0.01,0.01-0.01
		c2.37-1.99,5.53-3.04,8.47-2.8c0.84,0.06,1.67,0.23,2.43,0.51c0.14,0.04,0.28,0.1,0.4,0.16l0.51,0.24
		c0.07,0.03,0.13,0.06,0.18,0.09c0.05,0.03,0.09,0.06,0.13,0.08L1427.96,570.89z"/>
	<path class="st17" d="M1431.28,581.69c-2.72,4.31-8.58,6.47-13.12,4.82l-0.01,0c-0.5-0.18-0.95-0.39-1.36-0.65
		c-1.17-0.69-2.05-1.63-2.6-2.73c-1.08-2.15-0.95-4.87,0.65-7.41c2.26-3.57,6.67-5.67,10.7-5.34c0.84,0.06,1.66,0.23,2.43,0.51
		c0.14,0.05,0.28,0.1,0.4,0.16l0.51,0.25c0.07,0.02,0.12,0.06,0.18,0.09C1432.72,573.36,1433.76,577.74,1431.28,581.69z"/>
	<path class="st18" d="M1341.83,511.97c-0.43,11.21-21.6,19.84-47.28,19.27c-25.68-0.57-46.14-10.13-45.71-21.35
		c0.43-11.21,21.6-19.84,47.28-19.27C1321.8,491.19,1342.27,500.75,1341.83,511.97z"/>
	<path class="st18" d="M1321.54,494.53c-46.31,0.77-59.7,18.12-63.57,27.92c-5.9-3.55-9.31-7.92-9.13-12.56
		c0.45-11.21,21.61-19.83,47.29-19.26C1305.56,490.84,1314.3,492.26,1321.54,494.53z"/>
	<path class="st19" d="M1339.41,511.91c-0.41,10.63-20.47,18.8-44.81,18.26c-24.34-0.54-43.72-9.6-43.31-20.24
		c0.02-0.31,0.04-0.61,0.09-0.92c1.36,9.98,20.03,18.2,43.22,18.73c23.61,0.54,43.19-7.14,44.72-17.29
		C1339.41,510.92,1339.42,511.43,1339.41,511.91z"/>
</g>
<g>
	<path class="st0" d="M688.64,788.86l-20.78-5.61c-0.41-0.11-0.78,0.22-0.56,0.51l7.6,10.18c0.75,1,1.81,1.84,3.1,2.45l119.76,56.45
		c0.62,0.29,1.4,0.29,2.03,0l11.3-5.32c0.55-0.26,0.55-0.87,0-1.13l-120.71-56.9C689.83,789.24,689.25,789.03,688.64,788.86z"/>
	<g>
		<g>
			<path class="st8" d="M686.63,780.53l-1.39,1.97l-5.29,7.48l-13.15-11.66c-0.23-0.19-0.11-0.48,0.14-0.56
				c0.11-0.09,0.23-0.11,0.37-0.09L686.63,780.53z"/>
			<g>
				<path class="st20" d="M686.63,780.53l-1.39,1.97l-4.3-0.17l-14-4.56c0.11-0.09,0.23-0.11,0.37-0.09L686.63,780.53z"/>
			</g>
		</g>
		<g>
			<path class="st21" d="M805.29,836.1l-2.04,2.74l-5.25,7.03l-116.33-54.83c0,0-0.01,0-0.01,0l-0.01,0
				c-0.33-0.12-0.62-0.26-0.89-0.42c-0.76-0.45-1.34-1.06-1.7-1.78c-0.7-1.4-0.62-3.18,0.43-4.84c0.39-0.62,0.89-1.18,1.44-1.65
				c0,0,0.01,0,0.01-0.01c1.55-1.3,3.6-1.99,5.53-1.82c0.55,0.04,1.09,0.15,1.59,0.33c0.09,0.03,0.18,0.06,0.26,0.1l0.33,0.16
				c0.05,0.02,0.08,0.04,0.12,0.06c0.03,0.02,0.06,0.04,0.09,0.05L805.29,836.1z"/>
			<path class="st22" d="M805.29,836.1l-2.04,2.74l-5.15-1.18l-117.17-55.31c0,0,0,0,0.01-0.01c0,0,0.01,0,0.01-0.01
				c1.55-1.3,3.6-1.99,5.53-1.82c0.55,0.04,1.09,0.15,1.59,0.33c0.09,0.03,0.18,0.06,0.26,0.1l0.33,0.16
				c0.05,0.02,0.08,0.04,0.12,0.06c0.03,0.02,0.06,0.04,0.09,0.05L805.29,836.1z"/>
			<path class="st9" d="M807.45,843.15c-1.77,2.81-5.6,4.22-8.56,3.15l-0.01,0c-0.32-0.12-0.62-0.26-0.89-0.42
				c-0.76-0.45-1.34-1.07-1.7-1.78c-0.71-1.4-0.62-3.18,0.43-4.84c1.47-2.33,4.35-3.7,6.98-3.48c0.55,0.04,1.08,0.15,1.59,0.33
				c0.09,0.03,0.18,0.07,0.26,0.1l0.33,0.16c0.05,0.02,0.08,0.04,0.12,0.06C808.39,837.72,809.07,840.58,807.45,843.15z"/>
			<path class="st23" d="M785.51,826.78l9.87,4.67c-0.03-0.02-0.09-0.04-0.11-0.04c-0.48-0.17-0.97-0.26-1.48-0.3
				c-1.96-0.15-4.04,0.56-5.58,1.88c-0.57,0.45-1.05,0.99-1.42,1.6c-1.02,1.67-1.11,3.44-0.4,4.84c0.26,0.54,0.65,1.02,1.14,1.41
				c0.14,0.13,0.28,0.24,0.46,0.32l-9.45-4.41c0,0-0.4-0.19-0.6-0.3c-0.74-0.45-1.34-1.06-1.68-1.77c-0.71-1.41-0.63-3.18,0.43-4.84
				c0.37-0.61,0.85-1.17,1.42-1.62c1.54-1.32,3.61-2.01,5.55-1.86c0.54,0.04,1.08,0.15,1.59,0.35
				C785.34,826.72,785.42,826.76,785.51,826.78z"/>
			<path class="st10" d="M795.64,831.56c-0.09-0.04-0.14-0.09-0.23-0.11c0.06,0.02,0.09,0.04,0.11,0.04L795.64,831.56z"/>
			<path class="st24" d="M805.4,836.17c-0.51-0.19-1.02-0.3-1.59-0.32c-1.93-0.17-3.98,0.52-5.52,1.84
				c-0.57,0.48-1.05,1.02-1.45,1.64c-1.05,1.64-1.14,3.42-0.43,4.82c0.37,0.71,0.94,1.34,1.71,1.79l-9.53-4.48
				c0,0-0.43-0.17-0.6-0.3c-0.17-0.09-0.31-0.19-0.46-0.32c-0.54-0.37-0.97-0.89-1.25-1.45c-0.71-1.41-0.6-3.18,0.43-4.84
				c0.4-0.61,0.85-1.17,1.39-1.62c1.57-1.32,3.64-2.01,5.58-1.86c0.57,0.04,1.11,0.15,1.59,0.35c0.03,0,0.09,0.02,0.11,0.04h0.03
				c0.06,0.02,0.09,0.04,0.11,0.04l0.11,0.07L805.4,836.17z"/>
		</g>
	</g>
</g>
<g>
	<g>
		<path class="st0" d="M945.97,844.78c0,5.78-12.13,10.46-27.09,10.46s-27.09-4.68-27.09-10.46c0-5.78,12.13-10.46,27.09-10.46
			S945.97,839.01,945.97,844.78z"/>
		<path class="st25" d="M891.79,827.48v10.46c0,5.78,12.13,10.46,27.09,10.46s27.09-4.68,27.09-10.46v-10.46H891.79z"/>
		<path class="st8" d="M945.97,827.48c0,5.78-12.13,10.46-27.09,10.46s-27.09-4.68-27.09-10.46s12.13-10.46,27.09-10.46
			S945.97,821.71,945.97,827.48z"/>
		<path class="st10" d="M931.07,827.48c0,2.6-5.46,4.71-12.19,4.71c-6.73,0-12.19-2.11-12.19-4.71s5.46-4.71,12.19-4.71
			C925.61,822.77,931.07,824.88,931.07,827.48z"/>
	</g>
	<g>
		<ellipse class="st0" cx="864.7" cy="869.54" rx="27.09" ry="10.46"/>
		<path class="st24" d="M837.61,852.24v10.46c0,5.78,12.13,10.46,27.09,10.46c14.96,0,27.09-4.68,27.09-10.46v-10.46H837.61z"/>
		<path class="st9" d="M891.79,852.24c0,5.78-12.13,10.46-27.09,10.46c-14.96,0-27.09-4.68-27.09-10.46
			c0-5.78,12.13-10.46,27.09-10.46C879.66,841.78,891.79,846.46,891.79,852.24z"/>
		<polygon class="st10" points="859.82,844.14 880.92,853.94 851.4,856.81 		"/>
	</g>
	<g>
		<path class="st0" d="M1000.14,820.03c0,5.78-12.13,10.46-27.09,10.46c-14.96,0-27.09-4.68-27.09-10.46
			c0-5.78,12.13-10.46,27.09-10.46C988.01,809.57,1000.14,814.25,1000.14,820.03z"/>
		<path class="st26" d="M945.97,802.72v10.46c0,5.78,12.13,10.46,27.09,10.46c14.96,0,27.09-4.68,27.09-10.46v-10.46H945.97z"/>
		<path class="st27" d="M1000.14,802.72c0,5.78-12.13,10.46-27.09,10.46c-14.96,0-27.09-4.68-27.09-10.46
			c0-5.78,12.13-10.46,27.09-10.46C988.01,792.27,1000.14,796.95,1000.14,802.72z"/>
		<polygon class="st10" points="956.34,799.77 977.44,809.57 985.74,796.76 		"/>
	</g>
</g>
<g>
	<path class="st0" d="M1351.53,711.73l-61-29.27l46.76-21.89c4.97-2.33,4.97-7.82-0.01-10.15l-240.33-112.41
		c-4.54-2.12-10.26-2.12-14.79,0.01l-301.92,141.3c-4.91,2.3-4.91,7.72,0.01,10.02l240.43,112.45c4.56,2.13,10.31,2.13,14.87-0.01
		l50.48-23.62l58.48,29.09L1351.53,711.73z"/>
	<path class="st28" d="M1106.33,304.73l-9.62-4.65l-0.04,0.02c-2.1-1.09-4.93-1.34-7.41-0.18L788.44,440.71
		c-5.47,2.56-8.8,7.1-8.8,11.98v198.95c0,2,1.34,3.61,3.24,4.6l-0.03,0.03l0.57,0.27c0,0,0,0,0,0l10.5,5.04c0,0,1.51-6.75,1.15-6.89
		c-0.03-0.01-0.14-0.05-0.29-0.1L1093.5,514.8c3.82-1.79,6.15-4.96,6.15-8.37V305.85L1106.33,304.73z"/>
	<path class="st29" d="M801.16,661.38l302.61-141.63c3.82-1.79,6.15-4.96,6.15-8.37v-202.1c0-4.06-5.85-6.54-10.4-4.41
		L798.71,445.66c-5.47,2.56-8.8,7.1-8.8,11.98V656.6C789.9,660.99,796.24,663.68,801.16,661.38z"/>
	<path class="st30" d="M807.71,649.8l289.71-135.59c3.66-1.71,5.89-4.74,5.89-8.01V324c0-3.88-5.6-6.26-9.95-4.23l-288,134.79
		c-5.24,2.45-8.43,6.79-8.43,11.47v179.18C796.93,649.43,803,652,807.71,649.8z"/>
	<path class="st28" d="M1340.91,638.75l0.05-0.02V628.1h-17.13l-206.51-96.42c-4.54-2.12-10.26-2.12-14.79,0.01L819.35,664.22
		l-22.42,2.43v10.95l0.06,0.03c-0.17,2.05,1.01,4.16,3.63,5.38l220.07,102.74c4.56,2.13,10.31,2.13,14.87-0.01l301.74-141.22
		C1340.08,643.22,1341.24,640.93,1340.91,638.75z"/>
	<path class="st29" d="M1035.56,774.39l301.74-141.22c4.97-2.33,4.97-7.82-0.01-10.15l-219.97-102.7
		c-4.54-2.12-10.26-2.12-14.79,0.01l-301.92,141.3c-4.91,2.3-4.91,7.72,0.01,10.02l220.07,102.74
		C1025.25,776.53,1031,776.52,1035.56,774.39z"/>
	<path class="st31" d="M978.01,724.92l253.36-118.61c4.43-2.07,4.42-6.96-0.01-9.03l-125.99-59.86c-4.04-1.89-9.13-1.88-13.16,0.01
		L838.69,656.11c-4.37,2.05-4.37,6.87,0.01,8.92l126.08,59.9C968.84,726.82,973.96,726.82,978.01,724.92z"/>
	<path class="st13" d="M1126.05,725.16l105.55-49.4c1.74-0.81,1.74-2.74,0-3.55l-61.12-29.07c-1.59-0.74-3.59-0.74-5.17,0
		l-105.61,49.43c-1.72,0.8-1.72,2.7,0,3.5l61.15,29.08C1122.45,725.91,1124.46,725.91,1126.05,725.16z"/>
	<g>
		<path class="st28" d="M861.35,649.9c-0.48-0.22-1.08-0.22-1.56,0l-13.17,6.15l-1.48-0.37v1.41l0,0c0,0.2,0.13,0.4,0.39,0.52
			l14.93,7.09c0.48,0.22,1.09,0.22,1.57,0l14.24-6.65c0.26-0.12,0.38-0.32,0.39-0.52l0,0v-1.4L861.35,649.9z"/>
		<path class="st28" d="M882.46,640c-0.48-0.22-1.08-0.22-1.56,0l-13.17,6.15l-1.48-0.37v1.41l0,0c0,0.2,0.13,0.4,0.39,0.52
			l14.93,7.09c0.48,0.22,1.09,0.22,1.57,0l14.24-6.65c0.26-0.12,0.38-0.32,0.39-0.52l0,0v-1.4L882.46,640z"/>
		<path class="st28" d="M903.57,630.11c-0.48-0.22-1.08-0.22-1.56,0l-13.17,6.15l-1.48-0.37v1.41l0,0c0,0.2,0.13,0.4,0.39,0.52
			l14.93,7.09c0.48,0.22,1.09,0.22,1.57,0l14.24-6.65c0.26-0.12,0.38-0.32,0.39-0.52l0,0v-1.4L903.57,630.11z"/>
		<path class="st28" d="M924.67,620.22c-0.48-0.22-1.08-0.22-1.56,0l-13.17,6.15l-1.48-0.37v1.41l0,0c0,0.2,0.13,0.4,0.39,0.52
			l14.93,7.09c0.48,0.22,1.09,0.22,1.57,0l14.24-6.65c0.26-0.12,0.38-0.32,0.39-0.52l0,0v-1.4L924.67,620.22z"/>
		<path class="st28" d="M945.78,610.32c-0.48-0.22-1.08-0.22-1.56,0l-13.17,6.15l-1.48-0.37v1.41l0,0c0,0.2,0.13,0.4,0.39,0.52
			l14.93,7.09c0.48,0.22,1.09,0.22,1.57,0l14.24-6.65c0.26-0.12,0.38-0.32,0.39-0.52l0,0v-1.4L945.78,610.32z"/>
		<path class="st28" d="M966.89,600.43c-0.48-0.22-1.08-0.22-1.56,0l-13.17,6.15l-1.48-0.37v1.41l0,0c0,0.2,0.13,0.4,0.39,0.52
			l14.93,7.09c0.48,0.22,1.09,0.22,1.57,0l14.24-6.65c0.26-0.12,0.38-0.32,0.39-0.52l0,0v-1.4L966.89,600.43z"/>
		<path class="st28" d="M988,590.54c-0.48-0.22-1.08-0.22-1.56,0l-13.17,6.15l-1.48-0.37v1.41l0,0c0,0.2,0.13,0.4,0.39,0.52
			l14.93,7.09c0.48,0.22,1.09,0.22,1.57,0l14.24-6.65c0.26-0.12,0.38-0.32,0.39-0.52l0,0v-1.4L988,590.54z"/>
		<path class="st28" d="M988.67,603.95l14.24-6.65c0.52-0.25,0.52-0.82,0-1.07L988,589.14c-0.48-0.22-1.08-0.22-1.56,0l-14.26,6.66
			c-0.52,0.24-0.52,0.81,0,1.06l14.93,7.09C987.59,604.17,988.19,604.17,988.67,603.95z"/>
		<path class="st28" d="M1009.1,580.65c-0.48-0.22-1.08-0.22-1.56,0l-13.17,6.15l-1.48-0.37v1.41l0,0c0,0.2,0.13,0.4,0.39,0.52
			l14.93,7.09c0.48,0.22,1.09,0.22,1.57,0l14.24-6.65c0.26-0.12,0.38-0.32,0.39-0.52l0,0v-1.4L1009.1,580.65z"/>
		<path class="st28" d="M1030.21,570.75c-0.48-0.22-1.08-0.22-1.56,0l-13.17,6.15l-1.48-0.37v1.41l0,0c0,0.2,0.13,0.4,0.39,0.52
			l14.93,7.09c0.48,0.22,1.09,0.22,1.57,0l14.24-6.65c0.26-0.12,0.38-0.32,0.39-0.52l0,0v-1.4L1030.21,570.75z"/>
		<path class="st28" d="M1051.32,560.86c-0.48-0.22-1.08-0.22-1.56,0l-13.17,6.15l-1.48-0.37v1.41l0,0c0,0.2,0.13,0.4,0.39,0.52
			l14.93,7.09c0.48,0.22,1.09,0.22,1.57,0l14.24-6.65c0.26-0.12,0.38-0.32,0.39-0.52l0,0v-1.4L1051.32,560.86z"/>
		<path class="st28" d="M1072.43,550.97c-0.48-0.22-1.08-0.22-1.56,0l-13.17,6.15l-1.48-0.37v1.41l0,0c0,0.2,0.13,0.4,0.39,0.52
			l14.93,7.09c0.48,0.22,1.09,0.22,1.57,0l14.24-6.65c0.26-0.12,0.38-0.32,0.39-0.52l0,0v-1.4L1072.43,550.97z"/>
		<path class="st28" d="M1093.54,541.08c-0.48-0.22-1.08-0.22-1.56,0l-13.17,6.15l-1.48-0.37v1.41l0,0c0,0.2,0.13,0.4,0.39,0.52
			l14.93,7.09c0.48,0.22,1.09,0.22,1.57,0l14.24-6.65c0.26-0.12,0.38-0.32,0.39-0.52l0,0v-1.4L1093.54,541.08z"/>
		<path class="st28" d="M884.88,661.19c-0.48-0.22-1.08-0.22-1.56,0l-13.17,6.15l-1.48-0.37v1.41l0,0c0,0.2,0.13,0.4,0.39,0.52
			l14.93,7.09c0.48,0.22,1.09,0.22,1.57,0l14.24-6.65c0.26-0.12,0.38-0.32,0.39-0.52l0,0v-1.4L884.88,661.19z"/>
		<path class="st28" d="M905.98,651.3c-0.48-0.22-1.08-0.22-1.56,0l-13.17,6.15l-1.48-0.37v1.41l0,0c0,0.2,0.13,0.4,0.39,0.52
			l14.93,7.09c0.48,0.22,1.09,0.22,1.57,0l14.24-6.65c0.26-0.12,0.38-0.32,0.39-0.52l0,0v-1.4L905.98,651.3z"/>
		<path class="st28" d="M927.09,641.41c-0.48-0.22-1.08-0.22-1.56,0l-13.17,6.15l-1.48-0.37v1.41l0,0c0,0.2,0.13,0.4,0.39,0.52
			l14.93,7.09c0.48,0.22,1.09,0.22,1.57,0l14.24-6.65c0.26-0.12,0.38-0.32,0.39-0.52l0,0v-1.4L927.09,641.41z"/>
		<path class="st28" d="M948.2,631.51c-0.48-0.22-1.08-0.22-1.56,0l-13.17,6.15l-1.48-0.37v1.41l0,0c0,0.2,0.13,0.4,0.39,0.52
			l14.93,7.09c0.48,0.22,1.09,0.22,1.57,0l14.24-6.65c0.26-0.12,0.38-0.32,0.39-0.52l0,0v-1.4L948.2,631.51z"/>
		<path class="st28" d="M969.31,621.62c-0.48-0.22-1.08-0.22-1.56,0l-13.17,6.15l-1.48-0.37v1.41l0,0c0,0.2,0.13,0.4,0.39,0.52
			l14.93,7.09c0.48,0.22,1.09,0.22,1.57,0l14.24-6.65c0.26-0.12,0.38-0.32,0.39-0.52l0,0v-1.4L969.31,621.62z"/>
		<path class="st28" d="M990.42,611.73c-0.48-0.22-1.08-0.22-1.56,0l-13.17,6.15l-1.48-0.37v1.41l0,0c0,0.2,0.13,0.4,0.39,0.52
			l14.93,7.09c0.48,0.22,1.09,0.22,1.57,0l14.24-6.65c0.26-0.12,0.38-0.32,0.39-0.52l0,0v-1.4L990.42,611.73z"/>
		<path class="st28" d="M1011.52,601.84c-0.48-0.22-1.08-0.22-1.56,0l-13.17,6.15l-1.48-0.37v1.41l0,0c0,0.2,0.13,0.4,0.39,0.52
			l14.93,7.09c0.48,0.22,1.09,0.22,1.57,0l14.24-6.65c0.26-0.12,0.38-0.32,0.39-0.52l0,0v-1.4L1011.52,601.84z"/>
		<path class="st28" d="M1032.63,591.94c-0.48-0.22-1.08-0.22-1.56,0l-13.17,6.15l-1.48-0.37v1.41l0,0c0,0.2,0.13,0.4,0.39,0.52
			l14.93,7.09c0.48,0.22,1.09,0.22,1.57,0l14.24-6.65c0.26-0.12,0.38-0.32,0.39-0.52l0,0v-1.4L1032.63,591.94z"/>
		<path class="st28" d="M1053.74,582.05c-0.48-0.22-1.08-0.22-1.56,0l-13.17,6.15l-1.48-0.37v1.41l0,0c0,0.2,0.13,0.4,0.39,0.52
			l14.93,7.09c0.48,0.22,1.09,0.22,1.57,0l14.24-6.65c0.26-0.12,0.38-0.32,0.39-0.52l0,0v-1.4L1053.74,582.05z"/>
		<path class="st28" d="M1074.85,572.16c-0.48-0.22-1.08-0.22-1.56,0l-13.17,6.15l-1.48-0.37v1.41l0,0c0,0.2,0.13,0.4,0.39,0.52
			l14.93,7.09c0.48,0.22,1.09,0.22,1.57,0l14.24-6.65c0.26-0.12,0.38-0.32,0.39-0.52l0,0v-1.4L1074.85,572.16z"/>
		<path class="st28" d="M1095.96,562.26c-0.48-0.22-1.08-0.22-1.56,0l-13.17,6.15l-1.48-0.37v1.41l0,0c0,0.2,0.13,0.4,0.39,0.52
			l14.93,7.09c0.48,0.22,1.09,0.22,1.57,0l14.24-6.65c0.26-0.12,0.38-0.32,0.39-0.52l0,0v-1.4L1095.96,562.26z"/>
		<path class="st28" d="M1117.06,552.37c-0.48-0.22-1.08-0.22-1.56,0l-13.17,6.15l-1.48-0.37v1.41l0,0c0,0.2,0.13,0.4,0.39,0.52
			l14.93,7.09c0.48,0.22,1.09,0.22,1.57,0l14.24-6.65c0.26-0.12,0.38-0.32,0.39-0.52l0,0v-1.4L1117.06,552.37z"/>
		<path class="st28" d="M908.4,672.49c-0.48-0.22-1.08-0.22-1.56,0l-13.17,6.15l-1.48-0.37v1.41l0,0c0,0.2,0.13,0.4,0.39,0.52
			l14.93,7.09c0.48,0.22,1.09,0.22,1.57,0l14.24-6.65c0.26-0.12,0.38-0.32,0.39-0.52l0,0v-1.4L908.4,672.49z"/>
		<path class="st28" d="M929.51,662.59c-0.48-0.22-1.08-0.22-1.56,0l-13.17,6.15l-1.48-0.37v1.41l0,0c0,0.2,0.13,0.4,0.39,0.52
			l14.93,7.09c0.48,0.22,1.09,0.22,1.57,0l14.24-6.65c0.26-0.12,0.38-0.32,0.39-0.52l0,0v-1.4L929.51,662.59z"/>
		<path class="st28" d="M950.62,652.7c-0.48-0.22-1.08-0.22-1.56,0l-13.17,6.15l-1.48-0.37v1.41l0,0c0,0.2,0.13,0.4,0.39,0.52
			l14.93,7.09c0.48,0.22,1.09,0.22,1.57,0l14.24-6.65c0.26-0.12,0.38-0.32,0.39-0.52l0,0v-1.4L950.62,652.7z"/>
		<path class="st28" d="M971.73,642.81c-0.48-0.22-1.08-0.22-1.56,0L957,648.96l-1.48-0.37v1.41l0,0c0,0.2,0.13,0.4,0.39,0.52
			l14.93,7.09c0.48,0.22,1.09,0.22,1.57,0l14.24-6.65c0.26-0.12,0.38-0.32,0.39-0.52l0,0v-1.4L971.73,642.81z"/>
		<path class="st28" d="M992.84,632.92c-0.48-0.22-1.08-0.22-1.56,0l-13.17,6.15l-1.48-0.37v1.41l0,0c0,0.2,0.13,0.4,0.39,0.52
			l14.93,7.09c0.48,0.22,1.09,0.22,1.57,0l14.24-6.65c0.26-0.12,0.38-0.32,0.39-0.52l0,0v-1.4L992.84,632.92z"/>
		<path class="st28" d="M1013.94,623.02c-0.48-0.22-1.08-0.22-1.56,0l-13.17,6.15l-1.48-0.37v1.41l0,0c0,0.2,0.13,0.4,0.39,0.52
			l14.93,7.09c0.48,0.22,1.09,0.22,1.57,0l14.24-6.65c0.26-0.12,0.38-0.32,0.39-0.52l0,0v-1.4L1013.94,623.02z"/>
		<path class="st28" d="M1035.05,613.13c-0.48-0.22-1.08-0.22-1.56,0l-13.17,6.15l-1.48-0.37v1.41l0,0c0,0.2,0.13,0.4,0.39,0.52
			l14.93,7.09c0.48,0.22,1.09,0.22,1.57,0l14.24-6.65c0.26-0.12,0.38-0.32,0.39-0.52l0,0v-1.4L1035.05,613.13z"/>
		<path class="st28" d="M1056.16,603.24c-0.48-0.22-1.08-0.22-1.56,0l-13.17,6.15l-1.48-0.37v1.41l0,0c0,0.2,0.13,0.4,0.39,0.52
			l14.93,7.09c0.48,0.22,1.09,0.22,1.57,0l14.24-6.65c0.26-0.12,0.38-0.32,0.39-0.52l0,0v-1.4L1056.16,603.24z"/>
		<path class="st28" d="M1077.27,593.35c-0.48-0.22-1.08-0.22-1.56,0l-13.17,6.15l-1.48-0.37v1.41l0,0c0,0.2,0.13,0.4,0.39,0.52
			l14.93,7.09c0.48,0.22,1.09,0.22,1.57,0l14.24-6.65c0.26-0.12,0.38-0.32,0.39-0.52l0,0v-1.4L1077.27,593.35z"/>
		<path class="st28" d="M1098.38,583.45c-0.48-0.22-1.08-0.22-1.56,0l-13.17,6.15l-1.48-0.37v1.41l0,0c0,0.2,0.13,0.4,0.39,0.52
			l14.93,7.09c0.48,0.22,1.09,0.22,1.57,0l14.24-6.65c0.26-0.12,0.38-0.32,0.39-0.52l0,0v-1.4L1098.38,583.45z"/>
		<path class="st28" d="M1119.48,573.56c-0.48-0.22-1.08-0.22-1.56,0l-13.17,6.15l-1.48-0.37v1.41l0,0c0,0.2,0.13,0.4,0.39,0.52
			l14.93,7.09c0.48,0.22,1.09,0.22,1.57,0l14.24-6.65c0.26-0.12,0.38-0.32,0.39-0.52l0,0v-1.4L1119.48,573.56z"/>
		<path class="st28" d="M1140.59,563.67c-0.48-0.22-1.08-0.22-1.56,0l-13.17,6.15l-1.48-0.37v1.41l0,0c0,0.2,0.13,0.4,0.39,0.52
			l14.93,7.09c0.48,0.22,1.09,0.22,1.57,0l14.24-6.65c0.26-0.12,0.38-0.32,0.39-0.52l0,0v-1.4L1140.59,563.67z"/>
		<path class="st28" d="M931.93,683.78c-0.48-0.22-1.08-0.22-1.56,0l-13.17,6.15l-1.48-0.37v1.41l0,0c0,0.2,0.13,0.4,0.39,0.52
			l14.93,7.09c0.48,0.22,1.09,0.22,1.57,0l14.24-6.65c0.26-0.12,0.38-0.32,0.39-0.52l0,0v-1.4L931.93,683.78z"/>
		<path class="st28" d="M953.04,673.89c-0.48-0.22-1.08-0.22-1.56,0l-13.17,6.15l-1.48-0.37v1.41l0,0c0,0.2,0.13,0.4,0.39,0.52
			l14.93,7.09c0.48,0.22,1.09,0.22,1.57,0l14.24-6.65c0.26-0.12,0.38-0.32,0.39-0.52l0,0v-1.4L953.04,673.89z"/>
		<path class="st28" d="M974.15,664c-0.48-0.22-1.08-0.22-1.56,0l-13.17,6.15l-1.48-0.37v1.41l0,0c0,0.2,0.13,0.4,0.39,0.52
			l14.93,7.09c0.48,0.22,1.09,0.22,1.57,0l14.24-6.65c0.26-0.12,0.38-0.32,0.39-0.52l0,0v-1.4L974.15,664z"/>
		<path class="st28" d="M995.26,654.11c-0.48-0.22-1.08-0.22-1.56,0l-13.17,6.15l-1.48-0.37v1.41l0,0c0,0.2,0.13,0.4,0.39,0.52
			l14.93,7.09c0.48,0.22,1.09,0.22,1.57,0l14.24-6.65c0.26-0.12,0.38-0.32,0.39-0.52l0,0v-1.4L995.26,654.11z"/>
		<path class="st28" d="M1016.36,644.21c-0.48-0.22-1.08-0.22-1.56,0l-13.17,6.15l-1.48-0.37v1.41l0,0c0,0.2,0.13,0.4,0.39,0.52
			l14.93,7.09c0.48,0.22,1.09,0.22,1.57,0l14.24-6.65c0.26-0.12,0.38-0.32,0.39-0.52l0,0v-1.4L1016.36,644.21z"/>
		<path class="st28" d="M1037.47,634.32c-0.48-0.22-1.08-0.22-1.56,0l-13.17,6.15l-1.48-0.37v1.41l0,0c0,0.2,0.13,0.4,0.39,0.52
			l14.93,7.09c0.48,0.22,1.09,0.22,1.57,0l14.24-6.65c0.26-0.12,0.38-0.32,0.39-0.52l0,0v-1.4L1037.47,634.32z"/>
		<path class="st28" d="M1058.58,624.43c-0.48-0.22-1.08-0.22-1.56,0l-13.17,6.15l-1.48-0.37v1.41l0,0c0,0.2,0.13,0.4,0.39,0.52
			l14.93,7.09c0.48,0.22,1.09,0.22,1.57,0l14.24-6.65c0.26-0.12,0.38-0.32,0.39-0.52l0,0v-1.4L1058.58,624.43z"/>
		<path class="st28" d="M1079.69,614.53c-0.48-0.22-1.08-0.22-1.56,0l-13.17,6.15l-1.48-0.37v1.41l0,0c0,0.2,0.13,0.4,0.39,0.52
			l14.93,7.09c0.48,0.22,1.09,0.22,1.57,0l14.24-6.65c0.26-0.12,0.38-0.32,0.39-0.52l0,0v-1.4L1079.69,614.53z"/>
		<path class="st28" d="M1100.79,604.64c-0.48-0.22-1.08-0.22-1.56,0l-13.17,6.15l-1.48-0.37v1.41l0,0c0,0.2,0.13,0.4,0.39,0.52
			l14.93,7.09c0.48,0.22,1.09,0.22,1.57,0l14.24-6.65c0.26-0.12,0.38-0.32,0.39-0.52l0,0v-1.4L1100.79,604.64z"/>
		<path class="st28" d="M1121.9,594.75c-0.48-0.22-1.08-0.22-1.56,0l-13.17,6.15l-1.48-0.37v1.41l0,0c0,0.2,0.13,0.4,0.39,0.52
			l14.93,7.09c0.48,0.22,1.09,0.22,1.57,0l14.24-6.65c0.26-0.12,0.38-0.32,0.39-0.52l0,0v-1.4L1121.9,594.75z"/>
		<path class="st28" d="M1143.01,584.86c-0.48-0.22-1.08-0.22-1.56,0l-13.17,6.15l-1.48-0.37v1.41l0,0c0,0.2,0.13,0.4,0.39,0.52
			l14.93,7.09c0.48,0.22,1.09,0.22,1.57,0l14.24-6.65c0.26-0.12,0.38-0.32,0.39-0.52l0,0v-1.4L1143.01,584.86z"/>
		<path class="st28" d="M1164.12,574.96c-0.48-0.22-1.08-0.22-1.56,0l-13.17,6.15l-1.48-0.37v1.41l0,0c0,0.2,0.13,0.4,0.39,0.52
			l14.93,7.09c0.48,0.22,1.09,0.22,1.57,0l14.24-6.65c0.26-0.12,0.38-0.32,0.39-0.52l0,0v-1.4L1164.12,574.96z"/>
		<path class="st28" d="M955.46,695.08c-0.48-0.22-1.08-0.22-1.56,0l-13.17,6.15l-1.48-0.37v1.41l0,0c0,0.2,0.13,0.4,0.39,0.52
			l14.93,7.09c0.48,0.22,1.09,0.22,1.57,0l14.24-6.65c0.26-0.12,0.38-0.32,0.39-0.52l0,0v-1.4L955.46,695.08z"/>
		<path class="st28" d="M976.57,685.19c-0.48-0.22-1.08-0.22-1.56,0l-13.17,6.15l-1.48-0.37v1.41l0,0c0,0.2,0.13,0.4,0.39,0.52
			l14.93,7.09c0.48,0.22,1.09,0.22,1.57,0l14.24-6.65c0.26-0.12,0.38-0.32,0.39-0.52l0,0v-1.4L976.57,685.19z"/>
		<path class="st28" d="M997.67,675.29c-0.48-0.22-1.08-0.22-1.56,0l-13.17,6.15l-1.48-0.37v1.41l0,0c0,0.2,0.13,0.4,0.39,0.52
			l14.93,7.09c0.48,0.22,1.09,0.22,1.57,0l14.24-6.65c0.26-0.12,0.38-0.32,0.39-0.52l0,0v-1.4L997.67,675.29z"/>
		<path class="st28" d="M1018.78,665.4c-0.48-0.22-1.08-0.22-1.56,0l-13.17,6.15l-1.48-0.37v1.41l0,0c0,0.2,0.13,0.4,0.39,0.52
			l14.93,7.09c0.48,0.22,1.09,0.22,1.57,0l14.24-6.65c0.26-0.12,0.38-0.32,0.39-0.52l0,0v-1.4L1018.78,665.4z"/>
		<path class="st28" d="M1039.89,655.51c-0.48-0.22-1.08-0.22-1.56,0l-13.17,6.15l-1.48-0.37v1.41l0,0c0,0.2,0.13,0.4,0.39,0.52
			l14.93,7.09c0.48,0.22,1.09,0.22,1.57,0l14.24-6.65c0.26-0.12,0.38-0.32,0.39-0.52l0,0v-1.4L1039.89,655.51z"/>
		<path class="st28" d="M1061,645.62c-0.48-0.22-1.08-0.22-1.56,0l-13.17,6.15l-1.48-0.37v1.41l0,0c0,0.2,0.13,0.4,0.39,0.52
			l14.93,7.09c0.48,0.22,1.09,0.22,1.57,0l14.24-6.65c0.26-0.12,0.38-0.32,0.39-0.52l0,0v-1.4L1061,645.62z"/>
		<path class="st28" d="M1082.11,635.72c-0.48-0.22-1.08-0.22-1.56,0l-13.17,6.15l-1.48-0.37v1.41l0,0c0,0.2,0.13,0.4,0.39,0.52
			l14.93,7.09c0.48,0.22,1.09,0.22,1.57,0l14.24-6.65c0.26-0.12,0.38-0.32,0.39-0.52l0,0v-1.4L1082.11,635.72z"/>
		<path class="st28" d="M1103.21,625.83c-0.48-0.22-1.08-0.22-1.56,0l-13.17,6.15l-1.48-0.37v1.41l0,0c0,0.2,0.13,0.4,0.39,0.52
			l14.93,7.09c0.48,0.22,1.09,0.22,1.57,0l14.24-6.65c0.26-0.12,0.38-0.32,0.39-0.52l0,0v-1.4L1103.21,625.83z"/>
		<path class="st28" d="M1124.32,615.94c-0.48-0.22-1.08-0.22-1.56,0l-13.17,6.15l-1.48-0.37v1.41l0,0c0,0.2,0.13,0.4,0.39,0.52
			l14.93,7.09c0.48,0.22,1.09,0.22,1.57,0l14.24-6.65c0.26-0.12,0.38-0.32,0.39-0.52l0,0v-1.4L1124.32,615.94z"/>
		<path class="st28" d="M1145.43,606.04c-0.48-0.22-1.08-0.22-1.56,0l-13.17,6.15l-1.48-0.37v1.41l0,0c0,0.2,0.13,0.4,0.39,0.52
			l14.93,7.09c0.48,0.22,1.09,0.22,1.57,0l14.24-6.65c0.26-0.12,0.38-0.32,0.39-0.52l0,0v-1.4L1145.43,606.04z"/>
		<path class="st28" d="M1166.54,596.15c-0.48-0.22-1.08-0.22-1.56,0l-13.17,6.15l-1.48-0.37v1.41l0,0c0,0.2,0.13,0.4,0.39,0.52
			l14.93,7.09c0.48,0.22,1.09,0.22,1.57,0l14.24-6.65c0.26-0.12,0.38-0.32,0.39-0.52l0,0v-1.4L1166.54,596.15z"/>
		<path class="st28" d="M1187.65,586.26c-0.48-0.22-1.08-0.22-1.56,0l-13.17,6.15l-1.48-0.37v1.41l0,0c0,0.2,0.13,0.4,0.39,0.52
			l14.93,7.09c0.48,0.22,1.09,0.22,1.57,0l14.24-6.65c0.26-0.12,0.38-0.32,0.39-0.52l0,0v-1.4L1187.65,586.26z"/>
		<path class="st28" d="M978.99,706.38c-0.48-0.22-1.08-0.22-1.56,0l-13.17,6.15l-1.48-0.37v1.41l0,0c0,0.2,0.13,0.4,0.39,0.52
			l14.93,7.09c0.48,0.22,1.09,0.22,1.57,0l14.24-6.65c0.26-0.12,0.38-0.32,0.39-0.52l0,0v-1.4L978.99,706.38z"/>
		<path class="st28" d="M1000.09,696.48c-0.48-0.22-1.08-0.22-1.56,0l-13.17,6.15l-1.48-0.37v1.41l0,0c0,0.2,0.13,0.4,0.39,0.52
			l14.93,7.09c0.48,0.22,1.09,0.22,1.57,0l14.24-6.65c0.26-0.12,0.38-0.32,0.39-0.52l0,0v-1.4L1000.09,696.48z"/>
		<path class="st28" d="M1021.2,686.59c-0.48-0.22-1.08-0.22-1.56,0l-13.17,6.15l-1.48-0.37v1.41l0,0c0,0.2,0.13,0.4,0.39,0.52
			l14.93,7.09c0.48,0.22,1.09,0.22,1.57,0l14.24-6.65c0.26-0.12,0.38-0.32,0.39-0.52l0,0v-1.4L1021.2,686.59z"/>
		<path class="st28" d="M1126.74,637.13c-0.48-0.22-1.08-0.22-1.56,0l-13.17,6.15l-1.48-0.37v1.41l0,0c0,0.2,0.13,0.4,0.39,0.52
			l14.93,7.09c0.48,0.22,1.09,0.22,1.57,0l14.24-6.65c0.26-0.12,0.38-0.32,0.39-0.52l0,0v-1.4L1126.74,637.13z"/>
		<path class="st28" d="M1147.85,627.23c-0.48-0.22-1.08-0.22-1.56,0l-13.17,6.15l-1.48-0.37v1.41l0,0c0,0.2,0.13,0.4,0.39,0.52
			l14.93,7.09c0.48,0.22,1.09,0.22,1.57,0l14.24-6.65c0.26-0.12,0.38-0.32,0.39-0.52l0,0v-1.4L1147.85,627.23z"/>
		<path class="st28" d="M1168.96,617.34c-0.48-0.22-1.08-0.22-1.56,0l-13.17,6.15l-1.48-0.37v1.41l0,0c0,0.2,0.13,0.4,0.39,0.52
			l14.93,7.09c0.48,0.22,1.09,0.22,1.57,0l14.24-6.65c0.26-0.12,0.38-0.32,0.39-0.52l0,0v-1.4L1168.96,617.34z"/>
		<path class="st28" d="M1190.07,607.45c-0.48-0.22-1.08-0.22-1.56,0l-13.17,6.15l-1.48-0.37v1.41l0,0c0,0.2,0.13,0.4,0.39,0.52
			l6.07,2.88c0.48,0.22,1.09,0.22,1.57,0l14.24-6.65c0.26-0.12,0.38-0.32,0.39-0.52l0,0v-1.4L1190.07,607.45z"/>
		<path class="st28" d="M1198.94,611.66c-0.48-0.22-1.08-0.22-1.56,0l-13.17,6.15l-1.48-0.37v1.41l0,0c0,0.2,0.13,0.4,0.39,0.52
			l6.07,2.88c0.48,0.22,1.09,0.22,1.57,0l14.24-6.65c0.26-0.12,0.38-0.32,0.39-0.52l0,0v-1.4L1198.94,611.66z"/>
		<path class="st28" d="M1211.17,597.56c-0.48-0.22-1.08-0.22-1.56,0l-13.17,6.15l-1.48-0.37v1.41l0,0c0,0.2,0.13,0.4,0.39,0.52
			l14.93,7.09c0.48,0.22,1.09,0.22,1.57,0l14.24-6.65c0.26-0.12,0.38-0.32,0.39-0.52l0,0v-1.4L1211.17,597.56z"/>
		<path class="st28" d="M1105.63,647.02c-0.48-0.22-1.08-0.22-1.56,0l-13.17,6.15l-1.48-0.37v1.41l0,0c0,0.2,0.13,0.4,0.39,0.52
			l7.23,3.44l-45.23,22.4l-9.51-3.88c-0.48-0.22-1.08-0.22-1.56,0l-13.17,6.15l-1.48-0.37v1.41l0,0c0,0.2,0.13,0.4,0.39,0.52
			l14.93,7.09c0.48,0.22,1.09,0.22,1.57,0l14.24-6.65c0.01,0,0.01-0.01,0.02-0.01l56.44-26.46l0,0l6.87-3.21
			c0.26-0.12,0.38-0.32,0.39-0.52l0,0v-1.4L1105.63,647.02z"/>
	</g>
	<g>
		<path class="st10" d="M862.03,663.3l14.24-6.65c0.52-0.25,0.52-0.82,0-1.07l-14.92-7.09c-0.48-0.22-1.08-0.22-1.56,0l-14.26,6.66
			c-0.52,0.24-0.52,0.81,0,1.06l14.93,7.09C860.94,663.53,861.55,663.53,862.03,663.3z"/>
		<path class="st10" d="M883.14,653.41l14.24-6.65c0.52-0.25,0.52-0.82,0-1.07l-14.92-7.09c-0.48-0.22-1.08-0.22-1.56,0l-14.26,6.66
			c-0.52,0.24-0.52,0.81,0,1.06l14.93,7.09C882.05,653.63,882.65,653.63,883.14,653.41z"/>
		<path class="st10" d="M904.24,643.52l14.24-6.65c0.52-0.25,0.52-0.82,0-1.07l-14.92-7.09c-0.48-0.22-1.08-0.22-1.56,0l-14.26,6.66
			c-0.52,0.24-0.52,0.81,0,1.06l14.93,7.09C903.16,643.74,903.76,643.74,904.24,643.52z"/>
		<path class="st10" d="M925.35,633.62l14.24-6.65c0.52-0.25,0.52-0.82,0-1.07l-14.92-7.09c-0.48-0.22-1.08-0.22-1.56,0l-14.26,6.66
			c-0.52,0.24-0.52,0.81,0,1.06l14.93,7.09C924.26,633.85,924.87,633.85,925.35,633.62z"/>
		<path class="st10" d="M946.46,623.73l14.24-6.65c0.52-0.25,0.52-0.82,0-1.07l-14.92-7.09c-0.48-0.22-1.08-0.22-1.56,0l-14.26,6.66
			c-0.52,0.24-0.52,0.81,0,1.06l14.93,7.09C945.37,623.96,945.98,623.96,946.46,623.73z"/>
		<path class="st10" d="M967.57,613.84l14.24-6.65c0.52-0.25,0.52-0.82,0-1.07l-14.92-7.09c-0.48-0.22-1.08-0.22-1.56,0l-14.26,6.66
			c-0.52,0.24-0.52,0.81,0,1.06l14.93,7.09C966.48,614.06,967.09,614.06,967.57,613.84z"/>
		<path class="st10" d="M1009.78,594.05l14.24-6.65c0.52-0.25,0.52-0.82,0-1.07l-14.92-7.09c-0.48-0.22-1.08-0.22-1.56,0
			l-14.26,6.66c-0.52,0.24-0.52,0.81,0,1.06l14.93,7.09C1008.7,594.28,1009.3,594.28,1009.78,594.05z"/>
		<path class="st10" d="M1030.89,584.16l14.24-6.65c0.52-0.25,0.52-0.82,0-1.07l-14.92-7.09c-0.48-0.22-1.08-0.22-1.56,0
			l-14.26,6.66c-0.52,0.24-0.52,0.81,0,1.06l14.93,7.09C1029.8,584.39,1030.41,584.39,1030.89,584.16z"/>
		<path class="st10" d="M1052,574.27l14.24-6.65c0.52-0.25,0.52-0.82,0-1.07l-14.92-7.09c-0.48-0.22-1.08-0.22-1.56,0l-14.26,6.66
			c-0.52,0.24-0.52,0.81,0,1.06l14.93,7.09C1050.91,574.49,1051.52,574.49,1052,574.27z"/>
		<path class="st10" d="M1073.11,564.38l14.24-6.65c0.52-0.25,0.52-0.82,0-1.07l-14.92-7.09c-0.48-0.22-1.08-0.22-1.56,0
			l-14.26,6.66c-0.52,0.24-0.52,0.81,0,1.06l14.93,7.09C1072.02,564.6,1072.63,564.6,1073.11,564.38z"/>
		<path class="st10" d="M1094.21,554.48l14.24-6.65c0.52-0.25,0.52-0.82,0-1.07l-14.92-7.09c-0.48-0.22-1.08-0.22-1.56,0
			l-14.26,6.66c-0.52,0.24-0.52,0.81,0,1.06l14.93,7.09C1093.13,554.71,1093.73,554.71,1094.21,554.48z"/>
		<path class="st10" d="M885.55,674.6l14.24-6.65c0.52-0.25,0.52-0.82,0-1.07l-14.92-7.09c-0.48-0.22-1.08-0.22-1.56,0l-14.26,6.66
			c-0.52,0.24-0.52,0.81,0,1.06l14.93,7.09C884.47,674.82,885.07,674.82,885.55,674.6z"/>
		<path class="st10" d="M906.66,664.71l14.24-6.65c0.52-0.25,0.52-0.82,0-1.07l-14.92-7.09c-0.48-0.22-1.08-0.22-1.56,0l-14.26,6.66
			c-0.52,0.24-0.52,0.81,0,1.06l14.93,7.09C905.58,664.93,906.18,664.93,906.66,664.71z"/>
		<path class="st10" d="M927.77,654.81l14.24-6.65c0.52-0.25,0.52-0.82,0-1.07L927.09,640c-0.48-0.22-1.08-0.22-1.56,0l-14.26,6.66
			c-0.52,0.24-0.52,0.81,0,1.06l14.93,7.09C926.68,655.04,927.29,655.04,927.77,654.81z"/>
		<path class="st10" d="M948.88,644.92l14.24-6.65c0.52-0.25,0.52-0.82,0-1.07l-14.92-7.09c-0.48-0.22-1.08-0.22-1.56,0l-14.26,6.66
			c-0.52,0.24-0.52,0.81,0,1.06l14.93,7.09C947.79,645.15,948.4,645.15,948.88,644.92z"/>
		<path class="st10" d="M969.99,635.03l14.24-6.65c0.52-0.25,0.52-0.82,0-1.07l-14.92-7.09c-0.48-0.22-1.08-0.22-1.56,0l-14.26,6.66
			c-0.52,0.24-0.52,0.81,0,1.06l14.93,7.09C968.9,635.25,969.51,635.25,969.99,635.03z"/>
		<path class="st10" d="M991.09,625.13l14.24-6.65c0.52-0.25,0.52-0.82,0-1.07l-14.92-7.09c-0.48-0.22-1.08-0.22-1.56,0l-14.26,6.66
			c-0.52,0.24-0.52,0.81,0,1.06l14.93,7.09C990.01,625.36,990.61,625.36,991.09,625.13z"/>
		<path class="st10" d="M1012.2,615.24l14.24-6.65c0.52-0.25,0.52-0.82,0-1.07l-14.92-7.09c-0.48-0.22-1.08-0.22-1.56,0l-14.26,6.66
			c-0.52,0.24-0.52,0.81,0,1.06l14.93,7.09C1011.12,615.47,1011.72,615.47,1012.2,615.24z"/>
		<path class="st10" d="M1033.31,605.35l14.24-6.65c0.52-0.25,0.52-0.82,0-1.07l-14.92-7.09c-0.48-0.22-1.08-0.22-1.56,0
			l-14.26,6.66c-0.52,0.24-0.52,0.81,0,1.06l14.93,7.09C1032.22,605.57,1032.83,605.57,1033.31,605.35z"/>
		<path class="st10" d="M1054.42,595.46l14.24-6.65c0.52-0.25,0.52-0.82,0-1.07l-14.92-7.09c-0.48-0.22-1.08-0.22-1.56,0
			l-14.26,6.66c-0.52,0.24-0.52,0.81,0,1.06l14.93,7.09C1053.33,595.68,1053.94,595.68,1054.42,595.46z"/>
		<path class="st10" d="M1075.53,585.56l14.24-6.65c0.52-0.25,0.52-0.82,0-1.07l-14.92-7.09c-0.48-0.22-1.08-0.22-1.56,0
			l-14.26,6.66c-0.52,0.24-0.52,0.81,0,1.06l14.93,7.09C1074.44,585.79,1075.05,585.79,1075.53,585.56z"/>
		<path class="st10" d="M1096.63,575.67l14.24-6.65c0.52-0.25,0.52-0.82,0-1.07l-14.92-7.09c-0.48-0.22-1.08-0.22-1.56,0
			l-14.26,6.66c-0.52,0.24-0.52,0.81,0,1.06l14.93,7.09C1095.55,575.9,1096.15,575.9,1096.63,575.67z"/>
		<path class="st10" d="M1117.74,565.78l14.24-6.65c0.52-0.25,0.52-0.82,0-1.07l-14.92-7.09c-0.48-0.22-1.08-0.22-1.56,0
			l-14.26,6.66c-0.52,0.24-0.52,0.81,0,1.06l14.93,7.09C1116.66,566,1117.26,566,1117.74,565.78z"/>
		<path class="st10" d="M909.08,685.89l14.24-6.65c0.52-0.25,0.52-0.82,0-1.07l-14.92-7.09c-0.48-0.22-1.08-0.22-1.56,0l-14.26,6.66
			c-0.52,0.24-0.52,0.81,0,1.06l14.93,7.09C908,686.12,908.6,686.12,909.08,685.89z"/>
		<path class="st10" d="M930.19,676l14.24-6.65c0.52-0.25,0.52-0.82,0-1.07l-14.92-7.09c-0.48-0.22-1.08-0.22-1.56,0l-14.26,6.66
			c-0.52,0.24-0.52,0.81,0,1.06l14.93,7.09C929.1,676.23,929.71,676.23,930.19,676z"/>
		<path class="st10" d="M951.3,666.11l14.24-6.65c0.52-0.25,0.52-0.82,0-1.07l-14.92-7.09c-0.48-0.22-1.08-0.22-1.56,0l-14.26,6.66
			c-0.52,0.24-0.52,0.81,0,1.06l14.93,7.09C950.21,666.33,950.82,666.33,951.3,666.11z"/>
		<path class="st10" d="M972.41,656.22l14.24-6.65c0.52-0.25,0.52-0.82,0-1.07l-14.92-7.09c-0.48-0.22-1.08-0.22-1.56,0l-14.26,6.66
			c-0.52,0.24-0.52,0.81,0,1.06l14.93,7.09C971.32,656.44,971.93,656.44,972.41,656.22z"/>
		<path class="st10" d="M993.51,646.32l14.24-6.65c0.52-0.25,0.52-0.82,0-1.07l-14.92-7.09c-0.48-0.22-1.08-0.22-1.56,0l-14.26,6.66
			c-0.52,0.24-0.52,0.81,0,1.06l14.93,7.09C992.43,646.55,993.03,646.55,993.51,646.32z"/>
		<path class="st10" d="M1014.62,636.43l14.24-6.65c0.52-0.25,0.52-0.82,0-1.07l-14.92-7.09c-0.48-0.22-1.08-0.22-1.56,0
			l-14.26,6.66c-0.52,0.24-0.52,0.81,0,1.06l14.93,7.09C1013.53,636.66,1014.14,636.66,1014.62,636.43z"/>
		<path class="st10" d="M1035.73,626.54l14.24-6.65c0.52-0.25,0.52-0.82,0-1.07l-14.92-7.09c-0.48-0.22-1.08-0.22-1.56,0
			l-14.26,6.66c-0.52,0.24-0.52,0.81,0,1.06l14.93,7.09C1034.64,626.76,1035.25,626.76,1035.73,626.54z"/>
		<path class="st10" d="M1056.84,616.65l14.24-6.65c0.52-0.25,0.52-0.82,0-1.07l-14.92-7.09c-0.48-0.22-1.08-0.22-1.56,0
			l-14.26,6.66c-0.52,0.24-0.52,0.81,0,1.06l14.93,7.09C1055.75,616.87,1056.36,616.87,1056.84,616.65z"/>
		<path class="st10" d="M1077.95,606.75l14.24-6.65c0.52-0.25,0.52-0.82,0-1.07l-14.92-7.09c-0.48-0.22-1.08-0.22-1.56,0
			l-14.26,6.66c-0.52,0.24-0.52,0.81,0,1.06l14.93,7.09C1076.86,606.98,1077.46,606.98,1077.95,606.75z"/>
		<path class="st10" d="M1099.05,596.86l14.24-6.65c0.52-0.25,0.52-0.82,0-1.07l-14.92-7.09c-0.48-0.22-1.08-0.22-1.56,0
			l-14.26,6.66c-0.52,0.24-0.52,0.81,0,1.06l14.93,7.09C1097.97,597.08,1098.57,597.08,1099.05,596.86z"/>
		<path class="st10" d="M1120.16,586.97l14.24-6.65c0.52-0.25,0.52-0.82,0-1.07l-14.92-7.09c-0.48-0.22-1.08-0.22-1.56,0
			l-14.26,6.66c-0.52,0.24-0.52,0.81,0,1.06l14.93,7.09C1119.07,587.19,1119.68,587.19,1120.16,586.97z"/>
		<path class="st10" d="M1141.27,577.07l14.24-6.65c0.52-0.25,0.52-0.82,0-1.07l-14.92-7.09c-0.48-0.22-1.08-0.22-1.56,0
			l-14.26,6.66c-0.52,0.24-0.52,0.81,0,1.06l14.93,7.09C1140.18,577.3,1140.79,577.3,1141.27,577.07z"/>
		<path class="st10" d="M932.61,697.19l14.24-6.65c0.52-0.25,0.52-0.82,0-1.07l-14.92-7.09c-0.48-0.22-1.08-0.22-1.56,0l-14.26,6.66
			c-0.52,0.24-0.52,0.81,0,1.06l14.93,7.09C931.52,697.42,932.13,697.42,932.61,697.19z"/>
		<path class="st10" d="M953.72,687.3l14.24-6.65c0.52-0.25,0.52-0.82,0-1.07l-14.92-7.09c-0.48-0.22-1.08-0.22-1.56,0l-14.26,6.66
			c-0.52,0.24-0.52,0.81,0,1.06l14.93,7.09C952.63,687.52,953.24,687.52,953.72,687.3z"/>
		<path class="st10" d="M974.83,677.4l14.24-6.65c0.52-0.25,0.52-0.82,0-1.07l-14.92-7.09c-0.48-0.22-1.08-0.22-1.56,0l-14.26,6.66
			c-0.52,0.24-0.52,0.81,0,1.06l14.93,7.09C973.74,677.63,974.34,677.63,974.83,677.4z"/>
		<path class="st10" d="M995.93,667.51l14.24-6.65c0.52-0.25,0.52-0.82,0-1.07l-14.92-7.09c-0.48-0.22-1.08-0.22-1.56,0l-14.26,6.66
			c-0.52,0.24-0.52,0.81,0,1.06l14.93,7.09C994.85,667.74,995.45,667.74,995.93,667.51z"/>
		<path class="st10" d="M1017.04,657.62l14.24-6.65c0.52-0.25,0.52-0.82,0-1.07l-14.92-7.09c-0.48-0.22-1.08-0.22-1.56,0
			l-14.26,6.66c-0.52,0.24-0.52,0.81,0,1.06l14.93,7.09C1015.95,657.84,1016.56,657.84,1017.04,657.62z"/>
		<path class="st10" d="M1038.15,647.73l14.24-6.65c0.52-0.25,0.52-0.82,0-1.07l-14.92-7.09c-0.48-0.22-1.08-0.22-1.56,0
			l-14.26,6.66c-0.52,0.24-0.52,0.81,0,1.06l14.93,7.09C1037.06,647.95,1037.67,647.95,1038.15,647.73z"/>
		<path class="st10" d="M1059.26,637.83l14.24-6.65c0.52-0.25,0.52-0.82,0-1.07l-14.92-7.09c-0.48-0.22-1.08-0.22-1.56,0
			l-14.26,6.66c-0.52,0.24-0.52,0.81,0,1.06l14.93,7.09C1058.17,638.06,1058.78,638.06,1059.26,637.83z"/>
		<path class="st10" d="M1080.36,627.94l14.24-6.65c0.52-0.25,0.52-0.82,0-1.07l-14.92-7.09c-0.48-0.22-1.08-0.22-1.56,0
			l-14.26,6.66c-0.52,0.24-0.52,0.81,0,1.06l14.93,7.09C1079.28,628.17,1079.88,628.17,1080.36,627.94z"/>
		<path class="st10" d="M1101.47,618.05l14.24-6.65c0.52-0.25,0.52-0.82,0-1.07l-14.92-7.09c-0.48-0.22-1.08-0.22-1.56,0
			l-14.26,6.66c-0.52,0.24-0.52,0.81,0,1.06l14.93,7.09C1100.39,618.27,1100.99,618.27,1101.47,618.05z"/>
		<path class="st10" d="M1122.58,608.16l14.24-6.65c0.52-0.25,0.52-0.82,0-1.07l-14.92-7.09c-0.48-0.22-1.08-0.22-1.56,0
			l-14.26,6.66c-0.52,0.24-0.52,0.81,0,1.06l14.93,7.09C1121.49,608.38,1122.1,608.38,1122.58,608.16z"/>
		<path class="st10" d="M1143.69,598.26l14.24-6.65c0.52-0.25,0.52-0.82,0-1.07l-14.92-7.09c-0.48-0.22-1.08-0.22-1.56,0
			l-14.26,6.66c-0.52,0.24-0.52,0.81,0,1.06l14.93,7.09C1142.6,598.49,1143.21,598.49,1143.69,598.26z"/>
		<path class="st10" d="M1164.8,588.37l14.24-6.65c0.52-0.25,0.52-0.82,0-1.07l-14.92-7.09c-0.48-0.22-1.08-0.22-1.56,0l-14.26,6.66
			c-0.52,0.24-0.52,0.81,0,1.06l14.93,7.09C1163.71,588.6,1164.32,588.6,1164.8,588.37z"/>
		<path class="st10" d="M956.14,708.49l14.24-6.65c0.52-0.25,0.52-0.82,0-1.07l-14.92-7.09c-0.48-0.22-1.08-0.22-1.56,0l-14.26,6.66
			c-0.52,0.24-0.52,0.81,0,1.06l14.93,7.09C955.05,708.71,955.66,708.71,956.14,708.49z"/>
		<path class="st10" d="M977.24,698.59l14.24-6.65c0.52-0.25,0.52-0.82,0-1.07l-14.92-7.09c-0.48-0.22-1.08-0.22-1.56,0l-14.26,6.66
			c-0.52,0.24-0.52,0.81,0,1.06l14.93,7.09C976.16,698.82,976.76,698.82,977.24,698.59z"/>
		<path class="st10" d="M998.35,688.7l14.24-6.65c0.52-0.25,0.52-0.82,0-1.07l-14.92-7.09c-0.48-0.22-1.08-0.22-1.56,0l-14.26,6.66
			c-0.52,0.24-0.52,0.81,0,1.06l14.93,7.09C997.27,688.93,997.87,688.93,998.35,688.7z"/>
		<path class="st10" d="M1019.46,678.81l14.24-6.65c0.52-0.25,0.52-0.82,0-1.07l-14.92-7.09c-0.48-0.22-1.08-0.22-1.56,0
			l-14.26,6.66c-0.52,0.24-0.52,0.81,0,1.06l14.93,7.09C1018.37,679.03,1018.98,679.03,1019.46,678.81z"/>
		<path class="st10" d="M1040.57,668.92l14.24-6.65c0.52-0.25,0.52-0.82,0-1.07l-14.92-7.09c-0.48-0.22-1.08-0.22-1.56,0
			l-14.26,6.66c-0.52,0.24-0.52,0.81,0,1.06l14.93,7.09C1039.48,669.14,1040.09,669.14,1040.57,668.92z"/>
		<path class="st10" d="M1061.68,659.02l14.24-6.65c0.52-0.25,0.52-0.82,0-1.07l-14.92-7.09c-0.48-0.22-1.08-0.22-1.56,0
			l-14.26,6.66c-0.52,0.24-0.52,0.81,0,1.06l14.93,7.09C1060.59,659.25,1061.2,659.25,1061.68,659.02z"/>
		<path class="st10" d="M1082.78,649.13l14.24-6.65c0.52-0.25,0.52-0.82,0-1.07l-14.92-7.09c-0.48-0.22-1.08-0.22-1.56,0
			l-14.26,6.66c-0.52,0.24-0.52,0.81,0,1.06l14.93,7.09C1081.7,649.35,1082.3,649.35,1082.78,649.13z"/>
		<path class="st10" d="M1103.89,639.24l14.24-6.65c0.52-0.25,0.52-0.82,0-1.07l-14.92-7.09c-0.48-0.22-1.08-0.22-1.56,0
			l-14.26,6.66c-0.52,0.24-0.52,0.81,0,1.06l14.93,7.09C1102.81,639.46,1103.41,639.46,1103.89,639.24z"/>
		<path class="st10" d="M1125,629.34l14.24-6.65c0.52-0.25,0.52-0.82,0-1.07l-14.92-7.09c-0.48-0.22-1.08-0.22-1.56,0l-14.26,6.66
			c-0.52,0.24-0.52,0.81,0,1.06l14.93,7.09C1123.91,629.57,1124.52,629.57,1125,629.34z"/>
		<path class="st10" d="M1146.11,619.45l14.24-6.65c0.52-0.25,0.52-0.82,0-1.07l-14.92-7.09c-0.48-0.22-1.08-0.22-1.56,0
			l-14.26,6.66c-0.52,0.24-0.52,0.81,0,1.06l14.93,7.09C1145.02,619.68,1145.63,619.68,1146.11,619.45z"/>
		<path class="st10" d="M1167.22,609.56l14.24-6.65c0.52-0.25,0.52-0.82,0-1.07l-14.92-7.09c-0.48-0.22-1.08-0.22-1.56,0
			l-14.26,6.66c-0.52,0.24-0.52,0.81,0,1.06l14.93,7.09C1166.13,609.78,1166.74,609.78,1167.22,609.56z"/>
		<path class="st10" d="M1188.32,599.67l14.24-6.65c0.52-0.25,0.52-0.82,0-1.07l-14.92-7.09c-0.48-0.22-1.08-0.22-1.56,0
			l-14.26,6.66c-0.52,0.24-0.52,0.81,0,1.06l14.93,7.09C1187.24,599.89,1187.84,599.89,1188.32,599.67z"/>
		<path class="st10" d="M979.66,719.78l14.24-6.65c0.52-0.25,0.52-0.82,0-1.07l-14.92-7.09c-0.48-0.22-1.08-0.22-1.56,0l-14.26,6.66
			c-0.52,0.24-0.52,0.81,0,1.06l14.93,7.09C978.58,720.01,979.18,720.01,979.66,719.78z"/>
		<path class="st10" d="M1000.77,709.89l14.24-6.65c0.52-0.25,0.52-0.82,0-1.07l-14.92-7.09c-0.48-0.22-1.08-0.22-1.56,0
			l-14.26,6.66c-0.52,0.24-0.52,0.81,0,1.06l14.93,7.09C999.69,710.11,1000.29,710.11,1000.77,709.89z"/>
		<path class="st10" d="M1021.88,700l14.24-6.65c0.52-0.25,0.52-0.82,0-1.07l-14.92-7.09c-0.48-0.22-1.08-0.22-1.56,0l-14.26,6.66
			c-0.52,0.24-0.52,0.81,0,1.06l14.93,7.09C1020.79,700.22,1021.4,700.22,1021.88,700z"/>
		<path class="st10" d="M1127.42,650.53l14.24-6.65c0.52-0.25,0.52-0.82,0-1.07l-14.92-7.09c-0.48-0.22-1.08-0.22-1.56,0
			l-14.26,6.66c-0.52,0.24-0.52,0.81,0,1.06l14.93,7.09C1126.33,650.76,1126.94,650.76,1127.42,650.53z"/>
		<path class="st10" d="M1148.53,640.64l14.24-6.65c0.52-0.25,0.52-0.82,0-1.07l-14.92-7.09c-0.48-0.22-1.08-0.22-1.56,0
			l-14.26,6.66c-0.52,0.24-0.52,0.81,0,1.06l14.93,7.09C1147.44,640.87,1148.05,640.87,1148.53,640.64z"/>
		<path class="st10" d="M1169.64,630.75l14.24-6.65c0.52-0.25,0.52-0.82,0-1.07l-14.92-7.09c-0.48-0.22-1.08-0.22-1.56,0
			l-14.26,6.66c-0.52,0.24-0.52,0.81,0,1.06l14.93,7.09C1168.55,630.97,1169.15,630.97,1169.64,630.75z"/>
		<path class="st10" d="M1181.88,616.64l14.24-6.65c0.52-0.25,0.52-0.82,0-1.07l-6.06-2.88c-0.48-0.22-1.08-0.22-1.56,0l-14.26,6.66
			c-0.52,0.24-0.52,0.81,0,1.06l6.07,2.88C1180.8,616.87,1181.4,616.87,1181.88,616.64z"/>
		<path class="st10" d="M1190.76,620.86l14.24-6.65c0.52-0.25,0.52-0.82,0-1.07l-6.06-2.88c-0.48-0.22-1.08-0.22-1.56,0l-14.26,6.66
			c-0.52,0.24-0.52,0.81,0,1.06l6.07,2.88C1189.67,621.09,1190.28,621.09,1190.76,620.86z"/>
		<path class="st10" d="M1211.85,610.96l14.24-6.65c0.52-0.25,0.52-0.82,0-1.07l-14.92-7.09c-0.48-0.22-1.08-0.22-1.56,0
			l-14.26,6.66c-0.52,0.24-0.52,0.81,0,1.06l14.93,7.09C1210.76,611.19,1211.37,611.19,1211.85,610.96z"/>
		<path class="st10" d="M1120.55,652.7l-14.92-7.09c-0.48-0.22-1.08-0.22-1.56,0l-14.26,6.66c-0.01,0.01-0.02,0.01-0.03,0.02
			l-52.26,24.5l0,0l-11.04,5.16c-0.52,0.24-0.52,0.81,0,1.06l14.93,7.09c0.48,0.22,1.09,0.22,1.57,0l14.24-6.65
			c0,0,0.01-0.01,0.01-0.01l55.32-25.94l0,0l7.99-3.73C1121.08,653.53,1121.08,652.95,1120.55,652.7z"/>
	</g>
</g>
<g>
	<path class="st32" d="M570.42,431.91v30.41c0,0.82-0.52,1.59-1.41,2.06c-0.04,0.02-0.08,0.05-0.12,0.06l-13.08,6.13l-27.01,12.65
		c-0.48,0.23-1.02,0.2-1.41-0.02c-0.34-0.17-0.6-0.47-0.6-0.83v-29.63c0-1.07,0.74-2.07,1.93-2.65l40.18-18.82
		c0.3-0.14,0.62-0.15,0.9-0.06c0.06,0.02,0.12,0.05,0.18,0.08C570.24,431.41,570.42,431.64,570.42,431.91z"/>
	<path class="st32" d="M853.38,299.59v30.41c0,0.82-0.52,1.59-1.41,2.06c-0.04,0.02-0.08,0.05-0.12,0.06l-13.08,6.13l-27.01,12.65
		c-0.48,0.23-1.01,0.2-1.41-0.02c-0.34-0.17-0.6-0.47-0.6-0.83V320.4c0-1.07,0.74-2.07,1.93-2.65l40.18-18.82
		c0.3-0.14,0.62-0.15,0.9-0.06c0.06,0.02,0.12,0.05,0.18,0.08C853.21,299.09,853.38,299.31,853.38,299.59z"/>
	<path class="st33" d="M936.18,241.89v45.49c0,1.22-0.77,2.38-2.11,3.08c-0.06,0.02-0.12,0.07-0.18,0.09l-19.56,9.17l-40.4,18.92
		c-0.71,0.34-1.52,0.29-2.11-0.02c-0.51-0.25-0.89-0.7-0.89-1.24v-44.33c0-1.61,1.1-3.1,2.89-3.96l60.11-28.15
		c0.45-0.2,0.92-0.23,1.34-0.09c0.09,0.02,0.18,0.07,0.27,0.11C935.91,241.14,936.18,241.48,936.18,241.89z"/>
	<path class="st33" d="M660.1,796.41v45.49c0,1.22-0.77,2.38-2.11,3.08c-0.06,0.02-0.12,0.07-0.18,0.09l-19.56,9.17l-40.4,18.92
		c-0.71,0.34-1.52,0.29-2.11-0.02c-0.51-0.25-0.89-0.7-0.89-1.24v-44.33c0-1.61,1.1-3.1,2.89-3.96l60.11-28.15
		c0.45-0.2,0.92-0.23,1.34-0.09c0.09,0.02,0.18,0.07,0.27,0.11C659.83,795.67,660.1,796.01,660.1,796.41z"/>
	<path class="st18" d="M1302.4,390.57v51.83c0,1.39-0.88,2.71-2.41,3.51c-0.07,0.03-0.14,0.08-0.2,0.1l-22.29,10.44l-46.04,21.56
		c-0.81,0.39-1.73,0.34-2.41-0.03c-0.58-0.28-1.02-0.8-1.02-1.42v-50.52c0-1.83,1.26-3.53,3.29-4.51l68.5-32.08
		c0.51-0.23,1.05-0.26,1.53-0.1c0.1,0.03,0.2,0.08,0.31,0.13C1302.09,389.72,1302.4,390.1,1302.4,390.57z"/>
	<path class="st18" d="M760.79,251.6v51.83c0,1.39-0.88,2.71-2.41,3.51c-0.07,0.03-0.14,0.08-0.2,0.1l-22.29,10.44l-46.04,21.56
		c-0.81,0.39-1.73,0.34-2.41-0.03c-0.58-0.28-1.02-0.8-1.02-1.42v-50.52c0-1.83,1.26-3.53,3.29-4.51l68.5-32.08
		c0.51-0.23,1.05-0.26,1.53-0.1c0.1,0.03,0.2,0.08,0.31,0.13C760.48,250.75,760.79,251.14,760.79,251.6z"/>
	<path class="st18" d="M734.09,383.34v51.83c0,1.39-0.88,2.71-2.41,3.51c-0.07,0.03-0.14,0.08-0.2,0.1l-22.29,10.44l-46.04,21.56
		c-0.81,0.39-1.73,0.34-2.41-0.03c-0.58-0.28-1.02-0.8-1.02-1.42v-50.52c0-1.83,1.26-3.53,3.29-4.51l68.5-32.08
		c0.51-0.23,1.05-0.26,1.53-0.1c0.1,0.03,0.2,0.08,0.31,0.13C733.79,382.49,734.09,382.87,734.09,383.34z"/>
	<path class="st18" d="M773.05,455.89v43.47c0,1.17-0.74,2.27-2.02,2.94c-0.06,0.02-0.11,0.06-0.17,0.09l-18.69,8.76l-38.61,18.08
		c-0.68,0.32-1.45,0.28-2.02-0.02c-0.48-0.24-0.85-0.67-0.85-1.19v-42.37c0-1.54,1.05-2.96,2.76-3.78l57.45-26.9
		c0.43-0.19,0.88-0.22,1.28-0.09c0.09,0.02,0.17,0.06,0.26,0.11C772.79,455.18,773.05,455.5,773.05,455.89z"/>
</g>
<g>
	<g>
		<g>
			<path class="st26" d="M1242.03,380.02v64.49c0,1.73-1.1,3.37-3,4.36c-0.08,0.03-0.17,0.1-0.25,0.13l-27.73,12.99l-57.28,26.82
				c-1.01,0.48-2.15,0.42-3-0.03l-11.23-5.26c-1.01-0.45-1.6-1.28-1.6-2.15v-62.34c0-2.44,1.65-4.72,4.39-5.97l84.17-39.46
				c1.1-0.51,2.45-0.51,3.55-0.03l10.68,4.94c0.13,0.03,0.25,0.1,0.38,0.16C1241.65,378.96,1242.03,379.44,1242.03,380.02z"/>
			<path class="st27" d="M1242.03,380.02v64.49c0,1.73-1.1,3.37-3,4.36c-0.08,0.03-0.17,0.1-0.25,0.13l-27.73,12.99l-57.28,26.82
				c-1.01,0.48-2.15,0.42-3-0.03c-0.72-0.35-1.27-0.99-1.27-1.76v-62.85c0-2.28,1.56-4.4,4.09-5.61l85.22-39.91
				c0.63-0.29,1.31-0.32,1.9-0.13c0.13,0.03,0.25,0.1,0.38,0.16C1241.65,378.96,1242.03,379.44,1242.03,380.02z"/>
		</g>
		<path class="st10" d="M1199.96,420.15l5.68,6.45c0.34,0.38,0.98,0.54,1.54,0.37l12.31-3.61c1.17-0.35,2.24,0.66,1.54,1.46
			l-9.81,11.23c-0.19,0.21-0.26,0.47-0.19,0.72l2.53,10.19c0.15,0.6-0.46,1.16-1.26,1.16l-13.16,0.06c-0.35,0-0.69,0.11-0.93,0.31
			l-12.02,9.66c-0.87,0.7-2.41,0.13-2.21-0.83l2.11-10.22c0.09-0.44-0.22-0.87-0.75-1.05l-9.31-3.13c-0.93-0.31-1.04-1.28-0.2-1.71
			l14.79-7.61c0.22-0.11,0.38-0.27,0.48-0.46l6.58-12.8C1198.07,419.6,1199.38,419.49,1199.96,420.15z"/>
	</g>
	<g>
		<g>
			<path class="st34" d="M1022.12,201.38v43.47c0,1.17-0.74,2.27-2.02,2.94c-0.06,0.02-0.11,0.06-0.17,0.09l-18.69,8.76
				l-38.61,18.08c-0.68,0.32-1.45,0.28-2.02-0.02l-7.57-3.55c-0.68-0.3-1.08-0.86-1.08-1.45v-42.02c0-1.64,1.11-3.18,2.96-4.02
				l56.74-26.6c0.74-0.35,1.65-0.35,2.39-0.02l7.2,3.33c0.09,0.02,0.17,0.06,0.26,0.11
				C1021.87,200.66,1022.12,200.99,1022.12,201.38z"/>
			<path class="st35" d="M1022.12,201.38v43.47c0,1.17-0.74,2.27-2.02,2.94c-0.06,0.02-0.11,0.06-0.17,0.09l-18.69,8.76
				l-38.61,18.08c-0.68,0.32-1.45,0.28-2.02-0.02c-0.48-0.24-0.85-0.67-0.85-1.19v-42.37c0-1.54,1.05-2.96,2.76-3.78l57.45-26.9
				c0.43-0.19,0.88-0.22,1.28-0.09c0.09,0.02,0.17,0.06,0.26,0.11C1021.87,200.66,1022.12,200.99,1022.12,201.38z"/>
		</g>
		<g>
			<path class="st10" d="M999.71,226.02c0,3.44-3.67,7.9-8.19,9.97c-4.52,2.07-8.19,0.95-8.19-2.49c0-3.44,3.67-7.9,8.19-9.97
				C996.05,221.47,999.71,222.58,999.71,226.02z"/>
			<path class="st10" d="M1010.07,243.11l-37.07,16.93c0.04-7.77,8.29-17.81,18.54-22.49c5.1-2.33,9.75-2.87,13.1-1.86
				C1007.99,236.71,1010.07,239.24,1010.07,243.11z"/>
		</g>
	</g>
	<g>
		<path class="st36" d="M518.63,503.87v43.47c0,1.17-0.74,2.27-2.02,2.94c-0.06,0.02-0.11,0.06-0.17,0.09l-18.69,8.76l-38.61,18.08
			c-0.68,0.32-1.45,0.28-2.02-0.02l-7.57-3.55c-0.68-0.3-1.08-0.87-1.08-1.45v-42.02c0-1.64,1.11-3.18,2.96-4.02l56.74-26.6
			c0.74-0.35,1.65-0.35,2.39-0.02l7.2,3.33c0.09,0.02,0.17,0.06,0.26,0.11C518.38,503.16,518.63,503.48,518.63,503.87z"/>
		<path class="st37" d="M518.63,503.87v43.47c0,1.17-0.74,2.27-2.02,2.94c-0.06,0.02-0.11,0.06-0.17,0.09l-18.69,8.76l-38.61,18.08
			c-0.68,0.32-1.45,0.28-2.02-0.02c-0.48-0.24-0.85-0.67-0.85-1.19v-42.37c0-1.54,1.05-2.96,2.76-3.78l57.45-26.9
			c0.43-0.19,0.88-0.22,1.28-0.09c0.09,0.02,0.17,0.06,0.26,0.11C518.38,503.16,518.63,503.48,518.63,503.87z"/>
		<g>
			<path class="st10" d="M485.64,558.57l-16.7-5.07c-1.57-0.48-1.57-2.41,0-4.33c1.57-1.91,4.12-3.08,5.69-2.6l9.5,2.88l18.61-31.39
				c1.17-1.97,3.65-3.55,5.54-3.53c1.89,0.02,2.48,1.64,1.31,3.61L485.64,558.57z"/>
		</g>
	</g>
	<g>
		<path class="st26" d="M669.42,372.97v43.47c0,1.17-0.74,2.27-2.02,2.94c-0.06,0.02-0.11,0.06-0.17,0.09l-18.69,8.76l-38.61,18.08
			c-0.68,0.32-1.45,0.28-2.02-0.02l-7.57-3.55c-0.68-0.3-1.08-0.87-1.08-1.45v-42.02c0-1.64,1.11-3.18,2.96-4.02l56.74-26.6
			c0.74-0.35,1.65-0.35,2.39-0.02l7.2,3.33c0.09,0.02,0.17,0.06,0.26,0.11C669.16,372.26,669.42,372.58,669.42,372.97z"/>
		<path class="st27" d="M669.42,372.97v43.47c0,1.17-0.74,2.27-2.02,2.94c-0.06,0.02-0.11,0.06-0.17,0.09l-18.69,8.76l-38.61,18.08
			c-0.68,0.32-1.45,0.28-2.02-0.02c-0.48-0.24-0.85-0.67-0.85-1.19v-42.37c0-1.54,1.05-2.96,2.76-3.78l57.45-26.9
			c0.43-0.19,0.88-0.22,1.28-0.09c0.09,0.02,0.17,0.06,0.26,0.11C669.16,372.26,669.42,372.58,669.42,372.97z"/>
		<path class="st10" d="M627.91,417.74c-0.53,2.28-3.07,4.14-5.68,4.14c-2.61,0-4.29-1.85-3.76-4.14c0.53-2.28,3.07-4.14,5.68-4.14
			C626.76,413.61,628.44,415.46,627.91,417.74z"/>
		<path class="st10" d="M644.65,410.6c-0.53,2.28-3.07,4.14-5.68,4.14s-4.29-1.85-3.76-4.14c0.53-2.28,3.07-4.14,5.68-4.14
			C643.49,406.47,645.18,408.32,644.65,410.6z"/>
		<path class="st10" d="M661.38,403.47c-0.53,2.28-3.07,4.14-5.68,4.14c-2.61,0-4.29-1.85-3.76-4.14c0.53-2.28,3.07-4.14,5.68-4.14
			C660.23,399.33,661.91,401.18,661.38,403.47z"/>
	</g>
	<g>
		<g>
			<g>
				<path class="st38" d="M812.79,486.64v43.47c0,1.17-0.74,2.27-2.02,2.94c-0.06,0.02-0.11,0.06-0.17,0.09l-18.69,8.76
					l-38.61,18.08c-0.68,0.32-1.45,0.28-2.02-0.02l-7.57-3.55c-0.68-0.3-1.08-0.86-1.08-1.45v-42.02c0-1.64,1.11-3.18,2.96-4.02
					l56.74-26.6c0.74-0.35,1.65-0.35,2.39-0.02l7.2,3.33c0.09,0.02,0.17,0.06,0.26,0.11C812.54,485.93,812.79,486.25,812.79,486.64z
					"/>
				<path class="st39" d="M812.79,486.64v43.47c0,1.17-0.74,2.27-2.02,2.94c-0.06,0.02-0.11,0.06-0.17,0.09l-18.69,8.76
					l-38.61,18.08c-0.68,0.32-1.45,0.28-2.02-0.02c-0.48-0.24-0.85-0.67-0.85-1.19V516.4c0-1.54,1.05-2.96,2.76-3.78l57.45-26.9
					c0.43-0.19,0.88-0.22,1.28-0.09c0.09,0.02,0.17,0.06,0.26,0.11C812.54,485.93,812.79,486.25,812.79,486.64z"/>
			</g>
		</g>
		<g>
			<polygon class="st10" points="801.64,503.96 801.64,506.98 783.11,523.51 764.54,524.59 764.54,521.59 			"/>
			<polygon class="st10" points="783.11,525.27 801.64,508.73 801.64,524.16 764.54,541.79 764.54,526.34 			"/>
		</g>
	</g>
	<g>
		<g>
			<path class="st40" d="M1252.6,242.67v64.49c0,1.73-1.1,3.37-3,4.36c-0.08,0.03-0.17,0.1-0.25,0.13l-48.87,22.58l-57.28,26.82
				c-1.01,0.48-2.15,0.42-3-0.03l-11.23-5.26c-1.01-0.45-1.6-1.28-1.6-2.15v-62.34c0-2.44,1.65-4.72,4.39-5.97l105.31-49.05
				c1.1-0.51,2.45-0.51,3.55-0.03l10.68,4.94c0.13,0.03,0.25,0.1,0.38,0.16C1252.22,241.61,1252.6,242.09,1252.6,242.67z"/>
			<path class="st8" d="M1252.61,242.67v64.49c0,1.73-1.1,3.37-3,4.36c-0.08,0.03-0.17,0.1-0.25,0.13l-106.15,49.4
				c-1.01,0.48-2.15,0.42-3-0.03c-0.72-0.35-1.27-0.99-1.27-1.76v-62.85c0-2.28,1.56-4.4,4.09-5.61l106.36-49.5
				c0.63-0.29,1.31-0.32,1.9-0.13c0.13,0.03,0.25,0.1,0.38,0.16C1252.23,241.61,1252.61,242.09,1252.61,242.67z"/>
		</g>
		<g>
			<path class="st13" d="M1218.63,239.73v12.23c0,0.33-0.21,0.64-0.57,0.83c-0.02,0.01-0.03,0.02-0.05,0.02l-34.37,16.16
				l-10.86,5.09c-0.19,0.09-0.41,0.08-0.57-0.01l-2.13-1c-0.19-0.09-0.3-0.24-0.3-0.41v-11.82c0-0.46,0.31-0.89,0.83-1.13
				l45.07-21.18c0.21-0.1,0.46-0.1,0.67-0.01l2.02,0.94c0.02,0.01,0.05,0.02,0.07,0.03
				C1218.56,239.53,1218.63,239.62,1218.63,239.73z"/>
			<path class="st10" d="M1218.63,239.73v12.23c0,0.33-0.21,0.64-0.57,0.83c-0.02,0.01-0.03,0.02-0.05,0.02l-45.23,21.25
				c-0.19,0.09-0.41,0.08-0.57-0.01c-0.14-0.07-0.24-0.19-0.24-0.33V261.8c0-0.43,0.3-0.83,0.78-1.06l45.27-21.27
				c0.12-0.05,0.25-0.06,0.36-0.02c0.02,0.01,0.05,0.02,0.07,0.03C1218.56,239.53,1218.63,239.62,1218.63,239.73z"/>
		</g>
		<path class="st13" d="M1245.84,229.14c-0.02-0.01-0.05-0.02-0.07-0.03l-2.02-0.94c-0.21-0.09-0.46-0.09-0.67,0.01l-45.07,21.18
			c-0.52,0.24-0.83,0.67-0.83,1.13v12.57l2.19,1.05v-0.51l0.24,0.11c0.16,0.09,0.38,0.1,0.57,0.01l10.86-5.09l34.37-16.16
			c0.02-0.01,0.03-0.02,0.05-0.02c0.36-0.19,0.57-0.5,0.57-0.83v-12.23C1246.02,229.28,1245.95,229.19,1245.84,229.14z"/>
		<path class="st40" d="M1170.77,256.41l-11.02-4.84l0,0c-0.85-0.4-1.97-0.46-2.93,0l-24.61,11.85c-3,1.44-4.82,3.96-4.82,6.65
			v24.73l33.68-16.22v-12.75l0.84,1.21c0,0,4.03,0.9,4.39,0.9c0.36,0,6.34,2.88,6.34,2.88v-11.17L1170.77,256.41z"/>
		<path class="st8" d="M1168.37,256.61l-24.61,11.85c-3,1.44-4.82,3.96-4.82,6.65v24.73l33.68-16.22v-25.23
			C1172.63,256.73,1170.22,255.72,1168.37,256.61z"/>
		<path class="st10" d="M1245.84,229.14c-0.02-0.01-0.05-0.02-0.07-0.03c-0.11-0.04-0.24-0.03-0.36,0.02l-45.27,21.27
			c-0.48,0.23-0.78,0.63-0.78,1.06v12.65l46.65-21.92v-2.09v-10.71C1246.02,229.28,1245.95,229.19,1245.84,229.14z"/>
	</g>
</g>
<g>
	<polygon class="st41" points="915.72,381.13 837.51,417.74 837.51,417.76 826.51,422.91 837.51,427.5 837.51,644.37 
		1076.31,755.32 1189.19,702.49 	"/>
	<g>
		<path class="st10" d="M1360.92,677.18L1144.94,778.3l-61.72-31.79c-27.4-14.12-43.82-37.65-43.85-62.83v-0.61
			c0-13.21-4.32-25.97-12.23-37.28c-8.59-12.24-21.4-22.77-37.47-30.28c-10.24-4.78-21.88-4.54-31.16-0.89l-0.11,0.04
			c-1.45,0.56-2.85,1.23-4.18,1.97c-7.68,4.26-12.92,11.14-12.95,19.44v11.64c0,14.53-21.06,23.38-37.25,15.64h-0.03
			c-15.54-7.42-24.98-20.39-24.98-34.34V395.74c0-11.44-10.58-20.01-23.45-22.23c-12.89,2.49-25.58,4.71-25.58,4.71l210.33-98.62
			l8.88-4.33c1.05-0.5,2.11-0.93,3.19-1.32c3.13-1.12,6.34-1.8,9.53-2.05c16.73-1.32,33.09,8.48,33.09,22.71v233.25
			c0,7.01,2.39,13.8,6.74,19.72l68.37-32.03c1.42-0.8,2.93-1.51,4.52-2.1l0.11-0.06c4.41-1.69,9.3-2.62,14.34-2.62
			c5.55,0,11.24,1.12,16.56,3.61c30.9,14.43,49.71,39.99,49.74,67.54v0.63c0,25.17,16.42,48.7,43.82,62.83L1360.92,677.18z"/>
		<path class="st10" d="M1128.76,569.5l12.01-5.62C1137.58,566.6,1133.38,568.56,1128.76,569.5z"/>
		<path class="st42" d="M1011.37,629.54l-79.37,36.84l-0.31-3.76c5.72-3.29,9.59-8.5,9.59-14.73v-11.64
			c0.03-8.3,5.26-15.18,12.95-19.44c1.34-0.74,2.73-1.41,4.18-1.97l0.11-0.04c9.28-3.65,20.91-3.89,31.16,0.89
			C996.44,618.85,1005.82,625.39,1011.37,629.54z"/>
		<path class="st42" d="M879.02,398.32v-2.54c0-17.88-25.85-28.79-45.81-19.34l0,0c-8.46,4-13.6,11.04-13.6,18.61v31.09
			L879.02,398.32z"/>
		<polygon class="st43" points="1360.92,677.17 1360.92,681.67 1144.94,782.69 1144.94,778.29 		"/>
		<path class="st44" d="M1101.75,547.58l-143.24,67.05l-0.13,0.04c-1.07,0.42-2.14,0.89-3.16,1.43c-0.34,0.18-0.68,0.36-1.02,0.54
			c-7.68,4.27-12.9,11.14-12.95,19.45v11.63c0,14.53-21.05,23.38-37.24,15.64h-0.03C888.45,655.94,879,642.96,879,629V395.74
			c0-11.43-10.58-20.01-23.42-22.23c-12.9,2.5-25.59,4.72-25.59,4.72l210.32-98.63l8.88-4.33c1.07-0.5,2.12-0.93,3.19-1.31
			c3.13-1.13,6.35-1.81,9.53-2.06c16.74-1.31,33.09,8.48,33.09,22.71v233.27C1094.99,534.88,1097.39,541.67,1101.75,547.58z"/>
		<path class="st44" d="M1096.01,546.29l-137.59,64.29c-0.76-1.65-1.36-3.33-1.83-5.06l136.37-63.7
			C1093.84,543.37,1094.86,544.86,1096.01,546.29z"/>
		<path class="st45" d="M855.57,373.5c12.86,2.23,23.45,10.79,23.45,22.23V629c0,13.95,9.45,26.93,24.98,34.34h0.03
			c16.19,7.74,37.25-1.1,37.25-15.64v-11.64c0.03-8.3,5.26-15.18,12.95-19.44c1.34-0.74,2.73-1.41,4.18-1.97l0.11-0.04
			c9.28-3.65,20.91-3.89,31.16,0.89c16.08,7.5,28.88,18.04,37.47,30.28c7.91,11.31,12.23,24.07,12.23,37.29v0.61
			c0.03,25.17,16.45,48.7,43.85,62.83l61.72,31.79v4.39l-63.92-32.62c0,0-21.28-13.58-27.27-20.01
			c-6.34-6.8-13.73-18.62-16.06-27.76c-2.33-9.14-2.36-20.18-2.99-26.49c-0.63-6.31-4.92-18.6-11.41-28.59
			c-10.43-16.06-25.54-24.33-35.73-29.19c-6.67-3.19-20.45-5.69-30.66,0.43c0,0-10.84,5.52-11.56,17.47
			c-0.71,11.95,2.42,21.57-10.92,29.16c-14.56,8.29-23.9,4.96-30.78,2.41c-2.2-0.82-12.09-5.25-20.36-15.15
			c-10.44-12.48-8.65-24-8.65-24l-0.47-231.62c0,0,1.5-15.47-19.06-20.15c0,0-17.87-3.03-27.3,7.79c0,0-3.65,3.56-4,10.14
			c-0.36,6.58,0.27,29.54,0.27,29.54l-4.45,2.1v-31.76c0,0,0.25-5.53,3.86-10.28C827.58,378.68,838.08,371.12,855.57,373.5z"/>
		<path class="st44" d="M946.05,599.11c-0.02,0-0.04,0-0.06,0C945.98,599.11,946.01,599.11,946.05,599.11z"/>
	</g>
	<g>
		<path class="st26" d="M971.51,408.16l-81.76,38.22c-1.2,0.56-2.75-0.09-2.75-1.17v-37.9c0-1.33,0.9-2.56,2.39-3.25l82.7-38.66
			c0.96-0.45,2.2,0.07,2.2,0.93v38.04C974.28,405.92,973.23,407.35,971.51,408.16z"/>
		<path class="st46" d="M1087.77,365.42l-199.54,93.5c-0.54,0.25-1.23-0.04-1.23-0.52v-4.17c0-0.39,0.26-0.75,0.7-0.95l199.62-93.54
			c0.55-0.26,1.27,0.04,1.27,0.54v4.04C1088.58,364.77,1088.27,365.19,1087.77,365.42z"/>
		<path class="st46" d="M1087.77,353.93l-106.73,49.84c-0.54,0.25-1.23-0.04-1.23-0.52v-4.17c0-0.39,0.26-0.75,0.7-0.95
			l106.81-49.88c0.55-0.26,1.27,0.04,1.27,0.54v4.04C1088.58,353.28,1088.27,353.7,1087.77,353.93z"/>
		<path class="st46" d="M1087.77,341.74l-106.73,49.84c-0.54,0.25-1.23-0.04-1.23-0.52v-4.17c0-0.39,0.26-0.75,0.7-0.95
			l106.81-49.88c0.55-0.26,1.27,0.04,1.27,0.54v4.04C1088.58,341.08,1088.27,341.5,1087.77,341.74z"/>
		<path class="st46" d="M1087.77,329.55l-106.73,49.84c-0.54,0.25-1.23-0.04-1.23-0.52v-4.17c0-0.39,0.26-0.75,0.7-0.95
			l106.81-49.88c0.55-0.26,1.27,0.04,1.27,0.54v4.04C1088.58,328.89,1088.27,329.31,1087.77,329.55z"/>
		<path class="st26" d="M1087.77,317.35l-106.73,49.84c-0.54,0.25-1.23-0.04-1.23-0.52v-4.17c0-0.39,0.26-0.75,0.7-0.95
			l106.81-49.88c0.55-0.26,1.27,0.04,1.27,0.54v4.04C1088.58,316.7,1088.27,317.12,1087.77,317.35z"/>
		<path class="st46" d="M980.5,525.22l46.27-21.6c0.45-0.21,1.02,0.04,1.02,0.43v4.19c0,0.49-0.34,0.95-0.89,1.21l-45.85,21.42
			c-0.55,0.24-1.23-0.04-1.23-0.54v-4.17C979.82,525.79,980.08,525.44,980.5,525.22z"/>
		<path class="st46" d="M1088.59,475.89v4.03c0,0.46-0.31,0.87-0.81,1.11l-52.31,24.43c-0.56,0.26-1.28-0.04-1.28-0.54v-4.01
			c0-0.48,0.33-0.92,0.86-1.17l52.25-24.39C1087.88,475.08,1088.59,475.4,1088.59,475.89z"/>
		<path class="st46" d="M1087.77,468.84l-117.08,54.73c-0.54,0.25-1.23-0.04-1.23-0.52v-4.17c0-0.39,0.26-0.75,0.7-0.95
			l117.16-54.76c0.55-0.26,1.27,0.04,1.27,0.54v4.04C1088.58,468.18,1088.27,468.6,1087.77,468.84z"/>
		<path class="st46" d="M1087.77,456.64l-106.73,49.84c-0.54,0.25-1.23-0.04-1.23-0.52v-4.17c0-0.39,0.26-0.75,0.7-0.95
			l106.81-49.88c0.55-0.26,1.27,0.04,1.27,0.54v4.04C1088.58,455.99,1088.27,456.41,1087.77,456.64z"/>
		<path class="st46" d="M1087.77,444.45l-106.73,49.84c-0.54,0.25-1.23-0.04-1.23-0.52v-4.17c0-0.39,0.26-0.75,0.7-0.95
			l106.81-49.88c0.55-0.26,1.27,0.04,1.27,0.54v4.04C1088.58,443.79,1088.27,444.21,1087.77,444.45z"/>
		<path class="st46" d="M1087.77,528l-106.73,49.84c-0.54,0.25-1.23-0.04-1.23-0.52v-4.17c0-0.39,0.26-0.75,0.7-0.95l106.81-49.88
			c0.55-0.26,1.27,0.04,1.27,0.54v4.04C1088.58,527.35,1088.27,527.76,1087.77,528z"/>
		<path class="st8" d="M1088.23,538.99l-131.64,61.49c-0.65,0.32-0.86,0.02-0.94-0.2c0,0,0,0,0-0.02c-0.08-0.93-0.13-1.89-0.13-2.84
			v-1.59c0-0.56,0.34-0.87,0.52-0.99c0.08-0.04,0.1-0.06,0.1-0.06l131.48-61.43c0.5-0.24,1.12,0.02,1.18,0.48
			c0.13,1.09,0.31,2.18,0.55,3.26C1089.51,537.84,1089.06,538.59,1088.23,538.99z"/>
		<path class="st46" d="M1092.12,548.11l-132.28,61.81c-0.73,0.34-1.7,0.08-1.95-0.54c-0.4-0.98-0.75-1.97-1.05-2.97
			c-0.16-0.53,0.15-1.07,0.76-1.36l132.51-61.89c0.5-0.24,1.15-0.05,1.34,0.38c0.41,0.94,0.88,1.88,1.39,2.79
			C1093.21,546.99,1092.91,547.74,1092.12,548.11z"/>
		<path class="st46" d="M1087.77,515.81l-106.73,49.84c-0.54,0.25-1.23-0.04-1.23-0.52v-4.17c0-0.39,0.26-0.75,0.7-0.95
			l106.81-49.88c0.55-0.26,1.27,0.04,1.27,0.54v4.04C1088.58,515.15,1088.27,515.57,1087.77,515.81z"/>
		<path class="st46" d="M1087.77,503.62l-106.73,49.84c-0.54,0.25-1.23-0.04-1.23-0.52v-4.17c0-0.39,0.26-0.75,0.7-0.95
			l106.81-49.88c0.55-0.26,1.27,0.04,1.27,0.54v4.04C1088.58,502.96,1088.27,503.38,1087.77,503.62z"/>
		<path class="st46" d="M980.5,535.62l63.07-29.45c0.36-0.17,0.83,0.03,0.83,0.35v4.64c0,0.3-0.21,0.59-0.55,0.75l-62.8,29.34
			c-0.55,0.26-1.23-0.04-1.23-0.52v-4.17C979.82,536.17,980.08,535.82,980.5,535.62z"/>
		<path class="st24" d="M1088.59,486.27v4.05c0,0.44-0.31,0.85-0.81,1.09l-35.91,16.76c-0.46,0.21-1.04-0.04-1.04-0.44v-4.44
			c0-0.32,0.22-0.62,0.58-0.79l35.9-16.76C1087.88,485.48,1088.59,485.78,1088.59,486.27z"/>
		<path class="st46" d="M963.8,538.76l-73.95,34.63c-0.54,0.25-1.23-0.04-1.23-0.52v-4.17c0-0.39,0.26-0.75,0.7-0.95l74.03-34.67
			c0.55-0.26,1.27,0.04,1.27,0.54v4.04C964.61,538.1,964.31,538.52,963.8,538.76z"/>
		<path class="st39" d="M963.8,526.56l-73.95,34.63c-0.54,0.25-1.23-0.04-1.23-0.52v-4.17c0-0.39,0.26-0.75,0.7-0.95l74.03-34.67
			c0.55-0.26,1.27,0.04,1.27,0.54v4.04C964.61,525.91,964.31,526.33,963.8,526.56z"/>
		<path class="st39" d="M963.8,515.81l-73.95,34.63c-0.54,0.25-1.23-0.04-1.23-0.52v-19.67c0-0.39,0.26-0.75,0.7-0.95l74.03-34.67
			c0.55-0.26,1.27,0.04,1.27,0.54v19.54C964.61,515.15,964.31,515.57,963.8,515.81z"/>
		<path class="st46" d="M963.8,585.73l-63.82,29.93c-0.54,0.25-1.23-0.04-1.23-0.52v-4.17c0-0.39,0.26-0.75,0.7-0.95l63.9-29.96
			c0.55-0.26,1.27,0.04,1.27,0.54v4.04C964.61,585.07,964.31,585.49,963.8,585.73z"/>
		<path class="st46" d="M963.8,573.54l-73.95,34.63c-0.54,0.25-1.23-0.04-1.23-0.52v-4.17c0-0.39,0.26-0.75,0.7-0.95l74.03-34.67
			c0.55-0.26,1.27,0.04,1.27,0.54v4.04C964.61,572.88,964.31,573.3,963.8,573.54z"/>
		<path class="st46" d="M963.8,561.34l-73.95,34.63c-0.54,0.25-1.23-0.04-1.23-0.52v-4.17c0-0.39,0.26-0.75,0.7-0.95l74.03-34.67
			c0.55-0.26,1.27,0.04,1.27,0.54v4.04C964.61,560.69,964.31,561.11,963.8,561.34z"/>
		<path class="st46" d="M963.8,549.15l-73.95,34.63c-0.54,0.25-1.23-0.04-1.23-0.52v-4.17c0-0.39,0.26-0.75,0.7-0.95l74.03-34.67
			c0.55-0.26,1.27,0.04,1.27,0.54v4.04C964.61,548.49,964.31,548.91,963.8,549.15z"/>
		<path class="st46" d="M1034.02,403.87l-145.79,68.37c-0.54,0.25-1.23-0.04-1.23-0.52v-4.17c0-0.39,0.26-0.75,0.7-0.95
			l145.87-68.41c0.55-0.26,1.27,0.04,1.27,0.54v4.04C1034.83,403.21,1034.52,403.63,1034.02,403.87z"/>
		<path class="st46" d="M887.69,479.9l66.79-31.3c0.45-0.21,1.03,0.04,1.03,0.44v4.15c0,0.52-0.35,0.99-0.93,1.26l-66.37,31.1
			c-0.52,0.24-1.23-0.04-1.23-0.54v-4.17C886.99,480.48,887.25,480.12,887.69,479.9z"/>
		<path class="st46" d="M1088.59,386.91v4.03c0,0.46-0.31,0.87-0.81,1.11l-124.43,58.29c-0.63,0.3-1.44-0.05-1.44-0.61v-3.79
			c0-0.51,0.34-0.97,0.91-1.24l124.49-58.33C1087.88,386.12,1088.59,386.41,1088.59,386.91z"/>
		<path class="st46" d="M1087.77,405.36l-199.54,93.5c-0.54,0.25-1.23-0.04-1.23-0.52v-4.17c0-0.39,0.26-0.75,0.7-0.95l199.62-93.54
			c0.55-0.26,1.27,0.04,1.27,0.54v4.04C1088.58,404.71,1088.27,405.13,1087.77,405.36z"/>
		<path class="st46" d="M887.69,506.54l100.54-47.12c0.58-0.27,1.33,0.05,1.33,0.56v3.93c0,0.49-0.33,0.94-0.88,1.19l-100.47,47.07
			c-0.52,0.26-1.23-0.04-1.23-0.52v-4.17C886.99,507.1,887.25,506.74,887.69,506.54z"/>
		<path class="st46" d="M1088.59,413.53v4.05c0,0.44-0.31,0.85-0.81,1.09l-90.15,42.25c-0.71,0.33-1.64-0.06-1.64-0.69v-3.56
			c0-0.54,0.37-1.04,0.97-1.33l90.35-42.34C1087.88,412.73,1088.59,413.03,1088.59,413.53z"/>
		<path class="st46" d="M1087.77,431.99l-199.54,93.5c-0.54,0.25-1.23-0.04-1.23-0.52v-4.17c0-0.39,0.26-0.75,0.7-0.95l199.62-93.54
			c0.55-0.26,1.27,0.04,1.27,0.54v4.04C1088.58,431.33,1088.27,431.75,1087.77,431.99z"/>
		<path class="st8" d="M953.32,617.15c-7.18,4.29-12.01,10.94-12.06,18.94V643c0,0.3-0.18,0.56-0.52,0.71
			c-3.68,1.71-25.62,11.91-29.59,13.78c-0.37,0.16-0.84,0.16-1.2-0.02c-4.49-2.26-8.41-4.96-11.73-8.04
			c-1.25-1.13-2.43-2.34-3.47-3.57c-0.03-0.02-0.03-0.04-0.05-0.06c-6.58-8.34-6.82-19.89-5.33-20.58l54.92-25.66
			c0,0,0.91-0.47,1.57-0.44c0.65,0.03,1.33,0.16,1.49,1.53c0,0.08,0.03,0.14,0.03,0.2v0.02
			C947.81,606.63,949.88,612.15,953.32,617.15z"/>
		<path class="st46" d="M941.26,646.69v1.01c0,0.95-0.08,1.89-0.26,2.78l-19.13,8.74c-2.03,0.93-4.5,1.05-6.7,0.39
			c-0.4-0.12-0.8-0.25-1.19-0.39L941.26,646.69z"/>
		<path class="st27" d="M1147.95,608.48l-100.47,47.21c-1.9,0.9-4.45,0.2-5.08-1.44c-1.99-5.12-4.66-10.07-7.94-14.77
			c-8.59-12.23-21.41-22.77-37.47-30.27c-2.73-1.27-5.55-2.19-8.4-2.77c-1.52-0.31-1.76-1.88-0.43-2.51l15.95-7.52l54.97-25.86
			l28-13.17c2.13-1,4.67-1.44,7.13-1.09c3.65,0.52,7.27,1.56,10.73,3.19c16.06,7.5,28.88,18.04,37.47,30.29
			c3.21,4.56,5.8,9.37,7.78,14.34C1150.85,605.77,1149.9,607.56,1147.95,608.48z"/>
		<path class="st46" d="M1195.52,519.54l-48.68,22.81l-30.81,14.45c-0.57,0.26-1.28,0.24-1.85-0.02c-0.57-0.3-1.18-0.58-1.78-0.85
			c-1.02-0.48-2.04-0.91-3.08-1.25c0,0-0.08-0.06-0.13-0.08c-0.42-0.18-0.13-0.4,0.03-0.48c0.05-0.02,0.08-0.04,0.08-0.04
			l37.94-17.78l41.13-19.27c2.35,0.56,4.65,1.35,6.89,2.4C1195.34,519.46,1195.44,519.5,1195.52,519.54z"/>
		<path class="st46" d="M1206.56,525.53c0.5,0.32,0.44,0.92-0.12,1.18l-59.93,28.07l-18.53,8.69c-0.69,0.32-1.57,0.27-2.19-0.13
			c-0.74-0.48-1.48-0.95-2.24-1.42c-1.01-0.62-0.94-1.81,0.17-2.33l23.13-10.84l54.09-25.35c0.65-0.31,1.5-0.29,2.12,0.06
			C1204.25,524.12,1205.42,524.81,1206.56,525.53z"/>
		<path class="st46" d="M1215.82,534.62l-77.56,36.33c-0.87,0.41-2,0.28-2.68-0.31c-0.69-0.58-1.39-1.16-2.1-1.73
			c-0.66-0.53-0.53-1.38,0.29-1.77l7-3.27l70.86-33.2c0.88-0.41,2.02-0.33,2.76,0.23c0.62,0.47,1.23,0.94,1.84,1.42
			C1217.08,533.01,1216.87,534.13,1215.82,534.62z"/>
		<path class="st46" d="M1225.11,542.53l-78.28,36.7c-0.98,0.46-2.24,0.24-2.89-0.48c-0.51-0.57-1.04-1.13-1.57-1.69
			c-0.59-0.62-0.38-1.48,0.48-1.88l78.06-36.57c0.93-0.43,2.15-0.27,2.81,0.38c0.63,0.63,1.25,1.27,1.84,1.91
			C1226.05,541.45,1225.83,542.19,1225.11,542.53z"/>
		<path class="st46" d="M1232.72,551.25c0,0.02-0.03,0.02-0.05,0.04l-79.05,37.02c-0.94,0.44-2.19,0.16-2.72-0.6
			c-0.31-0.5-0.68-1.01-1.02-1.51c-0.16-0.22-0.31-0.44-0.47-0.66c-0.5-0.71,0.08-1.17,0.31-1.31c0.08-0.04,0.1-0.06,0.1-0.06
			l79.75-37.34c0.39-0.2,0.94-0.1,1.18,0.2c0.81,1.01,1.59,2.06,2.3,3.12c0,0,0.03,0.02,0.03,0.08
			C1233.16,550.44,1233.32,550.94,1232.72,551.25z"/>
		<path class="st46" d="M1238.47,560.85l-80.71,37.81c-0.38,0.18-0.87,0.04-1.01-0.28c-0.53-1.24-1.11-2.46-1.74-3.68
			c-0.15-0.3-0.01-0.64,0.35-0.8l80.42-37.7c0.42-0.2,0.98-0.06,1.17,0.28c0.66,1.2,1.28,2.41,1.86,3.63
			C1238.94,560.38,1238.8,560.7,1238.47,560.85z"/>
		<path class="st46" d="M1244.29,577.93c0.1,0.67-0.33,1.32-1.08,1.67l-195.38,91.44c-0.52,0.26-1.23-0.04-1.23-0.52v-4.17
			c0-0.4,0.26-0.75,0.71-0.95l194.85-91.2c0.63-0.29,1.45-0.01,1.57,0.54C1243.93,575.8,1244.13,576.86,1244.29,577.93z"/>
		<path class="st46" d="M1245.19,592.58c0.05,0.51-0.27,1-0.85,1.27l-196.51,91.98c-0.13,0.08-0.29,0.1-0.44,0.1
			c-0.42-0.02-0.78-0.26-0.78-0.62v-4.17c0-0.2,0.08-0.4,0.21-0.56c0.1-0.16,0.29-0.3,0.5-0.4l196.22-91.84
			c0.64-0.3,1.44,0.05,1.46,0.61C1245.01,590.18,1245.08,591.38,1245.19,592.58z"/>
		<path class="st46" d="M1247.9,605.79c0.21,0.62-0.13,1.27-0.85,1.61l-194.83,91.18c-0.6,0.28-1.38,0.06-1.57-0.44
			c-0.42-1.09-0.81-2.2-1.15-3.29c-0.16-0.46,0.13-0.93,0.65-1.19l195.21-91.37c0.66-0.31,1.5-0.02,1.65,0.55
			C1247.28,603.83,1247.57,604.81,1247.9,605.79z"/>
		<path class="st46" d="M1253.21,617.74c0.4,0.7,0.07,1.51-0.78,1.91l-194.16,90.89c-0.52,0.24-1.2,0.1-1.46-0.32
			c-0.65-0.95-1.23-1.95-1.8-2.92c-0.29-0.52-0.03-1.11,0.6-1.41l194.47-91.03c0.67-0.31,1.53-0.09,1.82,0.47
			C1252.32,616.15,1252.76,616.95,1253.21,617.74z"/>
		<path class="st46" d="M1261.28,629.12c0.4,0.46,0.22,1.08-0.39,1.36l-194.1,90.86c-0.5,0.22-1.12,0.12-1.46-0.24
			c-0.84-0.89-1.67-1.81-2.48-2.72c-0.37-0.42-0.18-0.99,0.37-1.25l194.1-90.86c0.67-0.31,1.53-0.14,1.93,0.36
			C1259.9,627.48,1260.58,628.3,1261.28,629.12z"/>
		<path class="st46" d="M1271.47,639.07c0.51,0.42,0.4,1.09-0.25,1.39l-193.49,90.59c-0.47,0.2-1.04,0.16-1.44-0.12
			c-1.04-0.79-2.09-1.61-3.11-2.44c-0.5-0.42-0.37-1.07,0.26-1.37l193.32-90.49c0.71-0.33,1.61-0.22,2.15,0.26
			C1269.75,637.63,1270.6,638.36,1271.47,639.07z"/>
		<path class="st46" d="M1202.99,685.57c0.72,0.42,0.68,1.25-0.1,1.62L1091.2,739.5c-0.42,0.2-0.94,0.18-1.36-0.02
			c-1.33-0.71-2.64-1.43-3.94-2.18c-0.55-0.32-0.5-0.97,0.1-1.25l111.86-52.39c0.68-0.32,1.55-0.27,2.17,0.12
			C1201.01,684.39,1201.99,684.99,1202.99,685.57z"/>
	</g>
</g>
<g>
	<linearGradient id="SVGID_1_" gradientUnits="userSpaceOnUse" x1="1211.3127" y1="680.5515" x2="1313.4917" y2="694.9">
		<stop  offset="0" style="stop-color:#076D6D"/>
		<stop  offset="1" style="stop-color:#076D6D;stop-opacity:0"/>
	</linearGradient>
	<path class="st47" d="M1206.41,684.15l25.47,11.52l77.85,5.46l31.24-14.62l-69.18-6.25l-65.19,2.69
		C1205.77,683.05,1205.63,683.92,1206.41,684.15z"/>
	<g>
		<g>
			<g>
				<path class="st8" d="M1227.09,652.15l4.79,3.7l18.21,14.05l-43.02,14.17c-0.72,0.25-1.47-0.13-1.54-0.63
					c-0.17-0.25-0.16-0.46,0-0.68L1227.09,652.15z"/>
				<g>
					<path class="st20" d="M1227.09,652.15l4.79,3.7l-3.45,7.12l-22.91,20.47c-0.17-0.25-0.16-0.46,0-0.68L1227.09,652.15z"/>
				</g>
			</g>
			<g>
				<path class="st21" d="M1470.58,490.19l6.58,5.32l16.91,13.67l-239.73,158.54c0,0,0,0.01-0.02,0.01l-0.01,0.02
					c-0.57,0.47-1.18,0.87-1.84,1.2c-1.83,0.98-4.03,1.54-6.36,1.65c-4.57,0.22-9.7-1.14-13.83-4.04c-1.55-1.09-2.83-2.3-3.82-3.56
					c0,0-0.01-0.01-0.02-0.01c-2.73-3.5-3.33-7.44-1.54-10.56c0.49-0.9,1.18-1.73,2.07-2.45c0.14-0.14,0.31-0.26,0.48-0.38
					l0.69-0.45c0.08-0.07,0.17-0.11,0.25-0.16c0.07-0.04,0.15-0.07,0.22-0.11L1470.58,490.19z"/>
				<path class="st22" d="M1470.58,490.19l6.58,5.32l-6.96,7.87L1228.5,663c0,0-0.01,0-0.03-0.02c0,0-0.01-0.01-0.02-0.01
					c-2.73-3.5-3.33-7.44-1.54-10.56c0.49-0.9,1.18-1.73,2.07-2.45c0.14-0.14,0.31-0.26,0.48-0.38l0.69-0.45
					c0.08-0.07,0.17-0.11,0.25-0.16c0.07-0.04,0.15-0.07,0.22-0.11L1470.58,490.19z"/>
				<path class="st9" d="M1492.61,491.37c6.99,4.92,8.48,12.33,3.32,16.58l-0.01,0.02c-0.57,0.47-1.18,0.87-1.84,1.21
					c-1.83,0.97-4.03,1.53-6.37,1.64c-4.57,0.23-9.7-1.14-13.83-4.03c-5.8-4.08-7.81-9.87-5.38-14.15c0.49-0.9,1.18-1.72,2.07-2.45
					c0.15-0.13,0.32-0.26,0.48-0.37l0.7-0.45c0.07-0.07,0.16-0.11,0.25-0.16C1477.4,486.06,1486.21,486.88,1492.61,491.37z"/>
				<path class="st23" d="M1429.82,517.15l20.4-13.44c-0.08,0.03-0.18,0.11-0.2,0.16c-0.84,0.7-1.42,1.45-1.9,2.29
					c-1.79,3.21-1.13,7.2,1.67,10.69c0.94,1.27,2.18,2.46,3.7,3.5c4.16,2.87,9.27,4.23,13.86,3.99c1.75-0.06,3.41-0.41,4.88-0.96
					c0.48-0.15,0.89-0.32,1.26-0.54l-19.35,12.9c0,0-0.84,0.54-1.29,0.8c-1.83,0.94-4.01,1.53-6.33,1.61
					c-4.59,0.24-9.71-1.12-13.84-4.04c-1.51-1.04-2.82-2.24-3.76-3.51c-2.8-3.49-3.39-7.47-1.63-10.63c0.5-0.88,1.18-1.72,2.1-2.45
					C1429.52,517.4,1429.7,517.28,1429.82,517.15z"/>
				<path class="st10" d="M1450.71,503.35c-0.18,0.11-0.35,0.18-0.47,0.31c0.1-0.08,0.18-0.11,0.2-0.16L1450.71,503.35z"/>
				<path class="st24" d="M1470.84,490.05c-0.92,0.73-1.59,1.52-2.04,2.46c-1.83,3.14-1.22,7.07,1.58,10.57
					c1,1.29,2.24,2.47,3.8,3.57c4.07,2.9,9.19,4.26,13.78,4.02c2.34-0.13,4.56-0.66,6.41-1.65l-19.6,13c0,0-0.8,0.6-1.29,0.8
					c-0.37,0.23-0.78,0.39-1.26,0.54c-1.44,0.66-3.25,1.02-5.09,1.12c-4.59,0.24-9.69-1.17-13.84-4.04
					c-1.49-1.09-2.82-2.24-3.78-3.46c-2.78-3.54-3.37-7.52-1.61-10.68c0.52-0.93,1.2-1.77,2.1-2.45c0.02-0.05,0.12-0.13,0.2-0.16
					l0.02-0.05c0.1-0.08,0.18-0.11,0.2-0.16l0.27-0.15L1470.84,490.05z"/>
			</g>
		</g>
	</g>
</g>
<g>
	<g>
		<path class="st0" d="M900.15,795.81l-65.1,30.04c-4.76,2.18-10.72,2.17-15.46-0.03L689.46,765.4c-3.19-1.48-3.17-5,0.02-6.47
			l67.8-31.28c4.1-1.88,9.24-1.87,13.33,0.03l129.56,60.16C904.11,789.67,904.09,794.01,900.15,795.81z"/>
		<path class="st13" d="M903.11,771.6v7.59h-0.06c0.14,1.64-0.8,3.35-2.9,4.3l-65.1,30.04c-4.78,2.18-10.73,2.18-15.48-0.02
			l-130.12-60.43c-1.28-0.61-2.02-1.54-2.28-2.53l-0.11-0.02v-8.59c0-1.25,0.82-2.51,2.42-3.24l67.8-31.27
			c4.1-1.88,9.25-1.88,13.32,0.02l129.58,60.17C902.15,768.53,903.11,770.07,903.11,771.6z"/>
		<path class="st10" d="M903.11,771.6c0,1.54-1,3.07-2.96,3.98l-65.1,30.06c-4.78,2.16-10.73,2.16-15.48-0.04l-130.12-60.43
			c-1.59-0.74-2.39-1.97-2.39-3.22c0-1.25,0.82-2.51,2.42-3.24l67.8-31.27c4.1-1.88,9.25-1.88,13.32,0.02l129.58,60.17
			C902.15,768.53,903.11,770.07,903.11,771.6z"/>
		<path class="st5" d="M890.95,769.92c0,1.36-0.88,2.73-2.63,3.53l-57.77,26.68c-4.24,1.92-9.52,1.92-13.74-0.04l-115.46-53.62
			c-1.41-0.65-2.12-1.75-2.12-2.86s0.73-2.23,2.15-2.88l60.17-27.75c3.64-1.67,8.21-1.67,11.82,0.02l114.98,53.39
			C890.09,767.19,890.95,768.56,890.95,769.92z"/>
	</g>
	<g>
		<polygon class="st48" points="842.22,767.27 818.34,778.3 812.35,775.52 836.23,764.49 		"/>
		<polygon class="st48" points="840.92,754.84 793.15,776.91 787.16,774.13 834.93,752.06 		"/>
		<polygon class="st48" points="825.14,747.48 777.38,769.55 771.39,766.77 819.15,744.7 		"/>
		<path class="st48" d="M788.86,744.35c0,4.39-9.21,7.94-20.57,7.94c-11.36,0-20.57-3.56-20.57-7.94c0-4.39,9.21-7.94,20.57-7.94
			C779.65,736.41,788.86,739.96,788.86,744.35z"/>
	</g>
</g>
</svg>
