<?xml version="1.0" encoding="utf-8"?>
<!-- Generator: Adobe Illustrator 23.0.5, SVG Export Plug-In . SVG Version: 6.00 Build 0)  -->
<svg version="1.1" id="Capa_1" xmlns="http://www.w3.org/2000/svg" xmlns:xlink="http://www.w3.org/1999/xlink" x="0px" y="0px"
	 viewBox="0 0 1366 768" style="enable-background:new 0 0 1366 768;" xml:space="preserve">
<style type="text/css">
	.st0{opacity:0.1;fill:#F7FAFB;}
	.st1{fill:#FF4746;}
	.st2{opacity:0.2;}
	.st3{fill:#FAC235;}
	.st4{fill:#F9A134;}
	.st5{fill:#F7FAFB;}
	.st6{fill:#00D1D1;}
	.st7{fill:#00F4F3;}
	.st8{opacity:0.1;}
</style>
<path class="st0" d="M891.97,453.88c-67.58,23.09-161.28,7.24-209.29-35.41s-32.15-95.94,35.43-119.03s161.28-7.24,209.29,35.41
	S959.55,430.79,891.97,453.88"/>
<g>
	<path class="st1" d="M702.3,432.76l5.89,4.76l17.59,14.23l4.94,4c0,0,48.3-7.91,88.7-24.08c0,0-11.01,2.31-22.38,1.73
		c-4.59-0.23-9.25-0.94-13.27-2.47c-5.35-2.04-6.63-4.63-5.71-7.12c1.36-3.73,7.64-7.24,12.51-8.35L702.3,432.76z"/>
	<path class="st2" d="M725.77,451.76l4.94,4c0,0,48.3-7.91,88.7-24.08c0,0-11.01,2.31-22.38,1.73L725.77,451.76z"/>
	<g>
		<g>
			<path class="st3" d="M706.84,467.69c-7.13,6.97-10.16,12.05-30.9,23.34c-0.04,0.02-0.09,0.05-0.14,0.07
				c0.06-0.01,0.12-0.02,0.18-0.03c27.58-5.22,37.18-4.45,51.68-4.88c14.56-0.43,24.09-8.23,24.09-8.23l-9.37-9.58l-0.04-0.04
				l-11.41-8.88C730.93,459.46,714.01,460.69,706.84,467.69z"/>
			<path class="st4" d="M701.38,482.37c7.98-0.82,13.89-0.92,19.99-1.02c1.99-0.03,4.04-0.07,6.16-0.13
				c6.98-0.2,16.24-4.27,19.26-6.07l-6.44-5.73l-6.63-5.89c-4.26,0.69-15.4,3.07-18.85,6.44c-1.04,1.02-2.01,2.02-2.95,2.98
				C709.05,475.93,706.26,478.8,701.38,482.37z"/>
		</g>
		<path class="st5" d="M723.25,457.78c0.5,4.46,2.32,8.47,5.47,12.02c4.61,5.2,12.05,9.43,22.34,12.69l5.87-2.47l69.07-29.07
			l3.85-1.62l2.49-1.05l10.18-4.29c5.5-2.32,6.52-6.95,2.35-10.66c-0.15-0.13-0.3-0.26-0.46-0.39c-4.28-3.43-11.92-4.81-17.91-3.19
			L814.53,433l-2.76,0.75l-4.26,1.16l-78.16,21.22L723.25,457.78z"/>
		<g>
			<path class="st1" d="M807.52,434.91c1.41,2.8,3.6,6.27,6.68,9.01c3.26,2.9,8.02,5.34,11.81,7.03l3.85-1.62
				c-3.57-1.5-8.58-3.92-11.75-6.74c-2.95-2.62-5.04-6.15-6.33-8.84L807.52,434.91z"/>
		</g>
		<path class="st1" d="M723.25,457.78c1.23,10.99,10.5,19.22,27.82,24.71l5.87-2.47c-5.09-2.01-12.86-5.58-18.28-10.39
			c-5-4.44-7.81-9.78-9.29-13.5L723.25,457.78z"/>
		<path class="st2" d="M728.72,469.8c4.61,5.2,12.05,9.43,22.34,12.69l5.87-2.47l69.07-29.07l3.85-1.62l2.49-1.05l10.18-4.29
			c5.5-2.32,6.52-6.95,2.35-10.66c-0.15-0.13-0.3-0.26-0.46-0.39c-10.9,4.96-83.32,37.59-102.03,38.28
			C737.8,471.4,733.17,470.81,728.72,469.8z"/>
		<path class="st1" d="M832.33,448.28c-1.7-0.58-3.83-1.49-6.13-2.86c-1.71-1.01-3.51-2.3-5.29-3.89c-1.51-1.34-2.71-2.63-3.63-3.82
			c-1.25-1.59-2.04-3.02-2.56-4.24c-0.05-0.16-0.13-0.31-0.17-0.46l11.96-3.25c5.88-1.61,13.36-0.29,17.68,3.01
			c0.09,0.05,0.14,0.09,0.2,0.15c0.17,0.12,0.33,0.27,0.49,0.41c0.34,0.3,0.66,0.61,0.92,0.93c3.06,3.53,1.78,7.61-3.27,9.73
			L832.33,448.28z"/>
	</g>
	<path class="st2" d="M702.3,432.76l5.89,4.76l69.86-13.71c1.36-3.73,7.64-7.24,12.51-8.35L702.3,432.76z"/>
	<path class="st2" d="M832.33,448.28c-1.7-0.58-3.83-1.49-6.13-2.86c-1.71-1.01-3.51-2.3-5.29-3.89c-1.51-1.34-2.71-2.63-3.63-3.82
		c4.77,2.83,12.28,5.42,19.12,3.54c7.52-2.07,9.14-5.22,9.4-6.99c3.06,3.53,1.78,7.61-3.27,9.73L832.33,448.28z"/>
</g>
<path class="st1" d="M732.38,362.67c-0.23,0.14-0.5,0.28-0.79,0.42L732.38,362.67z"/>
<g>
	<path class="st3" d="M653.06,445.65c-21.74,0.64-36.14-0.51-77.5,7.31c-0.09,0.02-0.18,0.03-0.27,0.05
		c0.07-0.04,0.14-0.08,0.2-0.11c31.1-16.94,35.63-24.55,46.33-35c10.75-10.49,36.12-12.34,36.12-12.34l17.11,13.32l0.07,0.06
		l14.06,14.37C689.18,433.31,674.89,445.01,653.06,445.65z"/>
	<path class="st4" d="M613.61,439.91c7.32-5.36,11.5-9.67,15.82-14.11c1.41-1.45,2.86-2.94,4.42-4.47
		c5.15-5.03,21.23-9.17,27.63-10.21l9.66,8.59l9.94,8.83c-4.52,2.7-17.75,9.35-28.26,9.66c-3.18,0.09-6.26,0.15-9.24,0.2
		C634.44,438.53,625.57,438.68,613.61,439.91z"/>
</g>
<path class="st5" d="M980.98,319.59c-3.11,8.73-10.61,25.57-26.14,40.8c-1.43,1.4-2.93,2.79-4.49,4.16
	c-2.16,1.88-4.45,3.72-6.88,5.5c-7.57,5.55-16.49,10.52-27.02,14.31c-45.29,16.34-173.01,40.85-214.96,48.68
	c-8.55,1.6-13.54,2.5-13.54,2.5c-10.69-5.22-19.2-11.18-25.52-17.89c-3.76-3.98-6.74-8.23-8.96-12.74c0,0,3.95-2.21,10.77-5.95
	c32.07-17.6,127.63-69.09,173.98-84.08c11.02-3.56,23.27-5.77,35.86-7.03c3.98-0.4,7.99-0.71,12.01-0.93
	c3.12-0.17,6.25-0.29,9.37-0.37c31.25-0.76,61.39,2.96,76.78,5.27"/>
<path class="st1" d="M701.49,433.04c-8.55,1.6-13.54,2.5-13.54,2.5c-10.69-5.22-19.2-11.18-25.52-17.89
	c-3.76-3.98-6.74-8.23-8.96-12.74c0,0,3.95-2.21,10.77-5.95c0.46,2.33,2.68,9.78,13.07,19.01
	C686.23,425.9,696.36,430.84,701.49,433.04z"/>
<g>
	<g>
		<path class="st1" d="M943.46,370.05c-13.92-7.72-30.4-17.9-42.4-28.56c-11.78-10.47-20.76-23.14-26.98-33.64
			c3.98-0.4,7.99-0.71,12.01-0.93c5.92,9.91,14.28,21.64,24.98,31.15c10.9,9.68,26.13,19.15,39.27,26.48
			C948.19,366.43,945.9,368.27,943.46,370.05z"/>
	</g>
</g>
<path class="st2" d="M978.91,314.5c-27.43,1.06-118.97,12.4-316.48,103.15c-3.76-3.98-6.74-8.23-8.96-12.74
	c0,0,128.55-71.86,184.76-90.03c11.02-3.56,23.27-5.77,35.86-7.03c3.98-0.4,7.99-0.71,12.01-0.93c3.12-0.17,6.25-0.29,9.37-0.37
	c31.25-0.76,61.39,2.96,76.78,5.27"/>
<path class="st1" d="M980.97,319.58c-2.8,7.9-9.2,22.41-21.87,36.37l0,0c-1.35,1.48-2.77,2.96-4.25,4.43
	c-6.02-3.31-12.65-7.34-19.48-12.17c-5.4-3.82-10.93-8.14-16.41-13.01c-13.6-12.08-20.28-21.68-23.49-28.66
	c31.25-0.76,61.39,2.96,76.77,5.28"/>
<g>
	
		<ellipse transform="matrix(0.1059 -0.9944 0.9944 0.1059 397.5268 1163.271)" class="st1" cx="845.66" cy="360.57" rx="20.82" ry="36.12"/>
	<path class="st6" d="M862.14,375.21c-0.1,0.03-0.21,0.07-0.31,0.1c-12.66,4.19-30.07,1.24-39.15-6.62
		c-0.08-0.06-0.15-0.13-0.22-0.19c-1.55-1.38-2.75-2.81-3.61-4.27c-1.56-2.65-1.99-5.37-1.37-7.92c0.53-2.19,1.83-4.26,3.87-6.06
		c1.95-1.73,4.57-3.21,7.82-4.32c12.79-4.37,30.59-1.36,39.68,6.71c2.31,2.05,3.84,4.24,4.62,6.43c0.82,2.28,0.83,4.58,0.07,6.72
		c-0.88,2.51-2.82,4.83-5.73,6.72C866.22,373.55,864.32,374.47,862.14,375.21z"/>
	<path class="st7" d="M873.55,365.79l-56.07-9.49c0.53-2.19,1.83-4.26,3.87-6.06l52.12,8.82
		C874.3,361.35,874.31,363.65,873.55,365.79z"/>
	<path class="st7" d="M862.14,375.21c-0.1,0.03-0.21,0.07-0.31,0.1l-39.15-6.62c-0.08-0.06-0.15-0.13-0.22-0.19
		c-1.55-1.38-2.75-2.81-3.61-4.27l48.97,8.29C866.22,373.55,864.32,374.47,862.14,375.21z"/>
	<path class="st8" d="M867.82,372.51c2.91-1.89,4.84-4.21,5.73-6.72c0.76-2.15,0.75-4.44-0.07-6.72c-0.78-2.19-2.31-4.38-4.62-6.43
		c-9.09-8.07-26.89-11.09-39.68-6.71c-0.64,0.22-1.25,0.45-1.84,0.7c12.59-3.45,29.07-0.34,37.7,7.32c2.31,2.05,3.84,4.24,4.62,6.43
		c0.82,2.28,0.83,4.58,0.07,6.72c-0.88,2.51-2.82,4.83-5.73,6.72c-1.13,0.74-2.41,1.41-3.84,2c0.56-0.15,1.12-0.32,1.66-0.5
		c0.1-0.03,0.21-0.07,0.31-0.1C864.32,374.47,866.22,373.55,867.82,372.51z"/>
</g>
<path class="st2" d="M979.4,314.93c-0.64-0.07-24.58-2.85-42.44,3.73c-18.1,6.67,1.01,28.47,22.14,37.29l0,0
	c-1.35,1.48-2.77,2.96-4.25,4.43c-6.02-3.31-12.65-7.34-19.48-12.17c-5.4-3.82-10.93-8.14-16.41-13.01
	c-13.6-12.08-20.28-21.68-23.49-28.66c31.25-0.76,61.39,2.96,76.77,5.28"/>
<line class="st3" x1="673.4" y1="417.41" x2="673.4" y2="417.41"/>
<g>
	<path class="st1" d="M664.25,398.96l-5.13-5.02l-15.32-15l-4.31-4.22c0,0,34.32-20.32,78.57-33.07c0,0-8.65,4.4-12.76,10.28
		c-1.66,2.37-2.58,4.98-1.89,7.65c0.93,3.55,4.58,5.33,9.04,5.98c6.68,0.99,15.18-0.55,19.14-2.47L664.25,398.96z"/>
	<path class="st2" d="M643.8,378.94l-4.31-4.22c0,0,34.32-20.32,78.57-33.07c0,0-8.65,4.4-12.76,10.28L643.8,378.94z"/>
	<g>
		<g>
			<path class="st3" d="M609.49,381.2c-14.5,0.42-24.1-0.34-51.68,4.88c-0.06,0.01-0.12,0.02-0.18,0.04
				c0.05-0.03,0.09-0.05,0.14-0.08c20.74-11.29,23.76-16.37,30.9-23.34c7.17-7,24.09-8.23,24.09-8.23l11.41,8.88l0.04,0.04
				l9.37,9.58C633.57,372.97,624.05,380.77,609.49,381.2z"/>
			<path class="st4" d="M583.18,377.37c4.88-3.57,7.67-6.45,10.55-9.41c0.94-0.97,1.91-1.96,2.95-2.98
				c3.43-3.35,14.16-6.12,18.43-6.81l6.44,5.73l6.63,5.89c-3.01,1.8-11.84,6.24-18.84,6.44c-2.12,0.06-4.18,0.1-6.16,0.13
				C597.07,376.45,591.16,376.55,583.18,377.37z"/>
		</g>
		<path class="st5" d="M632.88,377.5c-7.03-2.23-12.74-4.91-17.11-8.04c-6.4-4.58-9.97-10.14-10.7-16.67l6.63-1.8l77.97-21.17
			l4.35-1.18l2.81-0.76l11.5-3.12c6.22-1.69,14.2-0.13,18.37,3.58c0.15,0.13,0.29,0.27,0.43,0.4c3.67,3.64,2.53,8.02-2.78,10.26
			l-10.6,4.47l-2.44,1.03l-3.77,1.59l-69.23,29.15L632.88,377.5z"/>
		<g>
			<path class="st1" d="M707.52,346.08c-3.92-1.94-8.6-4.56-11.69-7.3c-3.26-2.9-5.13-6.33-6.18-8.95l4.35-1.18
				c0.86,2.43,2.56,5.98,5.73,8.8c2.95,2.62,7.77,5.22,11.56,7.05L707.52,346.08z"/>
		</g>
		<path class="st1" d="M632.88,377.5c-17.32-5.49-26.59-13.72-27.82-24.71l6.63-1.8c1,3.41,3.35,8.83,8.77,13.64
			c5,4.44,12.43,8.2,17.82,10.59L632.88,377.5z"/>
		<path class="st2" d="M615.76,369.46c-6.4-4.58-9.97-10.14-10.7-16.67l6.63-1.8l77.97-21.17l4.35-1.18l2.81-0.76l11.5-3.12
			c6.22-1.69,14.2-0.13,18.37,3.58c0.15,0.13,0.29,0.27,0.43,0.4c-12.91,3.18-98.15,24.42-107.59,33.35
			C617.21,364.27,616.1,366.82,615.76,369.46z"/>
		<path class="st1" d="M713.73,343.46c-0.22-0.09-0.44-0.19-0.66-0.29c-3.1-1.4-6.86-3.52-10.36-6.63
			c-4.23-3.76-5.56-6.72-5.89-8.65l11.5-3.12c6.22-1.69,14.2-0.13,18.37,3.58c0.22,0.19,0.42,0.39,0.61,0.59
			c3.45,3.6,2.26,7.88-2.96,10.07L713.73,343.46z"/>
	</g>
	<path class="st2" d="M664.25,398.96l-5.13-5.02l53.33-28.39c6.68,0.99,15.18-0.55,19.14-2.47L664.25,398.96z"/>
	<path class="st2" d="M713.07,343.17c-3.1-1.4-6.86-3.52-10.36-6.63c-4.23-3.76-5.56-6.72-5.89-8.65l11.5-3.12
		c6.22-1.69,14.2-0.13,18.37,3.58c0.22,0.19,0.42,0.39,0.61,0.59c-0.86-0.31-7.51-2.52-15.59,0.85
		C703.56,333.17,709.44,341.25,713.07,343.17z"/>
</g>
</svg>
