<?xml version="1.0" encoding="utf-8"?>
<!-- Generator: Adobe Illustrator 23.0.5, SVG Export Plug-In . SVG Version: 6.00 Build 0)  -->
<svg version="1.1" id="OBJECTS" xmlns="http://www.w3.org/2000/svg" xmlns:xlink="http://www.w3.org/1999/xlink" x="0px" y="0px"
	 viewBox="0 0 750 500" style="enable-background:new 0 0 750 500;" xml:space="preserve">
<style type="text/css">
	.st0{fill:url(#RECTANGLE_2_);}
	.st1{clip-path:url(#SVGID_2_);fill:url(#SVGID_3_);}
	.st2{clip-path:url(#SVGID_2_);fill:url(#SVGID_4_);}
	.st3{clip-path:url(#SVGID_2_);fill:url(#SVGID_5_);}
	.st4{clip-path:url(#SVGID_2_);fill:url(#SVGID_6_);}
	.st5{clip-path:url(#SVGID_2_);fill:url(#SVGID_7_);}
	.st6{clip-path:url(#SVGID_2_);}
	.st7{fill:#F50057;}
	.st8{clip-path:url(#SVGID_2_);fill:url(#SVGID_8_);}
	.st9{clip-path:url(#SVGID_2_);fill:url(#SVGID_9_);}
	.st10{clip-path:url(#SVGID_2_);fill:url(#SVGID_10_);}
	.st11{clip-path:url(#SVGID_2_);fill:url(#SVGID_11_);}
	.st12{clip-path:url(#SVGID_2_);fill:#F50057;}
	.st13{clip-path:url(#SVGID_2_);fill:url(#SVGID_12_);}
	.st14{clip-path:url(#SVGID_2_);fill:url(#SVGID_13_);}
	.st15{fill:url(#SVGID_14_);}
	.st16{fill:url(#SVGID_15_);}
	.st17{fill:url(#SVGID_16_);}
	.st18{clip-path:url(#SVGID_2_);fill:url(#SVGID_17_);}
	.st19{clip-path:url(#SVGID_2_);fill:url(#SVGID_18_);}
	.st20{clip-path:url(#SVGID_2_);fill:url(#SVGID_19_);}
	.st21{clip-path:url(#SVGID_2_);fill:url(#SVGID_20_);}
	.st22{clip-path:url(#SVGID_2_);fill:url(#SVGID_21_);}
	.st23{clip-path:url(#SVGID_2_);fill:url(#SVGID_22_);}
	.st24{fill:url(#SVGID_23_);}
	.st25{fill:url(#SVGID_24_);}
	.st26{fill:url(#SVGID_25_);}
	.st27{fill:url(#SVGID_26_);}
	.st28{clip-path:url(#SVGID_2_);fill:url(#SVGID_27_);}
	.st29{clip-path:url(#SVGID_2_);fill:url(#SVGID_28_);}
	.st30{fill:url(#SVGID_29_);}
	.st31{fill:url(#SVGID_30_);}
	.st32{clip-path:url(#SVGID_2_);fill:url(#SVGID_31_);}
	.st33{clip-path:url(#SVGID_2_);fill:url(#SVGID_32_);}
	.st34{clip-path:url(#SVGID_2_);fill:url(#SVGID_33_);}
</style>
<g id="ELEMENT_3_">
	<linearGradient id="RECTANGLE_2_" gradientUnits="userSpaceOnUse" x1="0" y1="250" x2="750" y2="250">
		<stop  offset="0" style="stop-color:#441066"/>
		<stop  offset="1" style="stop-color:#A9008D"/>
	</linearGradient>
	<rect id="RECTANGLE_1_" class="st0" width="750" height="500"/>
	<g id="ELEMENT_2_">
		<defs>
			<rect id="SVGID_1_" width="750" height="500"/>
		</defs>
		<clipPath id="SVGID_2_">
			<use xlink:href="#SVGID_1_"  style="overflow:visible;"/>
		</clipPath>
		
			<linearGradient id="SVGID_3_" gradientUnits="userSpaceOnUse" x1="337.5672" y1="499.8615" x2="183.347" y2="95.0344" gradientTransform="matrix(-1 0 0 -1 846.859 677.5416)">
			<stop  offset="0" style="stop-color:#F70068"/>
			<stop  offset="1" style="stop-color:#441066"/>
		</linearGradient>
		<path class="st1" d="M33.26,504.9c0,0-38.99-212.5,292.65-165.97c228.09,32,168.59-161.39,331.75-237.83
			c159.15-74.56,279.7,154.07,417.33-15.29v417.54L33.26,504.9z"/>
		<linearGradient id="SVGID_4_" gradientUnits="userSpaceOnUse" x1="396.1124" y1="160.6202" x2="424.7868" y2="131.9458">
			<stop  offset="5.405410e-03" style="stop-color:#FF0068"/>
			<stop  offset="1" style="stop-color:#FFC107"/>
		</linearGradient>
		<path class="st2" d="M429.55,135.03l-12.23,12.23c-2.12,2.12-5.55,2.12-7.67,0l0,0c-2.12-2.12-2.12-5.55,0-7.67l6.68-6.68
			c2.12-2.12,2.12-5.55,0-7.67l-0.54-0.54c-2.12-2.12-5.55-2.12-7.67,0l-23.33,22.99c-2.12,2.12-2.12,5.55,0,7.67l0.54,0.54
			c2.12,2.12,5.55,2.12,7.67,0l3.82-3.82c2.12-2.12,5.55-2.12,7.67,0l0,0c2.12,2.12,2.12,5.55,0,7.67l-4.44,4.44
			c-2.12,2.12-2.12,5.55,0,7.67l0.54,0.54c2.12,2.12,5.55,2.12,7.67,0l29.51-29.16c2.12-2.12,2.12-5.55,0-7.67l-0.54-0.54
			C435.1,132.91,431.66,132.91,429.55,135.03z"/>
		<linearGradient id="SVGID_5_" gradientUnits="userSpaceOnUse" x1="657.7261" y1="184.942" x2="705.7613" y2="136.9068">
			<stop  offset="0" style="stop-color:#441066"/>
			<stop  offset="1" style="stop-color:#A9008D"/>
		</linearGradient>
		<path class="st3" d="M713.73,142.07l-20.49,20.49c-3.55,3.55-9.3,3.55-12.85,0l0,0c-3.55-3.55-3.55-9.3,0-12.85l11.19-11.19
			c3.55-3.55,3.55-9.3,0-12.85l-0.9-0.9c-3.55-3.55-9.3-3.55-12.85,0l-39.08,38.51c-3.55,3.55-3.55,9.3,0,12.85l0.9,0.9
			c3.55,3.55,9.3,3.55,12.85,0l6.41-6.41c3.55-3.55,9.3-3.55,12.85,0l0,0c3.55,3.55,3.55,9.3,0,12.85l-7.45,7.45
			c-3.55,3.55-3.55,9.3,0,12.85l0.9,0.9c3.55,3.55,9.3,3.55,12.85,0l49.43-48.85c3.55-3.55,3.55-9.3,0-12.85l-0.9-0.9
			C723.03,138.52,717.28,138.52,713.73,142.07z"/>
		
			<linearGradient id="SVGID_6_" gradientUnits="userSpaceOnUse" x1="120.6313" y1="544.9617" x2="224.772" y2="544.9617" gradientTransform="matrix(0.6321 0.3679 0.3679 0.6321 19.234 -19.234)">
			<stop  offset="5.405410e-03" style="stop-color:#FF0068"/>
			<stop  offset="1" style="stop-color:#FFC107"/>
		</linearGradient>
		<path class="st4" d="M342.36,391.72l-10.53,10.53c-4.53,4.53-11.88,4.53-16.42,0l0,0c-4.53-4.53-4.53-11.88,0-16.42l10.53-10.53
			c4.53-4.53,11.88-4.53,16.42,0l0,0C346.9,379.83,346.9,387.18,342.36,391.72z"/>
		
			<linearGradient id="SVGID_7_" gradientUnits="userSpaceOnUse" x1="257.8919" y1="260.885" x2="139.8831" y2="370.893" gradientTransform="matrix(1.1638 -0.1638 -0.1638 1.1638 -39.4698 39.4698)">
			<stop  offset="5.405410e-03" style="stop-color:#FF0068"/>
			<stop  offset="1" style="stop-color:#FFC107"/>
		</linearGradient>
		<path class="st5" d="M210.61,338.88L76.79,472.7c-9.79,9.79-25.66,9.79-35.45,0l0,0c-9.79-9.79-9.79-25.66,0-35.45l133.82-133.82
			c9.79-9.79,25.66-9.79,35.45,0l0,0C220.4,313.22,220.4,329.09,210.61,338.88z"/>
		<g class="st6">
			<path class="st7" d="M217.22,419.6L217.22,419.6c-0.96,0-1.73-0.78-1.73-1.73v-7.97c0-0.96,0.78-1.73,1.73-1.73l6.24,0
				c0.96,0,1.73-0.78,1.73-1.73v-6.24c0-0.96,0.78-1.73,1.73-1.73l6.24,0c0.96,0,1.73-0.78,1.73-1.73v-6.24
				c0-0.96,0.78-1.73,1.73-1.73l6.24,0c0.96,0,1.73-0.78,1.73-1.73v-6.24c0-0.96,0.78-1.73,1.73-1.73l6.24,0
				c0.96,0,1.73-0.78,1.73-1.73v-6.24c0-0.96,0.78-1.73,1.73-1.73l7.97,0c0.96,0,1.73,0.78,1.73,1.73v0c0,0.96-0.78,1.73-1.73,1.73
				l-4.51,0c-0.96,0-1.73,0.78-1.73,1.73v6.24c0,0.96-0.78,1.73-1.73,1.73l-6.24,0c-0.96,0-1.73,0.78-1.73,1.73v6.24
				c0,0.96-0.78,1.73-1.73,1.73l-6.24,0c-0.96,0-1.73,0.78-1.73,1.73v6.24c0,0.96-0.78,1.73-1.73,1.73l-6.24,0
				c-0.96,0-1.73,0.78-1.73,1.73v6.24c0,0.96-0.78,1.73-1.73,1.73l-6.24,0c-0.96,0-1.73,0.78-1.73,1.73v4.51
				C218.96,418.83,218.18,419.6,217.22,419.6z"/>
		</g>
		<linearGradient id="SVGID_8_" gradientUnits="userSpaceOnUse" x1="295.9199" y1="315.626" x2="311.6965" y2="315.626">
			<stop  offset="5.405410e-03" style="stop-color:#FF0068"/>
			<stop  offset="1" style="stop-color:#FFC107"/>
		</linearGradient>
		<path class="st8" d="M303.95,323.51c-4.35,0.08-7.95-3.4-8.02-7.75c-0.08-4.35,3.4-7.95,7.75-8.02c4.35-0.08,7.95,3.4,8.02,7.75
			C311.77,319.84,308.29,323.44,303.95,323.51z M303.73,311.39c-2.33,0.04-4.2,1.97-4.16,4.3c0.04,2.33,1.97,4.2,4.3,4.16
			c2.33-0.04,4.2-1.97,4.16-4.3C308,313.22,306.07,311.35,303.73,311.39z"/>
		<linearGradient id="SVGID_9_" gradientUnits="userSpaceOnUse" x1="457.9562" y1="97.7822" x2="465.8443" y2="97.7822">
			<stop  offset="5.405410e-03" style="stop-color:#FF0068"/>
			<stop  offset="1" style="stop-color:#FFC107"/>
		</linearGradient>
		<path class="st9" d="M461.97,101.73c-2.17,0.04-3.97-1.7-4.01-3.87c-0.04-2.17,1.7-3.97,3.87-4.01c2.17-0.04,3.97,1.7,4.01,3.87
			C465.88,99.89,464.14,101.69,461.97,101.73z M461.86,95.67c-1.17,0.02-2.1,0.99-2.08,2.15c0.02,1.17,0.99,2.1,2.15,2.08
			c1.17-0.02,2.1-0.99,2.08-2.15C464,96.58,463.03,95.65,461.86,95.67z"/>
		<linearGradient id="SVGID_10_" gradientUnits="userSpaceOnUse" x1="566.2895" y1="279.0337" x2="574.1776" y2="279.0337">
			<stop  offset="5.405410e-03" style="stop-color:#FF0068"/>
			<stop  offset="1" style="stop-color:#FFC107"/>
		</linearGradient>
		<path class="st10" d="M570.3,282.98c-2.17,0.04-3.97-1.7-4.01-3.87c-0.04-2.17,1.7-3.97,3.87-4.01c2.17-0.04,3.97,1.7,4.01,3.88
			C574.21,281.14,572.48,282.94,570.3,282.98z M570.2,276.92c-1.17,0.02-2.1,0.99-2.08,2.15c0.02,1.17,0.99,2.1,2.15,2.08
			c1.17-0.02,2.1-0.99,2.08-2.15C572.33,277.83,571.36,276.9,570.2,276.92z"/>
		<linearGradient id="SVGID_11_" gradientUnits="userSpaceOnUse" x1="33.8182" y1="206.1877" x2="58.3328" y2="206.1877">
			<stop  offset="5.405410e-03" style="stop-color:#FF0068"/>
			<stop  offset="1" style="stop-color:#FFC107"/>
		</linearGradient>
		<path class="st11" d="M46.29,218.44c-6.76,0.12-12.35-5.28-12.47-12.04c-0.12-6.76,5.28-12.35,12.04-12.47
			c6.76-0.12,12.35,5.28,12.47,12.04C58.45,212.73,53.05,218.33,46.29,218.44z M45.96,199.61c-3.63,0.06-6.52,3.06-6.46,6.69
			c0.06,3.63,3.06,6.52,6.69,6.46c3.63-0.06,6.52-3.06,6.46-6.69C52.59,202.45,49.59,199.55,45.96,199.61z"/>
		<path class="st12" d="M507.73,161.81c-6.76,0.12-12.35-5.28-12.47-12.04c-0.12-6.76,5.28-12.35,12.04-12.47
			c6.76-0.12,12.35,5.28,12.47,12.04C519.89,156.1,514.49,161.69,507.73,161.81z M507.41,142.98c-3.63,0.06-6.52,3.06-6.46,6.69
			c0.06,3.63,3.06,6.52,6.69,6.46c3.63-0.06,6.52-3.06,6.46-6.69C514.03,145.81,511.03,142.92,507.41,142.98z"/>
		<path class="st12" d="M386.57,430.87c-6.76,0.12-12.35-5.28-12.47-12.04c-0.12-6.76,5.28-12.35,12.04-12.47
			c6.76-0.12,12.35,5.28,12.47,12.04C398.73,425.16,393.33,430.75,386.57,430.87z M386.24,412.04c-3.63,0.06-6.52,3.06-6.46,6.69
			c0.06,3.63,3.06,6.52,6.69,6.46c3.63-0.06,6.52-3.06,6.46-6.69C392.87,414.87,389.87,411.98,386.24,412.04z"/>
		<path class="st12" d="M359.56,115.77c-3.62,0.06-6.62-2.83-6.68-6.46c-0.06-3.62,2.83-6.62,6.46-6.68
			c3.62-0.06,6.62,2.83,6.68,6.46C366.08,112.71,363.19,115.71,359.56,115.77z M359.39,105.68c-1.94,0.03-3.5,1.64-3.46,3.59
			c0.03,1.94,1.64,3.5,3.59,3.46c1.94-0.03,3.5-1.64,3.46-3.59C362.94,107.2,361.33,105.64,359.39,105.68z"/>
		<linearGradient id="SVGID_12_" gradientUnits="userSpaceOnUse" x1="492.0753" y1="351.3764" x2="561.5891" y2="351.3764">
			<stop  offset="5.405410e-03" style="stop-color:#FF0068"/>
			<stop  offset="1" style="stop-color:#FFC107"/>
		</linearGradient>
		<path class="st13" d="M527.44,386.13c-19.16,0.33-35.02-14.98-35.36-34.15c-0.33-19.16,14.98-35.02,34.15-35.36
			c19.16-0.33,35.02,14.99,35.36,34.15C561.92,369.93,546.6,385.79,527.44,386.13z M526.51,332.73
			c-10.28,0.18-18.5,8.69-18.32,18.97c0.18,10.28,8.69,18.5,18.97,18.32c10.28-0.18,18.5-8.69,18.32-18.97
			C545.3,340.77,536.79,332.55,526.51,332.73z"/>
		<linearGradient id="SVGID_13_" gradientUnits="userSpaceOnUse" x1="211.0753" y1="90.8764" x2="280.589" y2="90.8764">
			<stop  offset="5.405410e-03" style="stop-color:#FF0068"/>
			<stop  offset="1" style="stop-color:#FFC107"/>
		</linearGradient>
		<path class="st14" d="M246.44,125.63c-19.16,0.33-35.02-14.98-35.36-34.15c-0.33-19.16,14.98-35.02,34.15-35.36
			c19.16-0.33,35.02,14.99,35.36,34.15C280.92,109.43,265.6,125.29,246.44,125.63z M245.51,72.23c-10.28,0.18-18.5,8.69-18.32,18.97
			s8.69,18.5,18.97,18.32c10.28-0.18,18.5-8.69,18.32-18.97C264.3,80.27,255.79,72.05,245.51,72.23z"/>
		<g class="st6">
			<g>
				<polygon class="st7" points="501.03,90.96 492.04,81.97 501.03,72.99 503.57,75.52 497.12,81.97 503.57,88.42 				"/>
			</g>
			<g>
				<polygon class="st7" points="512.15,90.96 503.17,81.97 512.15,72.99 514.69,75.52 508.24,81.97 514.69,88.42 				"/>
			</g>
			<g>
				<polygon class="st7" points="523.28,90.96 514.29,81.97 523.28,72.99 525.81,75.52 519.37,81.97 525.81,88.42 				"/>
			</g>
			<g>
				<polygon class="st7" points="534.4,90.96 525.41,81.97 534.4,72.99 536.94,75.52 530.49,81.97 536.94,88.42 				"/>
			</g>
		</g>
		<g class="st6">
			<g>
				<polygon class="st7" points="377.53,316.96 368.54,307.97 377.53,298.99 380.07,301.52 373.62,307.97 380.07,314.42 				"/>
			</g>
			<g>
				<polygon class="st7" points="388.65,316.96 379.67,307.97 388.65,298.99 391.19,301.52 384.74,307.97 391.19,314.42 				"/>
			</g>
			<g>
				<polygon class="st7" points="399.78,316.96 390.79,307.97 399.78,298.99 402.31,301.52 395.87,307.97 402.31,314.42 				"/>
			</g>
			<g>
				<polygon class="st7" points="410.9,316.96 401.91,307.97 410.9,298.99 413.44,301.52 406.99,307.97 413.44,314.42 				"/>
			</g>
		</g>
		<g class="st6">
			<linearGradient id="SVGID_14_" gradientUnits="userSpaceOnUse" x1="406.0523" y1="430.3786" x2="493.0523" y2="540.3787">
				<stop  offset="0" style="stop-color:#F70068"/>
				<stop  offset="1" style="stop-color:#441066"/>
			</linearGradient>
			<path class="st15" d="M277.7,499.99c0,0,8.93-78.32,83.97-58.89c112.63,29.16,86.25-32.98,174.75-28.79
				c82.24,3.9,81.85,87.68,81.85,87.68H277.7z"/>
			<linearGradient id="SVGID_15_" gradientUnits="userSpaceOnUse" x1="566.8052" y1="381.7184" x2="638.8051" y2="537.7184">
				<stop  offset="0" style="stop-color:#F70068"/>
				<stop  offset="1" style="stop-color:#441066"/>
			</linearGradient>
			<path class="st16" d="M458.2,499.99c0,0-2.8-42.24,43.91-42.24c46.71,0,83.06-1.53,93.48-64.9c8.5-51.67,88.67-52.3,106.21-10.04
				c17.54,42.26,48.2,42.26,48.2,42.26V500L458.2,499.99z"/>
		</g>
		<g class="st6">
			<linearGradient id="SVGID_16_" gradientUnits="userSpaceOnUse" x1="38.1649" y1="248.7931" x2="90.3145" y2="248.7931">
				<stop  offset="0" style="stop-color:#441066"/>
				<stop  offset="1" style="stop-color:#A9008D"/>
			</linearGradient>
			<path class="st17" d="M39.96,274.87L39.96,274.87c-0.99,0-1.8-0.81-1.8-1.8v-8.27c0-0.99,0.81-1.8,1.8-1.8h6.47
				c0.99,0,1.8-0.81,1.8-1.8v-6.47c0-0.99,0.81-1.8,1.8-1.8h6.47c0.99,0,1.8-0.81,1.8-1.8v-6.47c0-0.99,0.81-1.8,1.8-1.8h6.47
				c0.99,0,1.8-0.81,1.8-1.8v-6.47c0-0.99,0.81-1.8,1.8-1.8h6.47c0.99,0,1.8-0.81,1.8-1.8v-6.47c0-0.99,0.81-1.8,1.8-1.8h8.27
				c0.99,0,1.8,0.81,1.8,1.8l0,0c0,0.99-0.81,1.8-1.8,1.8h-4.68c-0.99,0-1.8,0.81-1.8,1.8v6.47c0,0.99-0.81,1.8-1.8,1.8h-6.47
				c-0.99,0-1.8,0.81-1.8,1.8v6.47c0,0.99-0.81,1.8-1.8,1.8H63.7c-0.99,0-1.8,0.81-1.8,1.8v6.47c0,0.99-0.81,1.8-1.8,1.8h-6.47
				c-0.99,0-1.8,0.81-1.8,1.8v6.47c0,0.99-0.81,1.8-1.8,1.8h-6.47c-0.99,0-1.8,0.81-1.8,1.8v4.68
				C41.76,274.06,40.96,274.87,39.96,274.87z"/>
		</g>
		
			<linearGradient id="SVGID_17_" gradientUnits="userSpaceOnUse" x1="166.8456" y1="207.7516" x2="55.8529" y2="328.7435" gradientTransform="matrix(1.0333 -0.0333 -0.0333 1.0333 26.6488 -26.6488)">
			<stop  offset="0" style="stop-color:#F70068"/>
			<stop  offset="1" style="stop-color:#441066"/>
		</linearGradient>
		<path class="st18" d="M186.67,209.39l-92.33,92.33c-4.53,4.53-11.88,4.53-16.42,0l0,0c-4.53-4.53-4.53-11.88,0-16.42l92.33-92.33
			c4.53-4.53,11.88-4.53,16.42,0l0,0C191.2,197.5,191.2,204.86,186.67,209.39z"/>
		
			<linearGradient id="SVGID_18_" gradientUnits="userSpaceOnUse" x1="1016.2092" y1="513.8708" x2="901.463" y2="619.3362" gradientTransform="matrix(1.5696 0.5696 0.5696 1.5696 -1165.376 -1165.375)">
			<stop  offset="5.405410e-03" style="stop-color:#FF0068"/>
			<stop  offset="1" style="stop-color:#FFC107"/>
		</linearGradient>
		<path class="st19" d="M715.94,247.91l-56.4,56.4c-8.18,8.18-21.45,8.18-29.64,0l0,0c-8.18-8.18-8.18-21.45,0-29.64l56.4-56.4
			c8.18-8.18,21.45-8.18,29.64,0h0C724.13,226.46,724.13,239.73,715.94,247.91z"/>
		
			<linearGradient id="SVGID_19_" gradientUnits="userSpaceOnUse" x1="666.4927" y1="117.0281" x2="530.4886" y2="242.0321" gradientTransform="matrix(0.9111 -0.0889 -0.0889 0.9111 182.4266 182.4271)">
			<stop  offset="0" style="stop-color:#441066"/>
			<stop  offset="1" style="stop-color:#A9008D"/>
		</linearGradient>
		<path class="st20" d="M774.63,244.21l-88.47,88.47c-3.73,3.73-9.77,3.73-13.5,0l0,0c-3.73-3.73-3.73-9.77,0-13.5l88.47-88.47
			c3.73-3.73,9.77-3.73,13.5,0l0,0C778.36,234.44,778.36,240.48,774.63,244.21z"/>
		<linearGradient id="SVGID_20_" gradientUnits="userSpaceOnUse" x1="279.0813" y1="419.8048" x2="257.248" y2="438.6382">
			<stop  offset="0" style="stop-color:#441066"/>
			<stop  offset="1" style="stop-color:#A9008D"/>
		</linearGradient>
		<polygon class="st21" points="282.3,437.09 273.93,428.72 282.3,420.35 277.11,415.17 268.74,423.54 260.37,415.17 255.19,420.35 
			263.56,428.72 255.19,437.09 260.37,442.28 268.74,433.91 277.11,442.28 		"/>
		<linearGradient id="SVGID_21_" gradientUnits="userSpaceOnUse" x1="604.7181" y1="212.7152" x2="582.8847" y2="231.5485">
			<stop  offset="5.405410e-03" style="stop-color:#FF0068"/>
			<stop  offset="1" style="stop-color:#FFC107"/>
		</linearGradient>
		<polygon class="st22" points="607.93,230 599.56,221.63 607.93,213.27 602.75,208.08 594.38,216.45 586.01,208.08 580.82,213.27 
			589.19,221.63 580.82,230 586.01,235.19 594.38,226.82 602.75,235.19 		"/>
		<linearGradient id="SVGID_22_" gradientUnits="userSpaceOnUse" x1="189.4495" y1="244.3425" x2="216.5573" y2="244.3425">
			<stop  offset="5.405410e-03" style="stop-color:#FF0068"/>
			<stop  offset="1" style="stop-color:#FFC107"/>
		</linearGradient>
		<polygon class="st23" points="216.56,235.97 211.37,230.79 203,239.16 194.63,230.79 189.45,235.97 197.82,244.34 189.45,252.71 
			194.63,257.9 203,249.53 211.37,257.9 216.56,252.71 208.19,244.34 		"/>
		<g class="st6">
			<linearGradient id="SVGID_23_" gradientUnits="userSpaceOnUse" x1="226.0619" y1="130.7643" x2="164.4326" y2="-31.0124">
				<stop  offset="0" style="stop-color:#F70068"/>
				<stop  offset="1" style="stop-color:#441066"/>
			</linearGradient>
			<path class="st24" d="M416.29,0c0,0,15.58,84.92-116.95,66.32c-91.15-12.79-67.37,64.5-132.57,95.04
				C103.18,191.16,55,99.79,0,167.48V0.62L416.29,0z"/>
			<linearGradient id="SVGID_24_" gradientUnits="userSpaceOnUse" x1="210.8988" y1="63.8237" x2="187.7879" y2="-20.9165">
				<stop  offset="0" style="stop-color:#F70068"/>
				<stop  offset="1" style="stop-color:#441066"/>
			</linearGradient>
			<path class="st25" d="M353.83,0.55c0,0,2.62,63.84-89.99,38.01c-69.46-19.38-87.14,62.62-142.17,62.62
				c-40.35,0-89.54-23.87-74.94-100.63H353.83z"/>
		</g>
		<g class="st6">
			<g>
				<linearGradient id="SVGID_25_" gradientUnits="userSpaceOnUse" x1="92.6128" y1="488.1985" x2="171.6128" y2="325.1984">
					<stop  offset="0" style="stop-color:#441066"/>
					<stop  offset="1" style="stop-color:#A9008D"/>
				</linearGradient>
				<path class="st26" d="M0,353c0,0,59.49-24.19,77.29,27.35c17.79,51.54,107.49-25.95,107.49,53.38
					c0,45.4,81.36,13.26,60.25,66.27H0V353z"/>
				<linearGradient id="SVGID_26_" gradientUnits="userSpaceOnUse" x1="96.2456" y1="528.3281" x2="174.2454" y2="400.3286">
					<stop  offset="0" style="stop-color:#441066"/>
					<stop  offset="1" style="stop-color:#A9008D"/>
				</linearGradient>
				<path class="st27" d="M198.89,500c-6.67-39.24-40.81-69.12-81.95-69.12c-41.14,0-75.28,29.88-81.95,69.12H198.89z"/>
			</g>
		</g>
		<path class="st12" d="M460.66,29.34l-2.46,2.46l-2.46-2.46c-0.6-0.6-1.59-0.6-2.19,0s-0.6,1.59,0,2.19L456,34l-2.46,2.46
			c-0.6,0.6-0.6,1.59,0,2.19s1.59,0.6,2.19,0l2.46-2.46l2.46,2.46c0.6,0.6,1.59,0.6,2.19,0c0.6-0.6,0.6-1.59,0-2.19L460.38,34
			l2.46-2.46c0.6-0.6,0.6-1.59,0-2.19C462.24,28.74,461.26,28.74,460.66,29.34z"/>
		<path class="st12" d="M436.07,377.62h-3.49v-3.49c0-0.86-0.69-1.55-1.55-1.55c-0.86,0-1.55,0.69-1.55,1.55v3.49H426
			c-0.86,0-1.55,0.69-1.55,1.55c0,0.86,0.69,1.55,1.55,1.55h3.49v3.49c0,0.86,0.69,1.55,1.55,1.55c0.86,0,1.55-0.69,1.55-1.55v-3.49
			h3.49c0.86,0,1.55-0.69,1.55-1.55C437.62,378.31,436.92,377.62,436.07,377.62z"/>
		<linearGradient id="SVGID_27_" gradientUnits="userSpaceOnUse" x1="596.3976" y1="158.9061" x2="609.5643" y2="158.9061">
			<stop  offset="5.405410e-03" style="stop-color:#FF0068"/>
			<stop  offset="1" style="stop-color:#FFC107"/>
		</linearGradient>
		<path class="st28" d="M608.02,157.36h-3.49v-3.49c0-0.86-0.69-1.55-1.55-1.55c-0.86,0-1.55,0.69-1.55,1.55v3.49h-3.49
			c-0.86,0-1.55,0.69-1.55,1.55c0,0.86,0.69,1.55,1.55,1.55h3.49v3.49c0,0.86,0.69,1.55,1.55,1.55c0.86,0,1.55-0.69,1.55-1.55v-3.49
			h3.49c0.86,0,1.55-0.69,1.55-1.55C609.56,158.05,608.87,157.36,608.02,157.36z"/>
		<linearGradient id="SVGID_28_" gradientUnits="userSpaceOnUse" x1="288.5343" y1="168.7843" x2="301.701" y2="168.7843">
			<stop  offset="5.405410e-03" style="stop-color:#FF0068"/>
			<stop  offset="1" style="stop-color:#FFC107"/>
		</linearGradient>
		<path class="st29" d="M300.15,167.24h-3.49v-3.49c0-0.86-0.69-1.55-1.55-1.55c-0.86,0-1.55,0.69-1.55,1.55v3.49h-3.49
			c-0.86,0-1.55,0.69-1.55,1.55c0,0.86,0.69,1.55,1.55,1.55h3.49v3.49c0,0.86,0.69,1.55,1.55,1.55c0.86,0,1.55-0.69,1.55-1.55v-3.49
			h3.49c0.86,0,1.55-0.69,1.55-1.55C301.7,167.93,301.01,167.24,300.15,167.24z"/>
		<g class="st6">
			<linearGradient id="SVGID_29_" gradientUnits="userSpaceOnUse" x1="606.1277" y1="-3.2518" x2="559.1276" y2="78.7482">
				<stop  offset="5.405410e-03" style="stop-color:#FF0068"/>
				<stop  offset="1" style="stop-color:#FFC107"/>
			</linearGradient>
			<path class="st30" d="M497.01-0.25c0,0-2.93,44.37,44.5,36c51-9,43.94,43.27,88.47,43.27c36.53,0,19.01-49.78,51.01-54.02
				s24.75-25.75,24.75-25.75L497.01-0.25z"/>
			<linearGradient id="SVGID_30_" gradientUnits="userSpaceOnUse" x1="621.1771" y1="-0.9852" x2="615.7614" y2="54.5251">
				<stop  offset="0" style="stop-color:#441066"/>
				<stop  offset="1" style="stop-color:#A9008D"/>
			</linearGradient>
			<path class="st31" d="M565.46,0c5.11,26.06,28.07,45.72,55.62,45.72S671.59,26.06,676.7,0H565.46z"/>
		</g>
		<linearGradient id="SVGID_31_" gradientUnits="userSpaceOnUse" x1="27.006" y1="257.425" x2="-0.1591" y2="277.2765">
			<stop  offset="0" style="stop-color:#F70068"/>
			<stop  offset="1" style="stop-color:#441066"/>
		</linearGradient>
		<path class="st32" d="M0,244.43v59c15.93-0.43,28.71-13.47,28.71-29.5C28.71,257.9,15.93,244.86,0,244.43z"/>
		<linearGradient id="SVGID_32_" gradientUnits="userSpaceOnUse" x1="725.3919" y1="332.6071" x2="756.1945" y2="376.9991">
			<stop  offset="0" style="stop-color:#F70068"/>
			<stop  offset="1" style="stop-color:#441066"/>
		</linearGradient>
		<path class="st33" d="M750,327.77c-16.09,0.25-29.05,13.36-29.05,29.51c0,16.15,12.96,29.26,29.05,29.51V327.77z"/>
		<linearGradient id="SVGID_33_" gradientUnits="userSpaceOnUse" x1="750.8973" y1="65.9779" x2="686.2398" y2="74.7337">
			<stop  offset="0" style="stop-color:#441066"/>
			<stop  offset="1" style="stop-color:#A9008D"/>
		</linearGradient>
		<path class="st34" d="M750,20.99c-24.8,0.25-44.83,20.43-44.83,45.29s20.03,45.04,44.83,45.29V20.99z"/>
	</g>
</g>
</svg>
