<?xml version="1.0" encoding="utf-8"?>
<!-- Generator: Adobe Illustrator 16.0.3, SVG Export Plug-In . SVG Version: 6.00 Build 0)  -->
<!DOCTYPE svg PUBLIC "-//W3C//DTD SVG 1.1//EN" "http://www.w3.org/Graphics/SVG/1.1/DTD/svg11.dtd">
<svg version="1.1" id="Capa_1" xmlns="http://www.w3.org/2000/svg" xmlns:xlink="http://www.w3.org/1999/xlink" x="0px" y="0px"
	 width="960px" height="560px" viewBox="0 0 960 560" enable-background="new 0 0 960 560" xml:space="preserve">
<g>
	<g>
		<linearGradient id="SVGID_1_" gradientUnits="userSpaceOnUse" x1="315.1011" y1="274.6831" x2="615.53" y2="274.6831">
			<stop  offset="0" style="stop-color:#40D5E6"/>
			<stop  offset="1" style="stop-color:#5577FF"/>
		</linearGradient>
		<path fill="url(#SVGID_1_)" d="M323.259,374.838h270.428V184.001c0-5.232-4.241-9.473-9.474-9.473h-251.48
			c-5.232,0-9.474,4.24-9.474,9.473V374.838z"/>
	</g>
	<g>
		<linearGradient id="SVGID_2_" gradientUnits="userSpaceOnUse" x1="332.8184" y1="261.3833" x2="583.6484" y2="261.3833">
			<stop  offset="0" style="stop-color:#404B61"/>
			<stop  offset="0.486" style="stop-color:#3C4860"/>
			<stop  offset="1" style="stop-color:#2F3E5C"/>
		</linearGradient>
		<rect x="332.818" y="184.339" fill="url(#SVGID_2_)" width="250.83" height="154.089"/>
	</g>
	<g>
		<path fill="#6AAFE8" d="M306.471,185.052h-63.803l0.111-0.568c1.024-5.256,5.662-9.07,11.026-9.07c0.774,0,1.546,0.08,2.3,0.24
			c3.324-6.318,9.782-10.227,16.943-10.227c6.103,0,11.855,2.93,15.462,7.854c1.313-0.4,2.681-0.603,4.066-0.603
			c6.942,0,12.75,4.973,13.809,11.824L306.471,185.052z M243.844,184.098h61.502c-1.199-6.005-6.592-10.466-12.769-10.466
			c-1.402,0-2.782,0.222-4.102,0.66l-0.337,0.111l-0.203-0.289c-3.412-4.842-8.977-7.732-14.887-7.732
			c-6.923,0-13.154,3.844-16.263,10.032l-0.171,0.34l-0.369-0.091c-0.795-0.196-1.615-0.296-2.44-0.296
			C249.092,176.367,244.992,179.585,243.844,184.098z"/>
	</g>
	<g>
		<path fill="#6AAFE8" d="M540.787,106.516l-0.216-0.111c-22.642-11.56-19.601-33.947-19.568-34.172l0.061-0.407h0.411
			c14.396,0,18.92-4.639,18.964-4.686l0.351-0.373l0.35,0.375c0.043,0.045,4.566,4.684,18.962,4.684h0.411l0.061,0.407
			c0.033,0.225,3.074,22.612-19.568,34.172L540.787,106.516z M521.902,72.779c-0.287,3.032-1.24,22.25,18.885,32.666
			c20.127-10.416,19.173-29.634,18.887-32.666c-12.499-0.078-17.586-3.56-18.887-4.664C539.488,69.219,534.4,72.701,521.902,72.779z
			"/>
	</g>
	<g>
		<g>
			<linearGradient id="SVGID_3_" gradientUnits="userSpaceOnUse" x1="663.8213" y1="353.9961" x2="728.3594" y2="353.9961">
				<stop  offset="0" style="stop-color:#3076A1"/>
				<stop  offset="1" style="stop-color:#639C38"/>
			</linearGradient>
			<path fill="url(#SVGID_3_)" d="M664.68,404.048c-3.408-15.574,3.956-19.461,11.077-23.219
				c5.819-3.072,11.316-5.973,11.023-15.151c-0.388-12.168,7.901-16.595,15.214-20.5c5.441-2.906,10.579-5.65,11.346-11.188
				c1.845-13.321,14.133-29.88,14.256-30.045l0.764,0.571c-0.123,0.162-12.265,16.527-14.075,29.605
				c-0.833,6.017-6.181,8.872-11.841,11.896c-7.414,3.959-15.08,8.053-14.711,19.629c0.313,9.773-5.709,12.951-11.531,16.024
				c-7.119,3.757-13.844,7.306-10.591,22.172L664.68,404.048z"/>
		</g>
		<g>
			<linearGradient id="SVGID_4_" gradientUnits="userSpaceOnUse" x1="658.2148" y1="344.5879" x2="742.4785" y2="344.5879">
				<stop  offset="0" style="stop-color:#3076A1"/>
				<stop  offset="1" style="stop-color:#639C38"/>
			</linearGradient>
			<path fill="url(#SVGID_4_)" d="M668.42,400.078c-0.163,0-0.326-0.006-0.491-0.018c-3.08-0.229-6.099-2.569-9.501-7.363
				l-0.213-0.301l0.238-0.282c0.055-0.066,5.508-6.712,3.506-19.189c-0.468-2.912-1.092-5.14-1.594-6.929
				c-0.732-2.611-1.216-4.336-0.406-5.713c1.029-1.747,3.809-2.663,11.639-4.527c8.338-1.986,11.125-11.38,13.585-19.668
				c2.316-7.807,4.511-15.169,10.998-14.941c5.962,0.228,15.016-9.114,23.003-17.349c7.413-7.642,14.408-14.841,18.882-14.698
				c1.074,0.039,1.98,0.489,2.693,1.338c3.987,4.749,0.268,11.954-3.329,18.921c-3.069,5.943-5.969,11.557-4.104,15.26
				c2.346,4.652,2.674,8.863,0.949,12.173c-2.039,3.919-6.795,6.445-14.135,7.509c-6.711,0.974-7.436,8.292-8.204,16.041
				c-0.896,9.043-1.912,19.291-13.173,20.266c-8.362,0.724-13.999,6.594-18.973,11.773
				C675.836,396.498,672.398,400.078,668.42,400.078z M659.411,392.435c3.099,4.292,5.91,6.477,8.588,6.676
				c3.743,0.277,7.154-3.276,11.104-7.391c5.09-5.301,10.858-11.309,19.578-12.063c10.473-0.906,11.404-10.313,12.307-19.41
				c0.806-8.131,1.566-15.811,9.016-16.891c7.02-1.017,11.536-3.373,13.427-7.005c1.576-3.027,1.247-6.937-0.955-11.304
				c-2.085-4.137,0.923-9.962,4.106-16.127c3.455-6.689,7.026-13.607,3.447-17.871c-0.539-0.643-1.193-0.969-1.998-0.998
				c-4.043-0.135-10.902,6.925-18.163,14.409c-8.415,8.676-17.113,17.642-23.479,17.643c-0.081,0-0.162-0.001-0.243-0.004
				c-5.753-0.214-7.745,6.494-10.05,14.259c-2.532,8.536-5.403,18.211-14.278,20.324c-7.081,1.687-10.179,2.627-11.036,4.084
				c-0.605,1.027-0.188,2.512,0.502,4.973c0.508,1.813,1.14,4.067,1.616,7.034C664.76,384.369,660.488,390.984,659.411,392.435z"/>
		</g>
		<g>
			<linearGradient id="SVGID_5_" gradientUnits="userSpaceOnUse" x1="638.8555" y1="331.8398" x2="693.208" y2="331.8398">
				<stop  offset="0" style="stop-color:#3076A1"/>
				<stop  offset="1" style="stop-color:#639C38"/>
			</linearGradient>
			<path fill="url(#SVGID_5_)" d="M668.768,396.815c-0.111,0-0.223-0.005-0.334-0.016c-5.051-0.46-8.936-11.525-12.691-22.227
				c-1.782-5.076-3.465-9.871-5.104-12.948c-1.271-2.388-2.887-4.877-4.449-7.284c-4.161-6.411-8.464-13.041-7.063-18.858
				c0.736-3.061,2.933-5.607,6.715-7.787c8.277-4.771,7.005-7.464,4.215-13.367c-2.048-4.332-4.853-10.265-4.961-19.601
				c-0.046-4.013-0.139-7.482-0.222-10.543c-0.264-9.84-0.396-14.778,1.705-16.565c0.87-0.739,2.087-0.93,3.829-0.599
				c2.98,0.567,4.269,2.974,5.633,5.52c1.74,3.25,3.713,6.933,9.666,8.179c5.587,1.169,10.961,2.763,12.443,6.476
				c1.043,2.61,0.057,6.043-3.018,10.495c-0.745,1.079-1.001,1.997-0.781,2.806c0.486,1.793,3.27,3.092,6.494,4.596
				c4.586,2.141,10.295,4.805,11.912,10.319c1.303,4.446-0.205,9.991-4.609,16.951c-10.419,16.468-10,27.637-9.631,37.489
				c0.274,7.302,0.533,14.198-3.87,21.903C672.702,395.155,670.775,396.814,668.768,396.815z M648.915,267.816
				c-0.744,0-1.304,0.175-1.721,0.528c-1.753,1.492-1.617,6.579-1.369,15.814c0.082,3.064,0.175,6.537,0.222,10.557
				c0.105,9.128,2.859,14.952,4.869,19.205c2.768,5.856,4.438,9.391-4.601,14.6c-3.543,2.043-5.593,4.393-6.265,7.185
				c-1.304,5.419,2.886,11.874,6.938,18.117c1.573,2.425,3.2,4.931,4.49,7.354c1.674,3.143,3.368,7.97,5.162,13.081
				c3.486,9.932,7.438,21.189,11.879,21.594c1.695,0.151,3.478-1.384,5.299-4.57c4.268-7.469,4.025-13.922,3.745-21.396
				c-0.374-9.991-0.799-21.316,9.778-38.033c4.248-6.717,5.721-12.008,4.499-16.175c-1.495-5.102-6.758-7.558-11.4-9.724
				c-3.438-1.604-6.409-2.989-7.011-5.209c-0.297-1.097,0.003-2.272,0.917-3.598c2.879-4.169,3.833-7.309,2.917-9.6
				c-1.319-3.304-6.682-4.834-11.753-5.896c-6.389-1.338-8.563-5.399-10.312-8.662c-1.309-2.442-2.438-4.552-4.971-5.033
				C649.737,267.863,649.301,267.816,648.915,267.816z"/>
		</g>
		<g>
			<linearGradient id="SVGID_6_" gradientUnits="userSpaceOnUse" x1="653.9619" y1="343.5928" x2="670.4414" y2="343.5928">
				<stop  offset="0" style="stop-color:#3076A1"/>
				<stop  offset="1" style="stop-color:#639C38"/>
			</linearGradient>
			<path fill="url(#SVGID_6_)" d="M668.867,402.721l-0.908-0.287c5.092-16.095-4.119-52.206-6.863-60.994
				c-1.351-4.321-0.104-10.827,1.104-17.118c1.559-8.125,3.17-16.527-0.939-19.677c-7.715-5.915-7.309-19.6-7.288-20.18l0.952,0.035
				c-0.004,0.137-0.407,13.773,6.916,19.389c4.576,3.507,2.908,12.203,1.295,20.612c-1.184,6.176-2.408,12.561-1.131,16.654
				C665.4,352.023,673.947,386.664,668.867,402.721z"/>
		</g>
		<linearGradient id="SVGID_7_" gradientUnits="userSpaceOnUse" x1="616.6641" y1="346.8594" x2="669.8662" y2="346.8594">
			<stop  offset="0" style="stop-color:#3076A1"/>
			<stop  offset="1" style="stop-color:#639C38"/>
		</linearGradient>
		<path fill="url(#SVGID_7_)" d="M630.353,298.179c-2.12-5.381-10.399-4.564-9.638,3.044c0.76,7.609,6.087,15.726-2.029,28.661
			c-8.117,12.936,10.398,15.472,16.993,23.588s8.878,19.276,14.458,26.379c5.58,7.102,9.385,24.096,13.949,17.755
			c4.566-6.341,0.27-14.587,0.776-26.001s10.666-18.64,0.507-25.995c-10.16-7.356-20.377-9.611-17.022-26.2
			C649.826,312.09,636.947,314.919,630.353,298.179z"/>
		<g>
			<path fill="#FFFFFF" d="M671.479,399.073c-0.056-0.337-5.696-33.771-18.325-42.934c-12.878-9.343-15.218-17.975-19.716-38.328
				l0.931-0.205c4.443,20.102,6.748,28.624,19.345,37.763c12.945,9.392,18.477,42.158,18.706,43.549L671.479,399.073z"/>
		</g>
		<linearGradient id="SVGID_8_" gradientUnits="userSpaceOnUse" x1="652.2871" y1="467.4004" x2="697.0484" y2="293.3289">
			<stop  offset="0" style="stop-color:#3076A1"/>
			<stop  offset="1" style="stop-color:#639C38"/>
		</linearGradient>
		<path fill="url(#SVGID_8_)" d="M660.084,397.875c0,0,3.753-9.279-3.076-22.47c-6.83-13.191-12.357-11.162,4.105-21.31
			c16.462-10.147,0.104-42.11,14.117-46.168c14.014-4.06,26.19-55.793,36.845-49.206c10.655,6.588-3.552,31.956,4.059,39.565
			c7.61,7.611,8.626,17.295-7.103,25.136c-15.729,7.842,11.162,37.776-10.146,46.908
			C677.575,379.464,683.688,415.272,660.084,397.875z"/>
		<g>
			<path fill="#FFFFFF" d="M666.594,407.718c-0.024-0.119-2.315-12.001,4.924-27.354c7.375-15.641,10.905-32.739,9.443-45.739
				c-0.793-7.039,3.717-9.793,8.079-12.456c4.294-2.622,8.734-5.333,8.489-12.27c-0.221-6.266,2.431-20.955,2.544-21.577
				l0.938,0.171c-0.028,0.151-2.748,15.209-2.529,21.373c0.264,7.493-4.418,10.352-8.946,13.115
				c-4.296,2.624-8.353,5.101-7.628,11.537c1.48,13.168-2.081,30.458-9.528,46.251c-7.097,15.05-4.876,26.644-4.853,26.759
				L666.594,407.718z"/>
		</g>
		<path fill="#FFFFFF" d="M683.813,342.152c4.785-4.444,11.113-5.085,9.795,1.508s-5.84,8.478-3.578,12.621
			c2.26,4.145,6.027,8.288-0.377,13.375c-6.405,5.086-9.984,5.65-11.868,15.259c-1.884,9.606-1.507,16.167-9.796,16.577
			c-8.289,0.409-5.086-11.681-2.449-17.144c0,0,3.956-6.233,1.318-14.419c-2.637-8.186-7.723-12.606,3.015-15.388
			S680.586,345.149,683.813,342.152z"/>
		<g>
			<linearGradient id="SVGID_9_" gradientUnits="userSpaceOnUse" x1="668.5566" y1="377.166" x2="688.2246" y2="377.166">
				<stop  offset="0" style="stop-color:#3076A1"/>
				<stop  offset="1" style="stop-color:#639C38"/>
			</linearGradient>
			<path fill="url(#SVGID_9_)" d="M668.588,407.634c-0.027-1.176-0.597-28.851,4.58-33.509c5.286-4.758,6.302-13.165,6.437-17.753
				c0.177-5.979,7.899-9.527,8.229-9.675l0.392,0.868c-0.075,0.034-7.509,3.453-7.668,8.834c-0.17,5.79-1.479,13.689-6.752,18.434
				c-4.854,4.369-4.271,32.495-4.265,32.779L668.588,407.634z"/>
		</g>
		<linearGradient id="SVGID_10_" gradientUnits="userSpaceOnUse" x1="651.668" y1="412.627" x2="688.0293" y2="412.627">
			<stop  offset="0" style="stop-color:#FF9340"/>
			<stop  offset="1" style="stop-color:#FFCE45"/>
		</linearGradient>
		<polygon fill="url(#SVGID_10_)" points="688.029,396.339 679.442,428.914 660.254,428.914 651.668,396.339 		"/>
		<linearGradient id="SVGID_11_" gradientUnits="userSpaceOnUse" x1="651.668" y1="412.627" x2="688.0293" y2="412.627">
			<stop  offset="0" style="stop-color:#C97332"/>
			<stop  offset="1" style="stop-color:#FFCE45"/>
		</linearGradient>
		<path fill="url(#SVGID_11_)" d="M688.029,396.339c0,0-18.902,3.549-18.902,32.575h-8.873l-8.586-32.575H688.029z"/>
	</g>
	<g>
		<rect x="324.481" y="311.211" fill="#1487E3" width="25.272" height="2.861"/>
	</g>
	<g>
		<polygon fill="#78C2FF" points="319.206,232.26 278.871,232.26 278.871,180.678 279.824,180.678 279.824,231.307 319.206,231.307 
					"/>
	</g>
	<g>
		<polygon fill="#78C2FF" points="489.934,198.272 488.98,198.272 488.98,145.082 540.311,145.082 540.311,100.35 541.265,100.35 
			541.265,146.036 489.934,146.036 		"/>
	</g>
	<g>
		<polygon fill="#78C2FF" points="655.757,257.521 602.35,257.521 602.35,256.567 654.803,256.567 654.803,225.557 655.757,225.557 
					"/>
	</g>
	<g>
		<path fill="#FF7E55" d="M256.472,300.619c0,0-1.144,16.046,1.991,17.967c1.964,1.203,9.795,5.261,9.563,6.022
			c-0.232,0.761-4.422,6.77-4.422,6.77s-15.042-9.905-15.527-13.026c-0.474-3.05,0.74-23.495,2.809-24.438
			c1.549-0.706,2.365-0.122,4.318,1.327C257.941,297.274,256.472,300.619,256.472,300.619z"/>
	</g>
	<g>
		<g>
			<g>
				<path fill="#424773" d="M254.723,417.394c0,0-0.468,3.247-0.525,3.734c-0.059,0.487-5.204-0.287-5.204-0.287l-0.417-3.865
					C248.576,416.976,254.08,416.936,254.723,417.394z"/>
			</g>
		</g>
	</g>
	<g>
		<g>
			<g>
				<path fill="#292C47" d="M254.252,420.715c0,0,1.629,1.957,3.206,2.81s4.054,1.19,4.987,2.074
					c0.672,0.637,2.451,3.379-4.098,3.324c-6.549-0.056-9.705,0.388-10.406-0.664c-0.702-1.052,1.015-7.764,1.015-7.764
					S250.507,421.053,254.252,420.715z"/>
			</g>
		</g>
	</g>
	<g>
		<g>
			<g>
				<path fill="#424773" d="M280.473,417.394c0,0-0.469,3.247-0.527,3.734s-5.203-0.287-5.203-0.287l-0.416-3.865
					C274.326,416.976,279.83,416.936,280.473,417.394z"/>
			</g>
		</g>
	</g>
	<g>
		<g>
			<g>
				<path fill="#292C47" d="M280.001,420.715c0,0,1.63,1.957,3.206,2.81c1.577,0.853,7.379,1.553,8.312,2.437
					c0.673,0.637,1.792,3.202-7.421,2.962c-6.547-0.171-9.705,0.388-10.408-0.664c-0.701-1.052,1.016-7.764,1.016-7.764
					S276.166,421.091,280.001,420.715z"/>
			</g>
		</g>
	</g>
	<g>
		<g>
			<g>
				<path fill="#292C47" d="M256.568,333.966c0,0-4.834,7.682-4.474,14.624c0.36,6.943-0.431,14.36-1.157,21.612
					c-0.809,8.086-3.015,24.913-3.135,29.237c-0.121,4.326,0.157,20.601,0.157,20.601l8.386-0.063c0,0,2.977-32.878,4.42-36.293
					c1.441-3.415,7.363-28.115,7.604-30.847S256.568,333.966,256.568,333.966z"/>
			</g>
		</g>
	</g>
	<g>
		<g>
			<g>
				<path fill="#292C47" d="M282.018,335.007c0,0,1.91,18.875,2.391,23.125c0.48,4.249,0.152,22.662,0.392,25.318
					c0.241,2.655-1.606,30.746-2.062,36.096l-9.217-0.059c0,0-0.636-22.724-0.636-33.764c0-11.041-2.833-23.894-6.079-31.178
					c-3.246-7.285-10.676-7.457-12.671-20.973C254.136,333.573,279.316,330.721,282.018,335.007z"/>
			</g>
		</g>
	</g>
	<g>
		<g>
			<g>
				<path fill="#EEA886" d="M261.676,269.206c0,0,5.76-3.848,9.805,0.274c4.045,4.121,6.033,13.813,3.129,15.747
					c-2.905,1.934-7.833,2.441-10.172-0.184c-2.339-2.623-4.836-6.627-5.449-9.549C258.373,272.571,260.215,270.437,261.676,269.206
					z"/>
			</g>
		</g>
	</g>
	<g>
		<g>
			<g>
				<path fill="#EEA886" d="M272.65,285.88c0,0-0.075,4.049,0.371,4.911c0.447,0.863-8.406,0.886-8.406,0.886
					s-0.719-4.694-2.082-8.66C261.171,279.05,272.65,285.88,272.65,285.88z"/>
			</g>
		</g>
	</g>
	<g>
		<g>
			<g>
				<path fill="#754836" d="M262.756,282.951c0,0,0.825,0.841,3.163-0.111c2.339-0.953,4.538-4.882,5.468-5.474
					c0.932-0.594,0.8-1.191,0.8-1.191l0.854,0.777l1.093-0.187c0,0-1.663-2.657-0.459-4.185c1.203-1.527-3.741-8.99-10.887-4.434
					c0,0-5.591,3.058-4.572,6.407C259.234,277.904,261.018,281.573,262.756,282.951z"/>
			</g>
		</g>
	</g>
	<g>
		<g>
			<g>
				<path fill="#E2D2CA" d="M273.547,290.688c0,0-0.027-1.648-0.775-1.807c-0.747-0.158-8.25-0.88-9.168-0.519v1.92
					C263.604,290.282,265.372,291.37,273.547,290.688z"/>
			</g>
		</g>
	</g>
	<g>
		<g>
			<g>
				<path fill="#EEA886" d="M271.734,274.976c-0.27-0.539-2.105-1.827-2.25,0.049c-0.144,1.877,1.805,3.896,2.535,3.512
					S272.421,276.34,271.734,274.976z"/>
			</g>
		</g>
	</g>
	<g>
		<g>
			<g>
				<path fill="#754836" d="M260.011,270.197c0,0-8.238,2.209,2.411,12.436L260.011,270.197z"/>
			</g>
		</g>
	</g>
	<g>
		<g>
			<path fill="#EEA886" d="M333.611,313.996l-8.395-0.077c0.725-0.422,1.896-1.18,1.637-1.525c-0.37-0.492-2.747,0.589-3.713,0.688
				c-0.886,0.091-2.371-0.023-3.498,0.388l-2.651,1.13l2.431,2.249c0,0,4.391,0.63,5.676,0.72c2.09,0.147,8.484-2.342,8.59-2.72
				C333.879,314.167,333.611,313.996,333.611,313.996z"/>
		</g>
	</g>
	<g>
		<g>
			<g>
				<path fill="#FF7E55" d="M284.506,292.973c-5.34-0.938-10.959-2.285-10.959-2.285l-9.943-0.406c0,0-9.125,2.009-12.719,3.633
					c-0.342,0.154-0.342,8.142-1.278,10.235l2.979,6.286c0,0,1.722,12.452,2.078,17.989c0.164,2.543-3.549,23.84-3.549,23.84
					s3.979,1.171,10.766,1.919c6.785,0.748,23.741-0.271,23.848-1.071c0.107-0.802-3.283-29.845-3.434-31.349
					c-0.23-2.309,0.666-12.975,0.666-12.975c1.279,1.717,8.672,8.159,12.28,10.206c2.567,1.456,8.864,0.566,10.719,0.378
					c4.015-0.411,15.104-1.204,15.321-1.599c0.173-0.236-0.638-4.28-1.102-4.435c-0.406-0.136-14.723-0.843-18.313-0.657
					c-1.457,0.077-6.21-5.231-6.21-5.231S287.451,294.296,284.506,292.973z"/>
			</g>
		</g>
	</g>
	<g>
		<polygon fill="#FFCB55" points="223.357,252.78 249.64,252.78 249.64,271.829 249.64,275.841 245.627,271.829 223.357,271.829 		
			"/>
	</g>
	<g>
		<g>
			<g>
				<path fill="#6AAFE8" d="M646.59,192.156h-25.535v-25.535h25.535V192.156z M621.906,191.305h23.832v-23.833h-23.832V191.305z"/>
			</g>
			<g>
				<path fill="#6AAFE8" d="M710.143,175.983h-58.445v-6.242h58.445V175.983z M652.547,175.133h56.744v-4.54h-56.744V175.133z"/>
			</g>
			<g>
				<path fill="#6AAFE8" d="M710.143,205.012h-89.088v-6.241h89.088V205.012z M621.906,204.161h87.385v-4.54h-87.385V204.161z"/>
			</g>
			<g>
				<path fill="#6AAFE8" d="M677.799,216.999h-56.744v-6.242h56.744V216.999z M621.906,216.147h55.041v-4.539h-55.041V216.147z"/>
			</g>
			<g>
				<path fill="#6AAFE8" d="M691.275,187.892h-39.578v-6.242h39.578V187.892z M652.547,187.04h37.877v-4.54h-37.877V187.04z"/>
			</g>
		</g>
		<g>
			<path fill="#6AAFE8" d="M720.286,230.573H610.912v-77.527h109.374V230.573z M611.764,229.722h107.671v-75.824H611.764V229.722z"
				/>
		</g>
	</g>
	<g>
		<polygon fill="#6AAFE8" points="572.348,118.325 564.164,118.325 564.164,117.372 571.395,117.372 571.395,110.149 
			572.348,110.149 		"/>
	</g>
	<g>
		<polygon fill="#6AAFE8" points="517.319,118.325 509.135,118.325 509.135,110.149 510.09,110.149 510.09,117.372 517.319,117.372 
					"/>
	</g>
	<g>
		<polygon fill="#6AAFE8" points="510.093,63.301 509.139,63.301 509.139,55.117 517.316,55.117 517.316,56.07 510.093,56.07 		"/>
	</g>
	<g>
		<polygon fill="#6AAFE8" points="572.348,63.297 571.395,63.297 571.395,56.074 564.164,56.074 564.164,55.121 572.348,55.121 		
			"/>
	</g>
	<g>
		<rect x="571.395" y="75.517" fill="#6AAFE8" width="0.953" height="22.412"/>
	</g>
	<g>
		<rect x="509.135" y="75.517" fill="#6AAFE8" width="0.955" height="22.412"/>
	</g>
	<g>
		<path fill="#78C2FF" d="M279.349,181.155c-1.933,0-3.503-1.572-3.503-3.504c0-1.931,1.57-3.502,3.503-3.502
			c1.931,0,3.502,1.571,3.502,3.502C282.851,179.583,281.279,181.155,279.349,181.155z M279.349,175.103
			c-1.406,0-2.55,1.145-2.55,2.549c0,1.406,1.144,2.549,2.55,2.549c1.405,0,2.548-1.143,2.548-2.549
			C281.896,176.247,280.754,175.103,279.349,175.103z"/>
	</g>
	<g>
		<path fill="#78C2FF" d="M540.787,100.827c-1.931,0-3.502-1.572-3.502-3.503s1.571-3.502,3.502-3.502
			c1.932,0,3.503,1.571,3.503,3.502S542.719,100.827,540.787,100.827z M540.787,94.775c-1.404,0-2.549,1.144-2.549,2.549
			c0,1.406,1.145,2.549,2.549,2.549c1.406,0,2.549-1.143,2.549-2.549C543.336,95.919,542.193,94.775,540.787,94.775z"/>
	</g>
	<g>
		<path fill="#78C2FF" d="M655.28,226.198c-1.931,0-3.503-1.572-3.503-3.503s1.572-3.503,3.503-3.503s3.502,1.572,3.502,3.503
			S657.211,226.198,655.28,226.198z M655.28,220.146c-1.405,0-2.55,1.144-2.55,2.549s1.145,2.549,2.55,2.549
			s2.549-1.144,2.549-2.549S656.686,220.146,655.28,220.146z"/>
	</g>
	<g>
		<path fill="#A1D4FF" d="M302.579,83.894h-24.042V59.851h24.042V83.894z M279.49,82.94h22.135V60.805H279.49V82.94z"/>
	</g>
	<g>
		<rect x="290.081" y="66.404" fill="#A1D4FF" width="0.953" height="11.207"/>
	</g>
	<g>
		<rect x="284.955" y="71.531" fill="#A1D4FF" width="11.205" height="0.954"/>
	</g>
	<g>
		<path fill="#A1D4FF" d="M668.963,112.896h-34.367V88.363h34.367V112.896z M635.551,111.942h32.458V89.317h-32.458V111.942z"/>
	</g>
	<g>
		<polygon fill="#A1D4FF" points="651.779,103.223 634.771,89.208 635.377,88.472 651.779,101.987 668.184,88.472 668.789,89.208 		
			"/>
	</g>
	<g>
		
			<rect x="653.358" y="105.44" transform="matrix(0.6882 0.7255 -0.7255 0.6882 283.3566 -447.502)" fill="#A1D4FF" width="17.924" height="0.954"/>
	</g>
	<g>
		
			<rect x="640.764" y="96.955" transform="matrix(0.7263 0.6874 -0.6874 0.7263 248.3107 -411.7838)" fill="#A1D4FF" width="0.953" height="17.924"/>
	</g>
	<g>
		<path fill="#A1D4FF" d="M362.572,137.542l-0.357-0.936c-0.32-0.041-0.635-0.113-0.94-0.215l-0.729,0.684l-2.117-1.506l0.408-0.914
			c-0.197-0.256-0.368-0.529-0.513-0.818l-1.001-0.031l-0.431-2.563l0.935-0.358c0.041-0.321,0.114-0.636,0.216-0.94l-0.685-0.729
			l1.507-2.118l0.913,0.408c0.256-0.195,0.529-0.367,0.818-0.512l0.031-1l2.563-0.432l0.358,0.934
			c0.319,0.043,0.636,0.115,0.94,0.217l0.73-0.686l2.117,1.508l-0.408,0.913c0.196,0.255,0.367,0.529,0.512,0.818l1.001,0.031
			l0.431,2.563l-0.934,0.357c-0.043,0.32-0.115,0.635-0.217,0.941l0.686,0.729l-1.508,2.117l-0.913-0.408
			c-0.255,0.197-0.528,0.368-0.817,0.513l-0.032,1.001L362.572,137.542z M361.107,135.567l0.209,0.08
			c0.379,0.145,0.777,0.236,1.186,0.271l0.223,0.019l0.307,0.802l1.408-0.237l0.027-0.857l0.205-0.092
			c0.373-0.167,0.719-0.384,1.029-0.645l0.172-0.145l0.783,0.35l0.827-1.163l-0.587-0.625l0.08-0.209
			c0.146-0.379,0.236-0.777,0.272-1.186l0.02-0.223l0.8-0.307l-0.236-1.408l-0.857-0.027l-0.092-0.205
			c-0.166-0.371-0.383-0.719-0.645-1.029l-0.145-0.172l0.35-0.782l-1.162-0.828l-0.626,0.587l-0.209-0.08
			c-0.38-0.146-0.778-0.236-1.185-0.271l-0.223-0.02l-0.308-0.801l-1.407,0.236l-0.027,0.857l-0.205,0.092
			c-0.373,0.166-0.72,0.383-1.031,0.645l-0.17,0.145l-0.783-0.35l-0.828,1.163l0.587,0.625l-0.081,0.21
			c-0.145,0.377-0.236,0.776-0.271,1.185l-0.02,0.223l-0.801,0.307l0.238,1.407l0.857,0.028l0.091,0.204
			c0.166,0.373,0.384,0.72,0.646,1.031l0.144,0.171l-0.349,0.782l1.162,0.828L361.107,135.567z M362.875,134.378
			c-0.582,0-1.148-0.18-1.632-0.524c-1.27-0.903-1.567-2.671-0.664-3.94s2.672-1.567,3.94-0.664
			c0.615,0.438,1.023,1.088,1.148,1.833c0.125,0.744-0.047,1.493-0.484,2.107c-0.438,0.615-1.088,1.022-1.833,1.148
			C363.192,134.364,363.033,134.378,362.875,134.378z M362.885,129.441c-0.66,0-1.312,0.309-1.723,0.886
			c-0.327,0.459-0.455,1.019-0.361,1.574c0.094,0.557,0.398,1.043,0.857,1.369l0,0c0.459,0.327,1.018,0.455,1.574,0.361
			c0.555-0.094,1.042-0.398,1.368-0.857c0.327-0.459,0.456-1.018,0.362-1.574c-0.094-0.555-0.398-1.041-0.857-1.368
			C363.734,129.568,363.308,129.441,362.885,129.441z"/>
	</g>
	<g>
		<path fill="#A1D4FF" d="M342.719,140.53l-0.799-2.086c-0.856-0.096-1.697-0.288-2.506-0.573l-1.627,1.527l-4.421-3.146l0.91-2.038
			c-0.534-0.671-0.992-1.402-1.363-2.18l-2.232-0.07l-0.901-5.351l2.086-0.797c0.096-0.857,0.289-1.697,0.574-2.507l-1.527-1.628
			l3.145-4.42l2.039,0.91c0.671-0.535,1.402-0.992,2.18-1.363l0.07-2.232l5.35-0.901l0.799,2.086
			c0.855,0.097,1.695,0.289,2.506,0.575l1.627-1.528l4.42,3.146l-0.91,2.037c0.535,0.672,0.992,1.402,1.364,2.181l2.231,0.07
			l0.902,5.351l-2.086,0.797c-0.097,0.857-0.289,1.697-0.575,2.507l1.528,1.627l-3.146,4.421l-2.037-0.91
			c-0.671,0.535-1.402,0.992-2.18,1.363l-0.07,2.232L342.719,140.53z M339.193,136.77l0.279,0.106
			c0.906,0.348,1.857,0.564,2.828,0.648l0.298,0.025l0.731,1.911l3.81-0.642l0.064-2.045l0.272-0.122
			c0.891-0.397,1.719-0.915,2.46-1.539l0.229-0.192l1.867,0.834l2.239-3.148l-1.398-1.49l0.106-0.279
			c0.347-0.904,0.565-1.856,0.648-2.828l0.025-0.297l1.911-0.732l-0.643-3.809l-2.045-0.064l-0.121-0.273
			c-0.397-0.891-0.916-1.719-1.539-2.459l-0.192-0.229l0.833-1.867l-3.146-2.24l-1.491,1.398l-0.278-0.106
			c-0.906-0.347-1.857-0.564-2.828-0.647l-0.299-0.025l-0.73-1.911l-3.81,0.642l-0.065,2.045l-0.272,0.122
			c-0.89,0.397-1.718,0.915-2.46,1.539l-0.229,0.192l-1.866-0.834l-2.239,3.147l1.398,1.491l-0.107,0.279
			c-0.347,0.904-0.564,1.855-0.648,2.827l-0.025,0.298l-1.91,0.731l0.642,3.81l2.045,0.064l0.121,0.273
			c0.397,0.89,0.915,1.718,1.54,2.459l0.191,0.229l-0.833,1.866l3.147,2.24L339.193,136.77z M343.198,133.271
			c-1.237,0-2.486-0.37-3.569-1.141c-2.771-1.974-3.422-5.833-1.449-8.605c1.973-2.771,5.832-3.422,8.604-1.449
			s3.423,5.833,1.45,8.604C347.032,132.37,345.129,133.271,343.198,133.271z M343.214,121.889c-1.632,0-3.241,0.763-4.257,2.19
			c-0.809,1.135-1.126,2.518-0.895,3.891c0.232,1.374,0.984,2.576,2.119,3.384c2.344,1.668,5.607,1.118,7.275-1.226
			c0.808-1.135,1.125-2.518,0.895-3.891c-0.232-1.375-0.984-2.576-2.12-3.385C345.315,122.202,344.26,121.889,343.214,121.889z"/>
	</g>
	<g>
		<g>
			<g>
				<path fill="#78C2FF" d="M217.922,145.548c-9.811,0-17.793-7.982-17.793-17.793h0.953c0,9.285,7.555,16.839,16.84,16.839
					s16.84-7.554,16.84-16.839s-7.555-16.84-16.84-16.84v-0.953c9.811,0,17.793,7.982,17.793,17.793
					S227.732,145.548,217.922,145.548z M217.922,143.074c-8.447,0-15.318-6.872-15.318-15.319s6.871-15.319,15.318-15.319
					s15.319,6.872,15.319,15.319h-0.954c0-7.922-6.444-14.365-14.365-14.365c-7.922,0-14.365,6.443-14.365,14.365
					c0,7.921,6.443,14.365,14.365,14.365V143.074z"/>
			</g>
		</g>
	</g>
	<g>
		<polygon fill="#78C2FF" points="215.742,133.649 209.324,127.231 209.999,126.558 215.742,132.301 225.846,122.198 
			226.52,122.872 		"/>
	</g>
	<linearGradient id="SVGID_12_" gradientUnits="userSpaceOnUse" x1="458.5142" y1="335.2275" x2="458.5142" y2="501.8039">
		<stop  offset="0" style="stop-color:#40D5E6"/>
		<stop  offset="1" style="stop-color:#5577FF"/>
	</linearGradient>
	<polygon fill="url(#SVGID_12_)" points="593.676,345.916 458.514,345.916 323.354,345.916 293.771,456.483 459.4,456.483 
		623.257,456.483 	"/>
	<path fill="#FFFFFF" d="M333.58,365.314h16.608c0.694,0,1.218,0.54,1.088,1.122l-1.608,7.225c-0.1,0.445-0.557,0.768-1.088,0.768
		h-16.893c-0.709,0-1.236-0.561-1.081-1.151l1.893-7.224C332.611,365.622,333.061,365.314,333.58,365.314z"/>
	<polygon fill="#FFFFFF" points="357.805,365.314 370.359,365.314 368.689,374.429 355.895,374.429 	"/>
	<polygon fill="#FFFFFF" points="376.639,365.314 389.193,365.314 387.881,374.429 375.084,374.441 	"/>
	<polygon fill="#FFFFFF" points="395.472,365.314 408.027,365.314 407.072,374.429 394.277,374.429 	"/>
	<polygon fill="#FFFFFF" points="414.306,365.314 426.861,365.314 426.264,374.429 413.47,374.429 	"/>
	<polygon fill="#FFFFFF" points="433.139,365.314 445.695,365.314 445.457,374.429 432.661,374.441 	"/>
	<polygon fill="#FFFFFF" points="583.852,365.314 565.018,365.314 567.047,374.429 586.238,374.429 	"/>
	<polygon fill="#FFFFFF" points="558.739,365.314 546.184,365.314 547.855,374.429 560.649,374.429 	"/>
	<polygon fill="#FFFFFF" points="539.906,365.314 527.35,365.314 528.662,374.429 541.459,374.441 	"/>
	<polygon fill="#FFFFFF" points="521.072,365.314 508.516,365.314 509.471,374.429 522.266,374.429 	"/>
	<polygon fill="#FFFFFF" points="502.238,365.314 489.682,365.314 490.279,374.429 503.073,374.429 	"/>
	<polygon fill="#FFFFFF" points="483.404,365.314 470.848,365.314 471.088,374.429 483.883,374.441 	"/>
	<polygon fill="#FFFFFF" points="451.973,365.314 464.529,365.314 464.736,374.429 451.973,374.429 	"/>
	<polygon fill="#FFFFFF" points="328.056,381.22 354.293,381.22 352.798,390.622 326.063,390.622 	"/>
	<polygon fill="#FFFFFF" points="587.947,381.22 555.516,381.22 557.363,390.622 590.41,390.622 	"/>
	<polygon fill="#FFFFFF" points="549.029,381.22 536.058,381.22 537.535,390.622 550.754,390.622 	"/>
	<polygon fill="#FFFFFF" points="529.571,381.22 516.599,381.22 517.707,390.622 530.926,390.622 	"/>
	<polygon fill="#FFFFFF" points="510.113,381.22 497.141,381.22 497.879,390.622 511.098,390.622 	"/>
	<polygon fill="#FFFFFF" points="490.654,381.22 477.682,381.22 478.051,390.622 491.27,390.622 	"/>
	<polygon fill="#FFFFFF" points="324.137,397.979 350.959,397.979 349.002,407.318 321.689,407.318 	"/>
	<polygon fill="#FFFFFF" points="357.665,397.979 371.076,397.979 369.486,407.318 355.83,407.318 	"/>
	<polygon fill="#FFFFFF" points="377.782,397.979 391.193,397.979 478.36,397.979 478.734,407.318 376.314,407.318 	"/>
	<polygon fill="#FFFFFF" points="485.074,397.979 498.484,397.979 499.219,407.318 485.563,407.318 	"/>
	<polygon fill="#FFFFFF" points="505.191,397.979 518.603,397.979 519.703,407.318 506.047,407.318 	"/>
	<polygon fill="#FFFFFF" points="525.309,397.979 538.719,397.979 540.188,407.318 526.531,407.318 	"/>
	<polygon fill="#FFFFFF" points="545.426,397.979 558.837,397.979 560.672,407.318 547.016,407.318 	"/>
	<polygon fill="#FFFFFF" points="565.543,397.979 592.365,397.979 594.812,407.318 567.5,407.318 	"/>
	<polygon fill="#FFFFFF" points="471.223,381.22 458.355,381.22 458.355,390.622 471.47,390.622 	"/>
	<polygon fill="#FFFFFF" points="451.765,381.22 438.792,381.22 438.422,390.622 451.641,390.622 	"/>
	<polygon fill="#FFFFFF" points="432.306,381.22 419.334,381.22 418.595,390.622 431.813,390.622 	"/>
	<polygon fill="#FFFFFF" points="412.848,381.22 399.875,381.22 398.766,390.622 411.985,390.622 	"/>
	<polygon fill="#FFFFFF" points="393.389,381.22 380.416,381.22 378.938,390.622 392.156,390.622 	"/>
	<polygon fill="#FFFFFF" points="373.93,381.22 360.957,381.22 359.11,390.622 372.329,390.622 	"/>
	<polygon fill="#FFFFFF" points="334.193,359.587 336.324,351.449 342.421,351.449 340.432,359.587 	"/>
	<polygon fill="#FFFFFF" points="348.518,351.449 360.709,351.449 359.004,359.587 346.599,359.587 	"/>
	<polygon fill="#FFFFFF" points="366.807,351.449 378.998,351.449 377.613,359.587 365.207,359.587 	"/>
	<polygon fill="#FFFFFF" points="385.096,351.449 397.287,351.449 396.222,359.587 383.816,359.587 	"/>
	<polygon fill="#FFFFFF" points="403.384,351.449 415.576,351.449 414.83,359.587 402.425,359.587 	"/>
	<polygon fill="#FFFFFF" points="421.673,351.449 433.865,351.449 433.439,359.587 421.033,359.587 	"/>
	<polygon fill="#FFFFFF" points="439.962,351.449 452.154,351.449 452.048,359.587 439.643,359.587 	"/>
	<polygon fill="#FFFFFF" points="458.25,351.449 470.443,351.449 470.656,359.587 458.25,359.587 	"/>
	<polygon fill="#FFFFFF" points="476.539,351.449 488.732,351.449 489.266,359.587 476.859,359.587 	"/>
	<polygon fill="#FFFFFF" points="494.828,351.449 507.021,351.449 507.874,359.587 495.469,359.587 	"/>
	<polygon fill="#FFFFFF" points="513.117,351.449 525.311,351.449 526.482,359.587 514.076,359.587 	"/>
	<polygon fill="#FFFFFF" points="531.406,351.449 543.6,351.449 545.092,359.587 532.686,359.587 	"/>
	<polygon fill="#FFFFFF" points="549.695,351.449 561.888,351.449 563.7,359.587 551.295,359.587 	"/>
	<polygon fill="#FFFFFF" points="567.984,351.449 580.177,351.449 582.309,359.587 569.902,359.587 	"/>
	<linearGradient id="SVGID_13_" gradientUnits="userSpaceOnUse" x1="141.0601" y1="460.7871" x2="470.5454" y2="460.7871">
		<stop  offset="0" style="stop-color:#40D5E6"/>
		<stop  offset="1" style="stop-color:#5577FF"/>
	</linearGradient>
	<path fill="url(#SVGID_13_)" d="M614.648,465.092h-312.27c-4.754,0-8.607-3.854-8.607-8.608l0,0h329.485l0,0
		C623.257,461.237,619.402,465.092,614.648,465.092z"/>
	<path fill="#4D78EB" d="M496.816,420.755c-0.322-1.947-2.005-3.374-3.979-3.374h-34.324h-34.324c-1.973,0-3.655,1.427-3.977,3.374
		l-4.289,25.952c-0.406,2.456,1.488,4.688,3.977,4.688h38.613h38.613c2.489,0,4.384-2.232,3.979-4.688L496.816,420.755z"/>
	<g>
		<g>
			<rect x="349.754" y="197.413" fill="#E0E0E0" width="27.943" height="2.861"/>
		</g>
		<g>
			<rect x="385.518" y="218.957" fill="#E0E0E0" width="20.175" height="2.86"/>
		</g>
		<g>
			<rect x="408.835" y="218.957" fill="#1487E3" width="13.388" height="2.86"/>
		</g>
		<g>
			<rect x="350.071" y="273.135" fill="#1487E3" width="13.388" height="2.861"/>
		</g>
		<g>
			<rect x="424.869" y="218.957" fill="#E0E0E0" width="32.324" height="2.86"/>
		</g>
		<g>
			<rect x="350.071" y="262.283" fill="#E0E0E0" width="20.771" height="2.861"/>
		</g>
		<g>
			<rect x="379.025" y="283.907" fill="#E0E0E0" width="12.68" height="2.86"/>
		</g>
		<g>
			<rect x="350.071" y="283.907" fill="#1487E3" width="25.122" height="2.86"/>
		</g>
		<g>
			<rect x="350.071" y="294.679" fill="#E0E0E0" width="13.856" height="2.861"/>
		</g>
		<g>
			<rect x="383.133" y="197.413" fill="#78C2FF" width="19.837" height="2.861"/>
		</g>
		<g>
			<rect x="383.133" y="229.729" fill="#1487E3" width="19.837" height="2.861"/>
		</g>
		<g>
			<rect x="373.215" y="240.501" fill="#E0E0E0" width="8.476" height="2.861"/>
		</g>
		<g>
			<rect x="364.739" y="251.433" fill="#78C2FF" width="19.038" height="2.86"/>
		</g>
		<g>
			<rect x="386.654" y="251.433" fill="#1487E3" width="26.281" height="2.86"/>
		</g>
		<g>
			<rect x="350.071" y="240.581" fill="#1487E3" width="19.837" height="2.861"/>
		</g>
		<g>
			<rect x="350.071" y="251.433" fill="#1487E3" width="11.771" height="2.86"/>
		</g>
		<g>
			<rect x="385.687" y="240.581" fill="#FF8761" width="11.104" height="2.861"/>
		</g>
		<g>
			<rect x="350.404" y="305.451" fill="#FF8761" width="11.104" height="2.86"/>
		</g>
		<g>
			<rect x="349.992" y="218.957" fill="#78C2FF" width="19.836" height="2.86"/>
		</g>
		<g>
			<rect x="367.534" y="273.135" fill="#78C2FF" width="19.837" height="2.861"/>
		</g>
		<g>
			<rect x="367.779" y="294.679" fill="#78C2FF" width="19.836" height="2.861"/>
		</g>
		<g>
			<rect x="403.018" y="294.679" fill="#78C2FF" width="19.836" height="2.861"/>
		</g>
		<g>
			<rect x="349.992" y="229.729" fill="#78C2FF" width="28.277" height="2.861"/>
		</g>
		<g>
			<rect x="482.5" y="197.413" fill="#78C2FF" width="19.836" height="2.861"/>
		</g>
		<g>
			<rect x="411.834" y="305.451" fill="#78C2FF" width="19.837" height="2.86"/>
		</g>
		<g>
			<rect x="508.508" y="197.413" fill="#78C2FF" width="13.279" height="2.861"/>
		</g>
		<g>
			<rect x="553.434" y="208.185" fill="#78C2FF" width="13.278" height="2.861"/>
		</g>
		<g>
			<rect x="408.311" y="197.413" fill="#1487E3" width="25.273" height="2.861"/>
		</g>
		<g>
			<rect x="506.781" y="208.185" fill="#1487E3" width="25.272" height="2.861"/>
		</g>
		<g>
			<rect x="475.785" y="218.957" fill="#1487E3" width="25.273" height="2.86"/>
		</g>
		<g>
			<rect x="442.882" y="229.729" fill="#1487E3" width="25.272" height="2.861"/>
		</g>
		<g>
			<rect x="504.238" y="218.957" fill="#78C2FF" width="17.966" height="2.86"/>
		</g>
		<g>
			<rect x="452.275" y="197.413" fill="#FF8761" width="25.272" height="2.861"/>
		</g>
		<g>
			<rect x="423.438" y="229.729" fill="#FF8761" width="14.818" height="2.861"/>
		</g>
		<g>
			<rect x="411.834" y="273.294" fill="#FF8761" width="14.818" height="2.861"/>
		</g>
		<g>
			<rect x="438.256" y="197.413" fill="#E0E0E0" width="9.252" height="2.861"/>
		</g>
		<g>
			<rect x="408.311" y="229.729" fill="#E0E0E0" width="9.25" height="2.861"/>
		</g>
		<g>
			<rect x="538.148" y="208.185" fill="#E0E0E0" width="9.252" height="2.861"/>
		</g>
		<g>
			<rect x="349.754" y="208.185" fill="#1487E3" width="14.473" height="2.861"/>
		</g>
		<g>
			<rect x="388.369" y="262.362" fill="#1487E3" width="11.426" height="2.861"/>
		</g>
		<g>
			<rect x="367.779" y="208.185" fill="#1487E3" width="4.672" height="2.861"/>
		</g>
		<g>
			<rect x="463.712" y="208.185" fill="#E0E0E0" width="38.624" height="2.861"/>
		</g>
		<g>
			<rect x="426.652" y="294.679" fill="#E0E0E0" width="38.625" height="2.861"/>
		</g>
		<g>
			<rect x="375.886" y="208.185" fill="#FF8761" width="4.768" height="2.861"/>
		</g>
		<g>
			<rect x="447.508" y="208.185" fill="#1487E3" width="12.636" height="2.861"/>
		</g>
		<g>
			<rect x="460.144" y="218.957" fill="#FF8761" width="12.637" height="2.86"/>
		</g>
		<g>
			<rect x="395.166" y="305.451" fill="#FF8761" width="12.637" height="2.86"/>
		</g>
		<g>
			<rect x="417.275" y="208.185" fill="#1487E3" width="26.887" height="2.861"/>
		</g>
		<g>
			<rect x="392.249" y="273.294" fill="#1487E3" width="15.708" height="2.861"/>
		</g>
		<g>
			<rect x="391.238" y="294.679" fill="#1487E3" width="7.855" height="2.861"/>
		</g>
		<g>
			<rect x="404.209" y="208.185" fill="#78C2FF" width="9.252" height="2.861"/>
		</g>
		<g>
			<rect x="373.072" y="218.957" fill="#FF8761" width="9.25" height="2.86"/>
		</g>
		<g>
			<rect x="374.916" y="262.362" fill="#FF8761" width="9.25" height="2.861"/>
		</g>
		<g>
			<rect x="384.563" y="208.185" fill="#1487E3" width="16.118" height="2.861"/>
		</g>
	</g>
	<g opacity="0.76">
		<path fill="#FFFFFF" d="M620.564,322.364H503.681c-2.217,0-4.014-1.798-4.014-4.015v-81.026c0-2.217,1.797-4.014,4.014-4.014
			h116.884c2.217,0,4.015,1.797,4.015,4.014v81.026C624.579,320.566,622.781,322.364,620.564,322.364z"/>
	</g>
	<g>
		<g>
			<path fill="#4AAFFF" d="M611.09,285.329h-20.125c-0.852,0-1.541-0.689-1.541-1.539v-3.108c0-0.851,0.689-1.54,1.541-1.54h20.125
				c0.852,0,1.541,0.689,1.541,1.54v3.108C612.631,284.64,611.941,285.329,611.09,285.329z"/>
		</g>
	</g>
	<g>
		<g>
			<path fill="#4AAFFF" d="M611.09,296.915h-20.125c-0.852,0-1.541-0.688-1.541-1.539v-3.108c0-0.851,0.689-1.54,1.541-1.54h20.125
				c0.852,0,1.541,0.689,1.541,1.54v3.108C612.631,296.227,611.941,296.915,611.09,296.915z"/>
		</g>
	</g>
	<g>
		<g>
			<path fill="#4AAFFF" d="M611.09,308.502h-20.125c-0.852,0-1.541-0.689-1.541-1.54v-3.107c0-0.852,0.689-1.541,1.541-1.541h20.125
				c0.852,0,1.541,0.689,1.541,1.541v3.107C612.631,307.813,611.941,308.502,611.09,308.502z"/>
		</g>
	</g>
	<g>
		<g>
			<g>
				<path fill="#4AAFFF" d="M578.204,265.339c-5.162-14.434-18.956-23.299-33.495-22.861c-3.52,0.105-7.082,0.756-10.578,2.006
					c-10.59,3.789-18.184,12.224-21.304,22.189c-2.162,6.906-2.176,14.547,0.449,21.887c0.261,0.73,0.544,1.447,0.849,2.149
					c1.381,3.179,3.193,6.055,5.345,8.582c9.022,10.607,23.993,15.09,37.882,10.124
					C575.281,303.001,584.617,283.269,578.204,265.339z M554.445,301.289c-10.413,3.725-21.637,0.363-28.401-7.589
					c-1.612-1.895-2.972-4.051-4.006-6.436c-0.229-0.525-0.441-1.064-0.638-1.611c-1.968-5.503-1.957-11.232-0.336-16.408
					c2.339-7.473,8.031-13.797,15.971-16.636c2.621-0.938,5.293-1.425,7.932-1.506c10.899-0.329,21.242,6.318,25.113,17.14
					C574.889,281.687,567.888,296.481,554.445,301.289z"/>
			</g>
		</g>
		<g>
			<g>
				<path fill="#1A598C" d="M521.064,269.245l-8.237-2.572c3.12-9.966,10.714-18.4,21.304-22.189c3.496-1.25,7.059-1.9,10.578-2.006
					l0.258,8.626c-2.639,0.081-5.311,0.567-7.932,1.506C529.096,255.448,523.403,261.772,521.064,269.245z"/>
			</g>
		</g>
		<g>
			<g>
				<path fill="#2273B5" d="M522.038,287.265l-7.913,3.444c-0.305-0.702-0.588-1.419-0.849-2.149
					c-2.625-7.34-2.611-14.98-0.449-21.887l8.237,2.572c-1.621,5.176-1.632,10.905,0.336,16.408
					C521.597,286.2,521.81,286.739,522.038,287.265z"/>
			</g>
		</g>
		<g>
			<g>
				<path fill="#3788CC" d="M519.47,299.291c-2.151-2.527-3.964-5.403-5.345-8.582l7.913-3.444c1.034,2.385,2.394,4.541,4.006,6.436
					L519.47,299.291z"/>
			</g>
		</g>
	</g>
	<g>
		<g>
			<g>
				<path fill="#EEA886" d="M557.25,297.398c0,0-1.67-2.923,0.979-10.756c2.561-7.575,11.429-6.889,14.246-2.035
					c2.818,4.853,1.867,7.868-2.282,13.347C566.043,303.435,558.972,299.903,557.25,297.398z"/>
			</g>
		</g>
		<g>
			<g>
				<path fill="#EEA886" d="M577.846,432.161c0,0,0.438,3.217,0.494,3.701c0.054,0.482,4.881-0.285,4.881-0.285l0.391-3.83
					C583.611,431.747,578.449,431.708,577.846,432.161z"/>
			</g>
		</g>
		<g>
			<g>
				<path fill="#414773" d="M578.287,435.453c0,0-1.529,1.938-3.008,2.782c-1.479,0.846-3.803,1.18-4.678,2.055
					c-0.631,0.631-2.299,3.35,3.844,3.294c6.143-0.054,9.104,0.385,9.762-0.657c0.658-1.043-0.951-7.691-0.951-7.691
					S581.752,435.659,578.287,435.453z"/>
			</g>
		</g>
		<g>
			<g>
				<path fill="#EEA886" d="M544.428,432.161c0,0,0.439,3.217,0.494,3.701c0.055,0.482,4.881-0.285,4.881-0.285l0.391-3.83
					C550.193,431.747,545.031,431.708,544.428,432.161z"/>
			</g>
		</g>
		<g>
			<g>
				<path fill="#414773" d="M544.871,435.453c0,0-1.529,1.938-3.009,2.782c-1.479,0.846-6.922,1.539-7.796,2.414
					c-0.632,0.632-1.682,3.173,6.961,2.935c6.141-0.169,9.104,0.385,9.763-0.657c0.658-1.043-0.952-7.691-0.952-7.691
					S547.93,435.574,544.871,435.453z"/>
			</g>
		</g>
		<g>
			<g>
				<path fill="#2D314F" d="M576.221,352.063c0,0,2.475,7.689,2.148,14.316s1.279,13.879,1.936,20.802
					c0.732,7.717,3.727,25.987,3.834,30.116c0.109,4.127-0.464,17.311-0.464,17.311l-5.994,0.144c0,0-5.033-31.94-6.337-35.199
					s-7.77-26.494-7.986-29.102S576.221,352.063,576.221,352.063z"/>
			</g>
		</g>
		<g>
			<g>
				<path fill="#2D314F" d="M551.371,351.263c0,0-3.639,20.332-4.074,24.389c-0.434,4.056-0.725,19.628-0.941,22.163
					c-0.217,2.534-1.448,33.172-2.607,36.938h6.684c0,0,6.861-22.271,6.861-32.81s4.543-22.909,7.477-29.861
					c2.934-6.953,9.647-7.117,11.451-20.018C576.221,352.063,553.812,347.172,551.371,351.263z"/>
			</g>
		</g>
		<g>
			<g>
				<path fill="#EEA886" d="M559.674,299.466c0,0,0.754,2.194,0,3.761c-0.754,1.564,9.631,0.626,9.631,0.626
					s-0.47-3.236,0.888-5.898C571.549,295.293,559.674,299.466,559.674,299.466z"/>
			</g>
		</g>
		<g>
			<g>
				<path fill="#2B3B57" d="M576.702,353.739c0,0-3.735,3.837-25.666-0.598l0.335-1.879l24.931,0.939L576.702,353.739z"/>
			</g>
		</g>
		<g>
			<g>
				<path fill="#EEA886" d="M558.102,303.734c0,0-3.836,0.391-4.932,0.601c-1.096,0.208-8.473-1.32-9.986-1.477
					s-7.967-4.577-8.176-5.1c-0.208-0.521-3.926-9.934-4.135-11.969c-0.209-2.037-3.621-0.985-3.328,0.417
					c0.547,2.624,1.25,8.992,1.636,10.839c0.416,1.993,1.53,6.507,2.157,7.063c0.626,0.556,6.437,4.975,12.125,6.854
					c5.689,1.879,9.971,4.646,9.971,4.646h28.035c0,0,10.904-15.587,11.139-17.936s-7.616-17.957-9.182-19.915
					c-1.566-1.957-3.83,0.639-3.83,0.639s4.691,13.766,5.316,15.723c0.627,1.957-5.456,10.556-7.127,10.582
					c-1.67,0.026-5.957-0.522-7.862-0.601c-1.905-0.079-3.915-0.914-3.915-0.914L558.102,303.734z"/>
			</g>
		</g>
		<g>
			<g>
				<path fill="#FFC655" d="M546.02,314.146c0,0,3.433,2.282,3.746,6.195c0.313,3.915,1.565,10.099,2.191,12.212
					c0.627,2.114-0.548,17.457-0.705,18.553c-0.156,1.097,21.694,3.7,25.05,1.097c0,0,0.939-14.326,1.331-18.396
					s2.27-13.934,2.896-15.265c0.626-1.331,8.219-11.981,8.532-13.386c0,0-3.929-6.263-6.746-6.341c0,0-4.476,5.245-5.935,5.479
					c-1.46,0.234-10.404-1.404-10.406-1.418c0,0-0.977,1.33-6.166-0.236c0,0-6.182,0.697-7.187,0.825
					c-1.218,0.156-9.681-1.062-9.681-1.062s-3.396,5.734-2.801,8.628L546.02,314.146z"/>
			</g>
		</g>
		<g>
			<g>
				<path fill="#EEA886" d="M531.069,287.013c0,0-0.767-3.628,0.157-4.67c0.525-0.593,1.787-2.163,1.902-2.394
					s1.471-1.01,1.471-1.385s-1.326-0.836-2.479,0.231c-1.153,1.066-1.874,1.298-2.335,1.182c-0.463-0.115-1.125-3.95-1.183-4.901
					c-0.058-0.952-0.425-3.461-1.021-3.287c-0.595,0.173-0.565,1.269-0.565,1.269s-0.692-1.904-1.153-1.528
					c-0.462,0.374-0.404,1.298-0.404,1.298s-0.865-1.067-1.096-0.289c-0.23,0.779,0,1.471,0,1.471s-0.895-0.49-0.951,0.721
					c-0.059,1.211,0.26,4.758,0.894,6.027c0.634,1.269,3.009,4.587,3.292,5.883C527.881,287.937,531.069,287.013,531.069,287.013z"
					/>
			</g>
		</g>
		<g>
			<g>
				<path fill="#EEA886" d="M580.359,280.642c0,0-2.608-4.385-3.496-4.776c-0.887-0.392-2.139-0.613-3.235-1.396
					c-1.096-0.782-2.544-1.435-2.466-1.695s1.37-0.157,2.753,0.443c1.384,0.6,1.989,0.31,2.12-0.003
					c0.131-0.313-0.736-2.524-1.154-3.046c-0.418-0.522-3.393-3.515-2.896-3.958s2.427,1.201,2.74,1.539c0,0-1.54-3.234-0.939-3.392
					c0.6-0.157,1.722,0.991,1.722,0.991s-0.13-2.766,2.845,1.723c0,0-0.627-1.487,0.287-0.991c0.913,0.495,1.801,3.288,2.088,4.697
					c0.286,1.408,1.589,5.897,2.699,6.979C584.535,278.84,580.359,280.642,580.359,280.642z"/>
			</g>
		</g>
		<g>
			<g>
				<path fill="#353A3D" d="M570.192,297.954c0,0-1.374,0.122-4.297-0.887c-2.923-1.01-3.141-6.119-3.772-5.515
					c-1.29,1.235-2.508,0.383-2.995-0.349c0,0,1.427-1.878,0.766-2.783c-0.661-0.904-1.737-1.564-1.737-1.564
					s2.056-9.907,11.41-5.394C580.525,286.752,570.192,297.954,570.192,297.954z"/>
			</g>
		</g>
		<g>
			<g>
				<path fill="#D4D8E8" d="M559.674,303.227l0.329-1.433c0,0,5.971-0.121,9.228,0.351l0.344,1.712
					C569.574,303.856,565.402,305.748,559.674,303.227z"/>
			</g>
		</g>
		<g>
			<g>
				<path fill="#EEA886" d="M561.146,290.3c0.542-0.9,2.547-1.509,2.783,1.044c0.183,1.979-3.584,4.141-3.619,2.297
					C560.276,291.796,560.785,290.899,561.146,290.3z"/>
			</g>
		</g>
		<g>
			<g>
				<path fill="#E55353" d="M530.928,286.189c0,0-2.154,0.052-3.199,0.996c0,0-0.068,0.6,0.174,1.071c0,0,1.867-0.871,3.3-1.034
					C531.202,287.223,531.178,286.439,530.928,286.189z"/>
			</g>
		</g>
		<g>
			<g>
				<circle fill="#353A3D" cx="529.241" cy="287.086" r="0.926"/>
			</g>
		</g>
	</g>
	<g>
		<g>
			<g>
				<path fill="#6069A8" d="M475.475,210.168c0,0,3.079,5.22,4.379,6.072c1.766,1.157,0.659,2.327-0.179,2.329
					c-0.838,0-5.118,0.307-6.062-0.764s-1.41-4.277-2.288-5.117c-0.877-0.838-1.782-4.174,0.427-4.983
					C473.707,206.987,475.475,210.168,475.475,210.168z"/>
			</g>
		</g>
	</g>
	<g>
		<g>
			<g>
				<path fill="#202338" d="M474.142,207.872c0,0,3.526,6.113,4.134,7.016c0.607,0.903-1.145,0.902-2.23,0.473
					c-1.086-0.429-3.816-4.813-4.209-5.611c-0.468-0.953-0.084-2.044-0.084-2.044L474.142,207.872z"/>
			</g>
		</g>
	</g>
	<g>
		<g>
			<g>
				<polygon fill="#6069A8" points="470.568,211.161 471.383,217.428 471.814,217.446 471.68,212.938 				"/>
			</g>
		</g>
	</g>
	<g>
		<g>
			<g>
				<path fill="#6069A8" d="M444.939,210.168c0,0,3.08,5.22,4.379,6.072c1.766,1.157,0.66,2.327-0.178,2.329
					c-0.838,0-5.119,0.307-6.062-0.764c-0.943-1.07-1.411-4.277-2.288-5.117c-0.877-0.838-1.813-4.26,0.427-4.983
					C443.183,207.069,444.939,210.168,444.939,210.168z"/>
			</g>
		</g>
	</g>
	<g>
		<g>
			<g>
				<path fill="#202338" d="M443.791,207.885c0,0,3.342,6.101,3.95,7.003c0.607,0.903-1.146,0.902-2.23,0.473
					c-1.086-0.429-3.817-4.813-4.209-5.611c-0.468-0.953-0.084-2.044-0.084-2.044L443.791,207.885z"/>
			</g>
		</g>
	</g>
	<g>
		<g>
			<g>
				<polygon fill="#6069A8" points="440.033,211.161 440.848,217.428 441.279,217.446 441.146,212.938 				"/>
			</g>
		</g>
	</g>
	<g>
		<g>
			<g>
				<path fill="#202338" d="M431.278,162.663l27.864,12.697c0,0,3.109,1.011,3.459,4.465c1.088,10.779,9.15,27.88,9.15,27.88
					c2.588,1.265,2.39,0.167,2.39,0.167c-1.63-5.234-3.615-26.803-4.323-35.476c-0.15-1.837-0.243-3.095-0.264-3.497
					c-0.014-0.273-0.313-0.631-0.828-1.049c-3.824-3.102-19.557-9.52-19.557-9.52C437.357,158.03,431.278,162.663,431.278,162.663z"
					/>
			</g>
		</g>
	</g>
	<g>
		<g>
			<g>
				<path fill="#202338" d="M426.026,168.115c0.862,7.532,11.614,6.669,11.614,6.669h13.03c0,0-3.423,7.617-4.745,14.041
					c-1.402,6.816-4.708,18.88-4.708,18.88s0.216,0.409,2.573,0.18c0,0,10.229-20.386,14.145-25.511
					c0.842-1.103,3.256-7.09,3.672-10.66c0.141-1.201,0.054-2.129-0.395-2.506c-0.453-0.379-1.491-1.093-2.877-1.967
					c-4.082-2.573-11.17-6.535-15.119-7.423c-5.289-1.188-13.654-3.417-13.654-3.417S425.164,160.585,426.026,168.115z"/>
			</g>
		</g>
	</g>
	<g>
		<path fill="#464240" d="M434.895,110.103c0,0-1.95-3.703-1-7.646c0.951-3.943,4.609-7.872,9.967-6.067s9.688,5.966,6.477,10.778
			c-3.212,4.812,2.906,6.984,1.347,9.275c-1.559,2.289-0.968,4.68-0.308,5.213c0.66,0.532,2.789,2.432,2.555,4.68
			s-10.394-6.553-10.394-6.553S438.005,108.665,434.895,110.103z"/>
	</g>
	<g>
		<path fill="#EB4747" d="M451.223,157.427c0,0-0.807,3.92-21.617-1.029C429.605,156.397,436.581,154.081,451.223,157.427z"/>
	</g>
	<g>
		<g>
			<path fill="#325BB3" d="M429.369,157.497c-0.323,0.616-0.646,1.232-0.968,1.848c7.607,0.223,15.215,0.443,22.821,0.666
				c-1.202-4.029-0.813-9.486-0.602-13.629c0.258-5.059,3.051-8.576,2.754-13.692c1.505,0.243,1.765,0.29,3.272,0.521
				c-2.306-6.568-3.095-9.821-10.255-12.35c-2.332-0.822-3.863-0.986-6.387-0.777c-8.293,0.683-10.795,0.781-14.867,8.296
				c6.376,1.015,5.326,3.305,7.26,9.647c0.943,3.094,1.928,6.545,1.422,9.808C433.322,151.046,429.369,154.568,429.369,157.497z"/>
		</g>
	</g>
	<g>
		<g>
			<path fill="#EEA886" d="M442.604,122.452c-3.395-0.641-2.672-2.528-2.672-2.528s0.157-1.065,0.219-2.412
				c0.016-0.345,0.024-0.708,0.022-1.077c-0.001-0.559-0.028-1.131-0.093-1.669c-0.278-2.278,6.16-0.919,6.16-0.919
				s-0.371,4.609,0.518,5.99C447.645,121.22,445.998,123.094,442.604,122.452z"/>
		</g>
	</g>
	<g>
		<g>
			<path fill="#EEA886" d="M436.129,119.911c0,0,6.846,7.905,9.377,9.738c0,0,2.907-2.629,1.115-9.566
				C446.621,120.083,443.315,118.427,436.129,119.911z"/>
		</g>
	</g>
	<g>
		<path fill="#EEA886" d="M436.315,100.886c0,0-3.556,6.851-0.03,13.34c3.527,6.488,10.455-2.826,10.902-3.919
			c0.449-1.093,2.824-7.274-1.9-9.153C440.562,99.275,437.322,99.026,436.315,100.886z"/>
	</g>
	<g>
		<path fill="#464240" d="M437.497,103.316c0,0-2.447,3.215-2.737,5.59c0,0-0.975-4.491,1.78-8.805s9.76-0.205,10.698,1.519
			c0.938,1.724,3.688,3.243-0.932,10.651C446.307,112.271,438,106.499,437.497,103.316z"/>
	</g>
	<g>
		<path fill="#A77860" d="M443.179,114.909c0,0-0.617,1.348-3.028,2.603c0.016-0.345,0.024-0.708,0.022-1.077
			C440.173,116.435,441.806,116.237,443.179,114.909z"/>
	</g>
	<g>
		<path fill="#EEA886" d="M407.246,151.334c0,0-1.689,0.751-2.492,0.411c-0.801-0.342-2.04-0.407-2.431-0.408
			c-0.522-0.001-2.159-0.585-2.132,0.055c0.029,0.639,2.657,1.085,3.195,1.285c0.538,0.199-1.609,1.381-1.809,1.906
			s2.225,3.971,3.591,2.988c1.367-0.981,2.107-2.941,2.386-3.066c0.278-0.124,1.026-0.674,1.026-0.674L407.246,151.334z"/>
	</g>
	<g>
		<path fill="#EEA886" d="M401.837,154.277c0,0-3.964,3.286-4.025,3.729c-0.063,0.445,0.146,0.652,0.531,0.36
			c0.384-0.292,3.931-3.063,3.931-3.063s-3.972,4.691-4.105,5.039c-0.078,0.204,0.303,0.628,0.524,0.49
			c0.222-0.137,4.445-4.553,4.445-4.553s-3.7,4.387-3.72,4.715c-0.018,0.287,0.428,0.598,0.727,0.291
			c0.299-0.306,3.98-4.176,3.98-4.176s-2.475,3.367-2.322,3.664c0.094,0.182,0.406,0.563,1.016-0.328
			c0.609-0.89,2.283-2.83,2.283-2.83L401.837,154.277z"/>
	</g>
	<g>
		<g>
			<path fill="#FF7E55" d="M449.311,174.785h-11.67c0,0-10.752,0.862-11.613-6.669c-0.863-7.531,3.535-11.715,3.535-11.715
				s5.68,1.513,10.639,2.711c2.482-0.527,5.475-0.871,8.969-0.782c0,0,21.02,6.946,20.387,10.603
				C469.557,168.933,460.764,164.231,449.311,174.785z"/>
		</g>
	</g>
	<g>
		<polygon fill="#5E5853" points="441.715,161.743 463.965,161.415 452.73,167.12 		"/>
	</g>
	<g>
		<path fill="#325BB3" d="M448.627,158.9c0,0-5.006,1.938-11.142,0.186l-0.287-2.291l12.634,0.702L448.627,158.9z"/>
	</g>
	<g>
		<polygon fill="#91887F" points="452.73,167.12 441.715,162.853 441.715,161.743 453.602,166.031 		"/>
	</g>
	<g>
		<g>
			<path fill="#EDDAD3" d="M448.549,159.96c-0.059,0.822,0.772,1.415,1.531,1.092l1.291-0.551c0.389-0.166,0.614-0.576,0.547-0.993
				c-0.537-3.366-1.691-16.466-0.004-18.715c0.623-0.831,1.012-1.56,1.23-2.195c1.114,2.871,2.5,6.569,3.051,8.56l10.512,13.984
				l3.525,0.895c-4.399-10.599-7.932-16.213-7.932-16.213c-0.688-1.848-2.661-7.441-4.408-12.421
				c-1.104-3.145-2.116-6.044-2.66-7.603c-0.276-0.791-0.82-1.457-1.539-1.886c-1.628-0.974-4.341-2.507-6.802-3.702
				c-0.01-0.004-0.02-0.009-0.029-0.014c-0.079-0.038-0.157-0.076-0.235-0.113c-0.003-0.001-0.004-0.002-0.005-0.002
				s-0.001,0-0.001,0c4.678,7.078,2.854,27.066,1.931,39.85C448.551,159.941,448.55,159.951,448.549,159.96z"/>
		</g>
		<g>
			<path fill="#EDDAD3" d="M431.184,120.687c-1.499,0.231-5.215,3.839-7.188,7.48c-2.252,4.155-4.545,8.887-6.263,10.442
				c-3.159,2.862-12.003,12.979-12.423,12.735c-0.162-0.095,2.425,3.021,2.754,3.166c0.164,0.072,14.535-12.38,15.915-14.277
				c1.31-1.799,4.809-9.348,5.855-9.182c0,0,0.001,0.002,0.003,0.006c0,0,0.001,0.002,0.002,0.002
				c0.079,0.172,1.352,2.932,2.559,6.967c0.02,0.067,0.039,0.134,0.06,0.201c0.831,2.813,0.755,5.869,0.305,9.302
				c-0.34,2.591-2.274,6.827-3.44,8.89c-0.141,0.248-0.104,0.719,0.047,1.078l0,0c0.091,0.215,0.223,0.389,0.383,0.447l4.219,1.563
				l0.992,0.367c0.714,0.265,1.463,0.127,2.021-0.28c0.459-0.332,0.79-0.846,0.871-1.466c0.938-7.216,2.125-14.589,3.071-17.366
				c4.15-12.188-1.622-21.344-1.622-21.344S432.498,120.195,431.184,120.687z"/>
		</g>
	</g>
	<g>
		<polygon fill="#6E6760" points="452.73,167.12 459.35,149.05 480.686,149.397 474.377,166.05 		"/>
	</g>
	<g>
		
			<ellipse transform="matrix(-0.8943 -0.4474 0.4474 -0.8943 815.5227 508.3297)" fill="#807066" cx="467.794" cy="157.854" rx="1.809" ry="2.635"/>
	</g>
	<g>
		<path fill="#464240" d="M443.685,107.708c0,0,1.366,2.125,0.104,3.961c-1.264,1.836,0.318,3.639,0.592,5.578
			c0.274,1.94-5.271,7.104,0.896,9.7c6.166,2.597,8.129-1.696,6.555-4.059c-1.572-2.362-2.689-4.28-2.822-7.648
			S447.769,106.621,443.685,107.708z"/>
	</g>
	<g>
		<polygon fill="#78C2FF" points="399.019,82.191 425.3,82.191 425.3,101.24 425.3,105.252 421.288,101.24 399.019,101.24 		"/>
	</g>
</g>
</svg>
