<?xml version="1.0" encoding="utf-8"?>
<!-- Generator: Adobe Illustrator 23.0.5, SVG Export Plug-In . SVG Version: 6.00 Build 0)  -->
<svg version="1.1" id="Capa_1" xmlns="http://www.w3.org/2000/svg" xmlns:xlink="http://www.w3.org/1999/xlink" x="0px" y="0px"
	 viewBox="0 0 1366 768" style="enable-background:new 0 0 1366 768;" xml:space="preserve">
<style type="text/css">
	.st0{fill:#0000FF;}
	.st1{fill:#FFFF00;}
	.st2{fill:#FF1D25;}
	.st3{fill:#FFFFFF;}
	.st4{fill:#CCCCCC;}
</style>
<g>
	<ellipse class="st0" cx="714" cy="374.5" rx="284" ry="229.5"/>
</g>
<g>
	<ellipse class="st1" cx="240" cy="361" rx="115" ry="89"/>
</g>
<g>
	<ellipse class="st2" cx="1186" cy="359" rx="115" ry="89"/>
</g>
<g>
	<g>
		<g>
			<path class="st3" d="M759.95,230.53l-12.52-3.66c-1.61-0.57-3.2-0.39-4.74,0.54c-1.55,0.93-2.59,2.33-3.13,4.2L664.29,509.4
				c-0.54,1.87-0.37,3.62,0.51,5.27c0.87,1.65,2.18,2.76,3.94,3.33l12.51,3.66c1.61,0.58,3.2,0.4,4.74-0.54
				c1.55-0.94,2.59-2.33,3.13-4.19l75.28-277.8c0.54-1.86,0.37-3.62-0.51-5.27C763.01,232.22,761.7,231.1,759.95,230.53z"/>
			<path class="st3" d="M647.14,284.76c0-1.86-0.67-3.52-2.02-4.95l-10.09-10.76c-1.35-1.43-2.89-2.15-4.64-2.15
				c-1.75,0-3.3,0.72-4.64,2.15L531.7,369.32c-1.35,1.43-2.02,3.08-2.02,4.95c0,1.86,0.67,3.52,2.02,4.95l94.04,100.27
				c1.34,1.44,2.89,2.15,4.64,2.15s3.3-0.72,4.64-2.15l10.09-10.75c1.35-1.43,2.02-3.08,2.02-4.95c0-1.86-0.67-3.51-2.02-4.95
				l-79.31-84.57l79.31-84.56C646.47,288.28,647.14,286.62,647.14,284.76z"/>
			<path class="st3" d="M896.98,369.32l-94.05-100.27c-1.34-1.43-2.89-2.15-4.64-2.15c-1.75,0-3.29,0.72-4.64,2.15l-10.09,10.76
				c-1.34,1.43-2.02,3.08-2.02,4.95s0.67,3.52,2.02,4.95l79.32,84.57l-79.32,84.57c-1.34,1.43-2.02,3.08-2.02,4.95
				c0,1.87,0.67,3.52,2.02,4.95l10.09,10.75c1.35,1.44,2.89,2.15,4.64,2.15c1.75,0,3.29-0.72,4.64-2.15l94.05-100.27
				c1.35-1.43,2.02-3.09,2.02-4.95C899,372.4,898.33,370.75,896.98,369.32z"/>
		</g>
	</g>
</g>
<circle class="st4" cx="299.5" cy="536.5" r="24.5"/>
<circle class="st4" cx="583.5" cy="635.5" r="24.5"/>
<circle class="st4" cx="588.5" cy="104.5" r="24.5"/>
<circle class="st4" cx="440.5" cy="603.5" r="24.5"/>
<circle class="st4" cx="338.5" cy="200.5" r="24.5"/>
<circle class="st4" cx="444.5" cy="144.5" r="24.5"/>
</svg>
