<?xml version="1.0" standalone="no"?>
<!DOCTYPE svg PUBLIC "-//W3C//DTD SVG 20010904//EN"
 "http://www.w3.org/TR/2001/REC-SVG-20010904/DTD/svg10.dtd">
<svg version="1.0" xmlns="http://www.w3.org/2000/svg"
 width="1366.000000pt" height="1366.000000pt" viewBox="0 0 1366.000000 1366.000000"
 preserveAspectRatio="xMidYMid meet">
<metadata>
Created by potrace 1.11, written by Peter Selinger 2001-2013
</metadata>
<g transform="translate(0.000000,1366.000000) scale(0.100000,-0.100000)"
fill="#000000" stroke="none">
<path d="M5779 9844 c-52 -25 -109 -90 -126 -144 -26 -76 -3 -181 50 -238 48
-52 106 -76 181 -77 60 0 78 4 118 27 149 88 170 285 42 397 -48 43 -76 53
-154 56 -51 2 -75 -3 -111 -21z"/>
<path d="M4361 9454 c-24 -9 -51 -22 -58 -30 -8 -7 -20 -17 -27 -21 -7 -5 -26
-30 -41 -57 -88 -151 10 -344 183 -362 153 -16 285 112 268 259 -7 71 -18 97
-57 141 -65 74 -177 103 -268 70z"/>
<path d="M7128 9224 c-3 -2 -66 -6 -141 -9 -75 -3 -158 -8 -184 -11 -26 -3
-64 -7 -83 -9 -59 -6 -114 -14 -140 -20 -14 -3 -43 -8 -65 -11 -53 -6 -312
-70 -395 -96 -314 -100 -642 -261 -860 -422 -19 -14 -46 -34 -60 -43 -13 -10
-31 -25 -40 -33 -9 -8 -32 -27 -52 -43 -84 -62 -263 -241 -331 -329 -12 -16
-32 -41 -45 -56 -12 -15 -35 -45 -50 -67 -15 -22 -30 -42 -33 -45 -26 -24
-209 -367 -209 -394 0 -6 -7 -24 -15 -40 -9 -16 -17 -37 -19 -45 -1 -9 -13
-47 -25 -86 -12 -38 -25 -81 -27 -95 -3 -14 -7 -32 -9 -40 -2 -8 -7 -31 -10
-50 -6 -40 -13 -74 -21 -110 -10 -41 -12 -406 -3 -455 5 -25 11 -67 14 -93 8
-58 48 -223 70 -283 9 -24 18 -51 20 -59 8 -34 67 -167 108 -243 59 -111 69
-128 91 -154 11 -13 16 -23 13 -23 -4 0 8 -20 26 -44 17 -23 39 -53 47 -65 8
-13 22 -31 30 -41 8 -10 40 -48 70 -84 85 -104 269 -276 400 -375 66 -50 120
-89 120 -86 0 3 12 -5 26 -18 14 -12 29 -22 32 -22 4 0 21 -10 37 -21 85 -60
371 -203 475 -239 3 -1 19 -7 35 -14 83 -34 307 -104 406 -125 13 -3 47 -11
74 -17 28 -6 59 -12 70 -14 11 -2 20 -4 20 -5 0 -1 11 -3 25 -5 14 -2 54 -8
90 -14 36 -6 83 -13 105 -15 22 -3 69 -8 105 -13 87 -10 547 -10 635 1 39 4
88 10 110 12 22 2 52 6 66 9 14 2 41 7 60 9 19 3 34 5 34 6 0 1 16 3 35 6 57
7 249 53 370 88 30 9 60 18 65 19 6 1 15 5 20 8 8 5 106 40 125 44 3 1 19 7
35 14 17 7 35 14 40 15 14 4 84 36 189 86 344 165 664 410 882 675 97 118 94
113 96 122 1 5 12 19 25 33 13 14 23 30 23 37 0 6 4 13 8 15 11 4 69 92 77
117 3 12 11 21 16 21 5 0 9 5 9 11 0 6 20 52 44 102 41 84 74 160 76 172 0 3
9 29 19 57 70 193 100 391 96 638 -2 96 -6 186 -9 200 -3 14 -9 45 -12 70 -12
91 -72 308 -111 400 -35 82 -148 304 -167 328 -12 15 -28 39 -35 55 -8 15 -18
27 -23 27 -4 0 -8 5 -8 11 0 10 -32 54 -108 148 -96 119 -234 253 -377 367
-38 30 -78 62 -88 70 -9 8 -21 14 -25 14 -4 0 -23 14 -42 30 -19 16 -41 30
-47 30 -7 0 -13 5 -13 10 0 6 -6 10 -14 10 -8 0 -16 3 -18 8 -3 7 -39 29 -98
59 -19 10 -37 21 -40 24 -10 11 -179 93 -290 139 -214 91 -498 174 -699 206
-18 3 -43 8 -55 10 -21 4 -65 10 -146 19 -25 3 -67 8 -95 11 -27 3 -91 7 -141
9 -51 1 -96 5 -101 8 -5 3 -15 2 -23 -3 -7 -4 -23 -4 -36 0 -12 5 -24 7 -26 4z"/>
<path d="M3285 8886 c-130 -60 -182 -214 -113 -338 23 -42 115 -121 130 -112
4 3 8 1 8 -4 0 -6 32 -9 74 -8 58 2 82 8 117 28 58 34 94 76 113 132 33 97 14
178 -59 252 -76 76 -175 95 -270 50z"/>
<path d="M11728 7965 c-2 -1 -28 -5 -58 -9 -73 -8 -155 -22 -155 -27 0 -1 -9
-3 -20 -4 -92 -12 -340 -131 -449 -215 -146 -114 -281 -307 -313 -450 -2 -8
-6 -26 -9 -40 -11 -46 -12 -231 -2 -268 25 -96 34 -121 62 -182 47 -102 82
-148 200 -262 44 -43 83 -78 87 -78 4 0 31 -16 60 -36 46 -32 188 -104 204
-105 2 0 25 -8 50 -19 25 -11 47 -20 50 -20 3 0 6 0 8 -1 1 0 9 -2 17 -4 8 -2
35 -8 60 -14 121 -31 213 -40 375 -36 83 2 160 6 171 8 12 3 39 8 60 11 105
17 262 70 367 125 117 61 183 108 267 191 173 169 251 351 245 570 -1 60 -10
129 -19 160 -9 30 -18 60 -19 65 -21 74 -120 221 -206 304 -227 222 -540 338
-908 339 -67 0 -123 -2 -125 -3z"/>
<path d="M2205 7938 c-276 -49 -448 -119 -620 -253 -160 -125 -264 -273 -311
-442 -19 -68 -27 -241 -14 -298 5 -22 11 -51 13 -65 11 -56 56 -151 110 -233
43 -64 167 -197 185 -197 7 0 12 -4 12 -9 0 -11 133 -97 205 -133 103 -52 282
-106 420 -125 50 -7 302 -10 360 -3 219 23 479 122 635 242 63 49 190 173 190
185 0 4 8 16 19 27 45 50 110 199 128 293 9 48 9 214 0 271 -36 219 -241 471
-483 592 -27 14 -50 28 -52 33 -2 4 -10 7 -18 7 -8 0 -32 9 -53 20 -21 10 -50
21 -65 24 -14 2 -30 7 -36 11 -5 3 -18 8 -27 10 -87 21 -165 38 -198 42 -74 9
-350 10 -400 1z"/>
<path d="M2900 5530 c-89 -41 -140 -114 -146 -209 -4 -68 12 -120 56 -172 66
-80 182 -110 274 -70 55 24 98 55 89 65 -3 3 -1 6 5 6 7 0 22 22 35 48 49 100
20 229 -67 298 -68 54 -171 68 -246 34z"/>
<path d="M4321 4864 c-24 -9 -50 -22 -57 -29 -8 -7 -17 -15 -22 -17 -21 -8
-72 -100 -77 -138 -3 -23 -8 -46 -11 -51 -3 -5 -2 -9 3 -9 4 0 9 -13 10 -30 4
-63 59 -137 127 -172 130 -67 300 3 344 142 6 19 6 130 0 150 -16 56 -68 115
-127 145 -49 24 -136 29 -190 9z"/>
<path d="M5734 4536 c-58 -27 -115 -89 -132 -142 -6 -20 -10 -62 -8 -93 11
-224 294 -312 433 -134 29 36 69 143 54 143 -4 0 -7 10 -6 22 5 67 -57 163
-128 200 -62 32 -149 33 -213 4z"/>
</g>
</svg>
